NotoSerifBengali-CondensedLight.ufo
<glyph name="exclam" format="2">
  <advance width="216"/>
  <unicode hex="0021"/>
  <outline>
    <contour>
      <point x="98" y="167" type="line"/>
      <point x="122" y="167" type="line"/>
      <point x="124" y="714" type="line"/>
      <point x="96" y="714" type="line"/>
    </contour>
    <contour>
      <point x="109" y="-5" type="curve" smooth="yes"/>
      <point x="123" y="-5"/>
      <point x="137" y="5"/>
      <point x="137" y="34" type="curve" smooth="yes"/>
      <point x="137" y="64"/>
      <point x="123" y="74"/>
      <point x="109" y="74" type="curve" smooth="yes"/>
      <point x="92" y="74"/>
      <point x="79" y="64"/>
      <point x="79" y="34" type="curve" smooth="yes"/>
      <point x="79" y="5"/>
      <point x="92" y="-5"/>
    </contour>
  </outline>
</glyph>
<glyph name="quotedbl" format="2">
  <advance width="235"/>
  <unicode hex="0022"/>
  <outline>
    <contour>
      <point x="168" y="499" type="line"/>
      <point x="187" y="499" type="line"/>
      <point x="199" y="714" type="line"/>
      <point x="156" y="714" type="line"/>
    </contour>
    <contour>
      <point x="48" y="499" type="line"/>
      <point x="67" y="499" type="line"/>
      <point x="79" y="714" type="line"/>
      <point x="36" y="714" type="line"/>
    </contour>
  </outline>
</glyph>
<glyph name="quotesingle" format="2">
  <advance width="115"/>
  <unicode hex="0027"/>
  <outline>
    <contour>
      <point x="48" y="525" type="line"/>
      <point x="67" y="525" type="line"/>
      <point x="79" y="714" type="line"/>
      <point x="36" y="714" type="line"/>
    </contour>
  </outline>
</glyph>
<glyph name="plus" format="2">
  <advance width="425"/>
  <unicode hex="002B"/>
  <outline>
    <contour>
      <point x="198" y="143" type="line"/>
      <point x="228" y="143" type="line"/>
      <point x="228" y="344" type="line"/>
      <point x="375" y="344" type="line"/>
      <point x="375" y="372" type="line"/>
      <point x="228" y="372" type="line"/>
      <point x="228" y="572" type="line"/>
      <point x="198" y="572" type="line"/>
      <point x="198" y="372" type="line"/>
      <point x="50" y="372" type="line"/>
      <point x="50" y="344" type="line"/>
      <point x="198" y="344" type="line"/>
    </contour>
  </outline>
</glyph>
<glyph name="comma" format="2">
  <advance width="157"/>
  <unicode hex="002C"/>
  <outline>
    <contour>
      <point x="20" y="-154" type="line"/>
      <point x="91" y="-124"/>
      <point x="118" y="-58"/>
      <point x="118" y="0" type="curve" smooth="yes"/>
      <point x="118" y="56"/>
      <point x="94" y="73"/>
      <point x="72" y="73" type="curve" smooth="yes"/>
      <point x="55" y="73"/>
      <point x="42" y="62"/>
      <point x="42" y="47" type="curve" smooth="yes"/>
      <point x="42" y="16"/>
      <point x="86" y="11"/>
      <point x="86" y="-26" type="curve" smooth="yes"/>
      <point x="86" y="-61"/>
      <point x="67" y="-110"/>
      <point x="20" y="-128" type="curve"/>
    </contour>
  </outline>
</glyph>
<glyph name="period" format="2">
  <advance width="157"/>
  <unicode hex="002E"/>
  <outline>
    <contour>
      <point x="80" y="-6" type="curve" smooth="yes"/>
      <point x="94" y="-6"/>
      <point x="107" y="4"/>
      <point x="107" y="33" type="curve" smooth="yes"/>
      <point x="107" y="63"/>
      <point x="94" y="73"/>
      <point x="80" y="73" type="curve" smooth="yes"/>
      <point x="63" y="73"/>
      <point x="50" y="63"/>
      <point x="50" y="33" type="curve" smooth="yes"/>
      <point x="50" y="4"/>
      <point x="63" y="-6"/>
    </contour>
  </outline>
</glyph>
<glyph name="zero" format="2">
  <advance width="425"/>
  <unicode hex="0030"/>
  <outline>
    <contour>
      <point x="212" y="-10" type="curve" smooth="yes"/>
      <point x="319" y="-10"/>
      <point x="381" y="105"/>
      <point x="381" y="358" type="curve" smooth="yes"/>
      <point x="381" y="600"/>
      <point x="325" y="724"/>
      <point x="213" y="724" type="curve" smooth="yes"/>
      <point x="92" y="724"/>
      <point x="43" y="590"/>
      <point x="43" y="359" type="curve" smooth="yes"/>
      <point x="43" y="114"/>
      <point x="99" y="-10"/>
    </contour>
    <contour>
      <point x="212" y="15" type="curve" smooth="yes"/>
      <point x="112" y="15"/>
      <point x="71" y="141"/>
      <point x="71" y="358" type="curve" smooth="yes"/>
      <point x="71" y="575"/>
      <point x="112" y="699"/>
      <point x="213" y="699" type="curve" smooth="yes"/>
      <point x="312" y="699"/>
      <point x="353" y="575"/>
      <point x="353" y="358" type="curve" smooth="yes"/>
      <point x="353" y="141"/>
      <point x="312" y="15"/>
    </contour>
  </outline>
</glyph>
<glyph name="one" format="2">
  <advance width="425"/>
  <unicode hex="0031"/>
  <outline>
    <contour>
      <point x="86" y="0" type="line"/>
      <point x="363" y="0" type="line"/>
      <point x="363" y="20" type="line"/>
      <point x="298" y="20" type="line" smooth="yes"/>
      <point x="250" y="20"/>
      <point x="242" y="30"/>
      <point x="242" y="105" type="curve" smooth="yes"/>
      <point x="242" y="718" type="line"/>
      <point x="224" y="718" type="line"/>
      <point x="180" y="666" type="line" smooth="yes"/>
      <point x="134" y="611"/>
      <point x="97" y="597"/>
      <point x="63" y="587" type="curve"/>
      <point x="63" y="577"/>
      <point x="76" y="571"/>
      <point x="88" y="571" type="curve" smooth="yes"/>
      <point x="132" y="571"/>
      <point x="168" y="612"/>
      <point x="214" y="668" type="curve"/>
      <point x="214" y="105" type="line" smooth="yes"/>
      <point x="214" y="30"/>
      <point x="206" y="20"/>
      <point x="158" y="20" type="curve" smooth="yes"/>
      <point x="86" y="20" type="line"/>
    </contour>
  </outline>
</glyph>
<glyph name="two" format="2">
  <advance width="425"/>
  <unicode hex="0032"/>
  <outline>
    <contour>
      <point x="46" y="0" type="line"/>
      <point x="357" y="0" type="line"/>
      <point x="359" y="131" type="line"/>
      <point x="339" y="131" type="line"/>
      <point x="338" y="96" type="line" smooth="yes"/>
      <point x="337" y="45"/>
      <point x="331" y="28"/>
      <point x="278" y="28" type="curve" smooth="yes"/>
      <point x="78" y="28" type="line"/>
      <point x="232" y="283" type="line" smooth="yes"/>
      <point x="293" y="384"/>
      <point x="336" y="459"/>
      <point x="336" y="558" type="curve" smooth="yes"/>
      <point x="336" y="653"/>
      <point x="289" y="724"/>
      <point x="199" y="724" type="curve" smooth="yes"/>
      <point x="104" y="724"/>
      <point x="65" y="650"/>
      <point x="65" y="602" type="curve" smooth="yes"/>
      <point x="65" y="574"/>
      <point x="74" y="563"/>
      <point x="88" y="563" type="curve"/>
      <point x="88" y="639"/>
      <point x="120" y="699"/>
      <point x="199" y="699" type="curve" smooth="yes"/>
      <point x="277" y="699"/>
      <point x="308" y="639"/>
      <point x="308" y="553" type="curve" smooth="yes"/>
      <point x="308" y="469"/>
      <point x="274" y="399"/>
      <point x="202" y="280" type="curve" smooth="yes"/>
      <point x="46" y="22" type="line"/>
    </contour>
  </outline>
</glyph>
<glyph name="three" format="2">
  <advance width="425"/>
  <unicode hex="0033"/>
  <outline>
    <contour>
      <point x="196" y="-9" type="curve" smooth="yes"/>
      <point x="288" y="-9"/>
      <point x="362" y="63"/>
      <point x="362" y="190" type="curve" smooth="yes"/>
      <point x="362" y="323"/>
      <point x="292" y="371"/>
      <point x="212" y="376" type="curve"/>
      <point x="292" y="390"/>
      <point x="343" y="471"/>
      <point x="343" y="561" type="curve" smooth="yes"/>
      <point x="343" y="662"/>
      <point x="290" y="724"/>
      <point x="209" y="724" type="curve" smooth="yes"/>
      <point x="128" y="724"/>
      <point x="76" y="668"/>
      <point x="76" y="593" type="curve" smooth="yes"/>
      <point x="76" y="563"/>
      <point x="87" y="553"/>
      <point x="97" y="553" type="curve"/>
      <point x="97" y="639"/>
      <point x="125" y="699"/>
      <point x="209" y="699" type="curve" smooth="yes"/>
      <point x="280" y="699"/>
      <point x="315" y="649"/>
      <point x="315" y="560" type="curve" smooth="yes"/>
      <point x="315" y="451"/>
      <point x="248" y="387"/>
      <point x="169" y="387" type="curve" smooth="yes"/>
      <point x="149" y="387" type="line"/>
      <point x="149" y="362" type="line"/>
      <point x="169" y="362" type="line" smooth="yes"/>
      <point x="281" y="362"/>
      <point x="334" y="302"/>
      <point x="334" y="191" type="curve" smooth="yes"/>
      <point x="334" y="86"/>
      <point x="281" y="16"/>
      <point x="196" y="16" type="curve" smooth="yes"/>
      <point x="118" y="16"/>
      <point x="76" y="57"/>
      <point x="76" y="136" type="curve"/>
      <point x="61" y="136"/>
      <point x="55" y="119"/>
      <point x="55" y="98" type="curve" smooth="yes"/>
      <point x="55" y="42"/>
      <point x="106" y="-9"/>
    </contour>
  </outline>
</glyph>
<glyph name="five" format="2">
  <advance width="425"/>
  <unicode hex="0035"/>
  <outline>
    <contour>
      <point x="195" y="-10" type="curve" smooth="yes"/>
      <point x="292" y="-10"/>
      <point x="362" y="62"/>
      <point x="362" y="216" type="curve" smooth="yes"/>
      <point x="362" y="352"/>
      <point x="292" y="423"/>
      <point x="195" y="423" type="curve" smooth="yes"/>
      <point x="156" y="423"/>
      <point x="127" y="412"/>
      <point x="104" y="400" type="curve"/>
      <point x="124" y="686" type="line"/>
      <point x="263" y="686" type="line" smooth="yes"/>
      <point x="307" y="686"/>
      <point x="314" y="680"/>
      <point x="316" y="628" type="curve" smooth="yes"/>
      <point x="317" y="603" type="line"/>
      <point x="337" y="603" type="line"/>
      <point x="334" y="714" type="line"/>
      <point x="101" y="714" type="line"/>
      <point x="77" y="366" type="line"/>
      <point x="90" y="362" type="line"/>
      <point x="112" y="381"/>
      <point x="147" y="398"/>
      <point x="196" y="398" type="curve" smooth="yes"/>
      <point x="283" y="398"/>
      <point x="334" y="335"/>
      <point x="334" y="216" type="curve" smooth="yes"/>
      <point x="334" y="76"/>
      <point x="277" y="15"/>
      <point x="195" y="15" type="curve" smooth="yes"/>
      <point x="107" y="15"/>
      <point x="73" y="67"/>
      <point x="73" y="126" type="curve"/>
      <point x="58" y="126"/>
      <point x="50" y="115"/>
      <point x="50" y="88" type="curve" smooth="yes"/>
      <point x="50" y="57"/>
      <point x="89" y="-10"/>
    </contour>
  </outline>
</glyph>
<glyph name="six" format="2">
  <advance width="425"/>
  <unicode hex="0036"/>
  <outline>
    <contour>
      <point x="227" y="-10" type="curve" smooth="yes"/>
      <point x="296" y="-10"/>
      <point x="373" y="43"/>
      <point x="373" y="216" type="curve" smooth="yes"/>
      <point x="373" y="354"/>
      <point x="322" y="429"/>
      <point x="226" y="429" type="curve" smooth="yes"/>
      <point x="154" y="429"/>
      <point x="107" y="383"/>
      <point x="86" y="354" type="curve"/>
      <point x="85" y="608"/>
      <point x="137" y="699"/>
      <point x="239" y="699" type="curve" smooth="yes"/>
      <point x="309" y="699"/>
      <point x="335" y="661"/>
      <point x="335" y="587" type="curve"/>
      <point x="345" y="587"/>
      <point x="355" y="592"/>
      <point x="355" y="625" type="curve" smooth="yes"/>
      <point x="355" y="682"/>
      <point x="317" y="724"/>
      <point x="240" y="724" type="curve" smooth="yes"/>
      <point x="127" y="724"/>
      <point x="58" y="637"/>
      <point x="58" y="339" type="curve" smooth="yes"/>
      <point x="58" y="93"/>
      <point x="121" y="-10"/>
    </contour>
    <contour>
      <point x="228" y="15" type="curve" smooth="yes"/>
      <point x="137" y="15"/>
      <point x="88" y="110"/>
      <point x="86" y="317" type="curve"/>
      <point x="112" y="354"/>
      <point x="156" y="404"/>
      <point x="226" y="404" type="curve" smooth="yes"/>
      <point x="307" y="404"/>
      <point x="345" y="344"/>
      <point x="345" y="217" type="curve" smooth="yes"/>
      <point x="345" y="77"/>
      <point x="298" y="15"/>
    </contour>
  </outline>
</glyph>
<glyph name="seven" format="2">
  <advance width="425"/>
  <unicode hex="0037"/>
  <outline>
    <contour>
      <point x="144" y="0" type="line"/>
      <point x="174" y="0" type="line"/>
      <point x="378" y="692" type="line"/>
      <point x="378" y="714" type="line"/>
      <point x="51" y="714" type="line"/>
      <point x="47" y="570" type="line"/>
      <point x="67" y="570" type="line"/>
      <point x="70" y="630" type="line" smooth="yes"/>
      <point x="73" y="680"/>
      <point x="82" y="686"/>
      <point x="117" y="686" type="curve" smooth="yes"/>
      <point x="348" y="686" type="line"/>
    </contour>
  </outline>
</glyph>
<glyph name="eight" format="2">
  <advance width="425"/>
  <unicode hex="0038"/>
  <outline>
    <contour>
      <point x="216" y="-10" type="curve" smooth="yes"/>
      <point x="306" y="-10"/>
      <point x="376" y="55"/>
      <point x="376" y="172" type="curve" smooth="yes"/>
      <point x="376" y="280"/>
      <point x="328" y="326"/>
      <point x="244" y="374" type="curve"/>
      <point x="315" y="408"/>
      <point x="358" y="461"/>
      <point x="358" y="556" type="curve" smooth="yes"/>
      <point x="358" y="650"/>
      <point x="305" y="724"/>
      <point x="215" y="724" type="curve" smooth="yes"/>
      <point x="121" y="724"/>
      <point x="68" y="649"/>
      <point x="68" y="552" type="curve" smooth="yes"/>
      <point x="68" y="469"/>
      <point x="119" y="411"/>
      <point x="192" y="376" type="curve"/>
      <point x="102" y="338"/>
      <point x="50" y="273"/>
      <point x="50" y="171" type="curve" smooth="yes"/>
      <point x="50" y="61"/>
      <point x="113" y="-10"/>
    </contour>
    <contour>
      <point x="216" y="15" type="curve" smooth="yes"/>
      <point x="125" y="15"/>
      <point x="78" y="77"/>
      <point x="78" y="170" type="curve" smooth="yes"/>
      <point x="78" y="253"/>
      <point x="113" y="321"/>
      <point x="217" y="362" type="curve"/>
      <point x="315" y="312"/>
      <point x="348" y="259"/>
      <point x="348" y="170" type="curve" smooth="yes"/>
      <point x="348" y="70"/>
      <point x="293" y="15"/>
    </contour>
    <contour>
      <point x="219" y="388" type="curve"/>
      <point x="137" y="428"/>
      <point x="96" y="471"/>
      <point x="96" y="558" type="curve" smooth="yes"/>
      <point x="96" y="641"/>
      <point x="141" y="699"/>
      <point x="215" y="699" type="curve" smooth="yes"/>
      <point x="297" y="699"/>
      <point x="330" y="627"/>
      <point x="330" y="556" type="curve" smooth="yes"/>
      <point x="330" y="469"/>
      <point x="307" y="430"/>
    </contour>
  </outline>
</glyph>
<glyph name="nine" format="2">
  <advance width="425"/>
  <unicode hex="0039"/>
  <outline>
    <contour>
      <point x="178" y="-13" type="curve" smooth="yes"/>
      <point x="302" y="-13"/>
      <point x="366" y="89"/>
      <point x="366" y="388" type="curve" smooth="yes"/>
      <point x="366" y="635"/>
      <point x="292" y="724"/>
      <point x="198" y="724" type="curve" smooth="yes"/>
      <point x="103" y="724"/>
      <point x="51" y="639"/>
      <point x="51" y="484" type="curve" smooth="yes"/>
      <point x="51" y="351"/>
      <point x="113" y="285"/>
      <point x="205" y="285" type="curve" smooth="yes"/>
      <point x="281" y="285"/>
      <point x="328" y="339"/>
      <point x="338" y="357" type="curve"/>
      <point x="332" y="116"/>
      <point x="287" y="12"/>
      <point x="179" y="12" type="curve" smooth="yes"/>
      <point x="125" y="12"/>
      <point x="97" y="48"/>
      <point x="85" y="80" type="curve"/>
      <point x="79" y="77"/>
      <point x="76" y="70"/>
      <point x="76" y="55" type="curve" smooth="yes"/>
      <point x="76" y="22"/>
      <point x="114" y="-13"/>
    </contour>
    <contour>
      <point x="205" y="310" type="curve" smooth="yes"/>
      <point x="122" y="310"/>
      <point x="79" y="368"/>
      <point x="79" y="488" type="curve" smooth="yes"/>
      <point x="79" y="619"/>
      <point x="113" y="699"/>
      <point x="198" y="699" type="curve" smooth="yes"/>
      <point x="285" y="699"/>
      <point x="338" y="603"/>
      <point x="338" y="397" type="curve"/>
      <point x="312" y="352"/>
      <point x="273" y="310"/>
    </contour>
  </outline>
</glyph>
<glyph name="colon" format="2">
  <advance width="158"/>
  <unicode hex="003A"/>
  <outline>
    <contour>
      <point x="80" y="430" type="curve" smooth="yes"/>
      <point x="94" y="430"/>
      <point x="108" y="439"/>
      <point x="108" y="469" type="curve" smooth="yes"/>
      <point x="108" y="499"/>
      <point x="94" y="508"/>
      <point x="80" y="508" type="curve" smooth="yes"/>
      <point x="63" y="508"/>
      <point x="50" y="499"/>
      <point x="50" y="469" type="curve" smooth="yes"/>
      <point x="50" y="439"/>
      <point x="63" y="430"/>
    </contour>
    <contour>
      <point x="80" y="-5" type="curve" smooth="yes"/>
      <point x="94" y="-5"/>
      <point x="108" y="4"/>
      <point x="108" y="34" type="curve" smooth="yes"/>
      <point x="108" y="64"/>
      <point x="94" y="73"/>
      <point x="80" y="73" type="curve" smooth="yes"/>
      <point x="63" y="73"/>
      <point x="50" y="64"/>
      <point x="50" y="34" type="curve" smooth="yes"/>
      <point x="50" y="4"/>
      <point x="63" y="-5"/>
    </contour>
  </outline>
</glyph>
<glyph name="semicolon" format="2">
  <advance width="172"/>
  <unicode hex="003B"/>
  <outline>
    <contour>
      <point x="20" y="-154" type="line"/>
      <point x="91" y="-124"/>
      <point x="118" y="-58"/>
      <point x="118" y="0" type="curve" smooth="yes"/>
      <point x="118" y="56"/>
      <point x="94" y="73"/>
      <point x="72" y="73" type="curve" smooth="yes"/>
      <point x="55" y="73"/>
      <point x="42" y="62"/>
      <point x="42" y="47" type="curve" smooth="yes"/>
      <point x="42" y="16"/>
      <point x="86" y="11"/>
      <point x="86" y="-26" type="curve" smooth="yes"/>
      <point x="86" y="-61"/>
      <point x="67" y="-110"/>
      <point x="20" y="-128" type="curve"/>
    </contour>
    <contour>
      <point x="80" y="430" type="curve" smooth="yes"/>
      <point x="95" y="430"/>
      <point x="108" y="439"/>
      <point x="108" y="469" type="curve" smooth="yes"/>
      <point x="108" y="499"/>
      <point x="95" y="508"/>
      <point x="80" y="508" type="curve" smooth="yes"/>
      <point x="63" y="508"/>
      <point x="50" y="499"/>
      <point x="50" y="469" type="curve" smooth="yes"/>
      <point x="50" y="439"/>
      <point x="63" y="430"/>
    </contour>
  </outline>
</glyph>
<glyph name="equal" format="2">
  <advance width="422"/>
  <unicode hex="003D"/>
  <outline>
    <contour>
      <point x="50" y="443" type="line"/>
      <point x="372" y="443" type="line"/>
      <point x="372" y="471" type="line"/>
      <point x="50" y="471" type="line"/>
    </contour>
    <contour>
      <point x="50" y="244" type="line"/>
      <point x="372" y="244" type="line"/>
      <point x="372" y="272" type="line"/>
      <point x="50" y="272" type="line"/>
    </contour>
  </outline>
</glyph>
<glyph name="greater" format="2">
  <advance width="425"/>
  <unicode hex="003E"/>
  <outline>
    <contour>
      <point x="50" y="117" type="line"/>
      <point x="375" y="344" type="line"/>
      <point x="375" y="371" type="line"/>
      <point x="50" y="599" type="line"/>
      <point x="50" y="563" type="line"/>
      <point x="344" y="357" type="line"/>
      <point x="50" y="153" type="line"/>
    </contour>
  </outline>
</glyph>
<glyph name="question" format="2">
  <advance width="352"/>
  <unicode hex="003F"/>
  <outline>
    <contour>
      <point x="149" y="167" type="line"/>
      <point x="171" y="167" type="line"/>
      <point x="173" y="323" type="line"/>
      <point x="261" y="369"/>
      <point x="306" y="438"/>
      <point x="306" y="552" type="curve" smooth="yes"/>
      <point x="306" y="664"/>
      <point x="250" y="724"/>
      <point x="167" y="724" type="curve" smooth="yes"/>
      <point x="76" y="724"/>
      <point x="38" y="662"/>
      <point x="38" y="612" type="curve" smooth="yes"/>
      <point x="38" y="581"/>
      <point x="49" y="569"/>
      <point x="59" y="569" type="curve"/>
      <point x="59" y="642"/>
      <point x="86" y="699"/>
      <point x="167" y="699" type="curve" smooth="yes"/>
      <point x="240" y="699"/>
      <point x="278" y="642"/>
      <point x="278" y="550" type="curve" smooth="yes"/>
      <point x="278" y="453"/>
      <point x="238" y="385"/>
      <point x="146" y="337" type="curve"/>
    </contour>
    <contour>
      <point x="161" y="-5" type="curve" smooth="yes"/>
      <point x="178" y="-5"/>
      <point x="192" y="4"/>
      <point x="192" y="34" type="curve" smooth="yes"/>
      <point x="192" y="64"/>
      <point x="178" y="73"/>
      <point x="161" y="73" type="curve" smooth="yes"/>
      <point x="146" y="73"/>
      <point x="133" y="64"/>
      <point x="133" y="34" type="curve" smooth="yes"/>
      <point x="133" y="4"/>
      <point x="146" y="-5"/>
    </contour>
  </outline>
</glyph>
<glyph name="bracketleft" format="2">
  <advance width="233"/>
  <unicode hex="005B"/>
  <outline>
    <contour>
      <point x="75" y="-128" type="line"/>
      <point x="204" y="-128" type="line"/>
      <point x="204" y="-108" type="line"/>
      <point x="159" y="-108" type="line" smooth="yes"/>
      <point x="109" y="-108"/>
      <point x="103" y="-97"/>
      <point x="103" y="-20" type="curve" smooth="yes"/>
      <point x="103" y="652" type="line" smooth="yes"/>
      <point x="103" y="729"/>
      <point x="109" y="740"/>
      <point x="159" y="740" type="curve" smooth="yes"/>
      <point x="204" y="740" type="line"/>
      <point x="204" y="760" type="line"/>
      <point x="75" y="760" type="line"/>
    </contour>
  </outline>
</glyph>
<glyph name="asciicircum" format="2">
  <advance width="424"/>
  <unicode hex="005E"/>
  <outline>
    <contour>
      <point x="40" y="271" type="line"/>
      <point x="72" y="271" type="line"/>
      <point x="211" y="665" type="line"/>
      <point x="352" y="271" type="line"/>
      <point x="384" y="271" type="line"/>
      <point x="223" y="714" type="line"/>
      <point x="199" y="714" type="line"/>
    </contour>
  </outline>
</glyph>
<glyph name="braceleft" format="2">
  <advance width="314"/>
  <unicode hex="007B"/>
  <outline>
    <contour>
      <point x="240" y="-132" type="curve" smooth="yes"/>
      <point x="261" y="-132" type="line"/>
      <point x="261" y="-107" type="line"/>
      <point x="245" y="-107" type="line" smooth="yes"/>
      <point x="195" y="-107"/>
      <point x="173" y="-70"/>
      <point x="173" y="13" type="curve" smooth="yes"/>
      <point x="173" y="175" type="line" smooth="yes"/>
      <point x="173" y="260"/>
      <point x="142" y="303"/>
      <point x="93" y="313" type="curve"/>
      <point x="93" y="315" type="line"/>
      <point x="142" y="325"/>
      <point x="173" y="370"/>
      <point x="173" y="455" type="curve" smooth="yes"/>
      <point x="173" y="614" type="line" smooth="yes"/>
      <point x="173" y="698"/>
      <point x="195" y="735"/>
      <point x="245" y="735" type="curve" smooth="yes"/>
      <point x="261" y="735" type="line"/>
      <point x="261" y="760" type="line"/>
      <point x="238" y="760" type="line" smooth="yes"/>
      <point x="177" y="760"/>
      <point x="146" y="705"/>
      <point x="146" y="621" type="curve" smooth="yes"/>
      <point x="146" y="459" type="line" smooth="yes"/>
      <point x="146" y="355"/>
      <point x="106" y="333"/>
      <point x="52" y="326" type="curve"/>
      <point x="52" y="302" type="line"/>
      <point x="106" y="295"/>
      <point x="146" y="275"/>
      <point x="146" y="171" type="curve" smooth="yes"/>
      <point x="146" y="8" type="line" smooth="yes"/>
      <point x="146" y="-77"/>
      <point x="176" y="-132"/>
    </contour>
  </outline>
</glyph>
<glyph name="braceright" format="2">
  <advance width="267"/>
  <unicode hex="007D"/>
  <outline>
    <contour>
      <point x="53" y="-132" type="line"/>
      <point x="74" y="-132" type="line" smooth="yes"/>
      <point x="138" y="-132"/>
      <point x="168" y="-77"/>
      <point x="168" y="8" type="curve" smooth="yes"/>
      <point x="168" y="171" type="line" smooth="yes"/>
      <point x="168" y="275"/>
      <point x="208" y="295"/>
      <point x="262" y="302" type="curve"/>
      <point x="262" y="326" type="line"/>
      <point x="208" y="333"/>
      <point x="168" y="355"/>
      <point x="168" y="459" type="curve" smooth="yes"/>
      <point x="168" y="621" type="line" smooth="yes"/>
      <point x="168" y="705"/>
      <point x="137" y="760"/>
      <point x="76" y="760" type="curve" smooth="yes"/>
      <point x="53" y="760" type="line"/>
      <point x="53" y="735" type="line"/>
      <point x="69" y="735" type="line" smooth="yes"/>
      <point x="119" y="735"/>
      <point x="141" y="698"/>
      <point x="141" y="614" type="curve" smooth="yes"/>
      <point x="141" y="455" type="line" smooth="yes"/>
      <point x="141" y="370"/>
      <point x="172" y="325"/>
      <point x="221" y="315" type="curve"/>
      <point x="221" y="313" type="line"/>
      <point x="172" y="303"/>
      <point x="141" y="260"/>
      <point x="141" y="175" type="curve" smooth="yes"/>
      <point x="141" y="13" type="line" smooth="yes"/>
      <point x="141" y="-70"/>
      <point x="119" y="-107"/>
      <point x="69" y="-107" type="curve" smooth="yes"/>
      <point x="53" y="-107" type="line"/>
    </contour>
  </outline>
</glyph>
<glyph name="divide" format="2">
  <advance width="425"/>
  <unicode hex="00F7"/>
  <outline>
    <contour>
      <point x="50" y="344" type="line"/>
      <point x="375" y="344" type="line"/>
      <point x="375" y="372" type="line"/>
      <point x="50" y="372" type="line"/>
    </contour>
    <contour>
      <point x="213" y="132" type="curve" smooth="yes"/>
      <point x="230" y="132"/>
      <point x="242" y="140"/>
      <point x="242" y="168" type="curve" smooth="yes"/>
      <point x="242" y="198"/>
      <point x="230" y="206"/>
      <point x="213" y="206" type="curve" smooth="yes"/>
      <point x="195" y="206"/>
      <point x="185" y="198"/>
      <point x="185" y="168" type="curve" smooth="yes"/>
      <point x="185" y="140"/>
      <point x="195" y="132"/>
    </contour>
    <contour>
      <point x="213" y="513" type="curve" smooth="yes"/>
      <point x="230" y="513"/>
      <point x="242" y="521"/>
      <point x="242" y="549" type="curve" smooth="yes"/>
      <point x="242" y="579"/>
      <point x="230" y="587"/>
      <point x="213" y="587" type="curve" smooth="yes"/>
      <point x="195" y="587"/>
      <point x="185" y="579"/>
      <point x="185" y="549" type="curve" smooth="yes"/>
      <point x="185" y="521"/>
      <point x="195" y="513"/>
    </contour>
  </outline>
</glyph>
<glyph name="uni02BC" format="2">
  <advance width="168"/>
  <unicode hex="02BC"/>
  <outline>
    <contour>
      <point x="12" y="462" type="line"/>
      <point x="95" y="501"/>
      <point x="118" y="549"/>
      <point x="118" y="626" type="curve" smooth="yes"/>
      <point x="118" y="676"/>
      <point x="101" y="714"/>
      <point x="71" y="714" type="curve" smooth="yes"/>
      <point x="51" y="714"/>
      <point x="41" y="700"/>
      <point x="41" y="687" type="curve" smooth="yes"/>
      <point x="41" y="650"/>
      <point x="86" y="652"/>
      <point x="86" y="593" type="curve" smooth="yes"/>
      <point x="86" y="558"/>
      <point x="72" y="517"/>
      <point x="12" y="488" type="curve"/>
    </contour>
  </outline>
</glyph>
<glyph name="udatta-deva" format="2">
  <unicode hex="0951"/>
  <outline>
    <contour>
      <point x="-101" y="681" type="line"/>
      <point x="-72" y="681" type="line"/>
      <point x="-72" y="867" type="line"/>
      <point x="-101" y="867" type="line"/>
    </contour>
  </outline>
</glyph>
<glyph name="anudatta-deva" format="2">
  <unicode hex="0952"/>
  <outline>
    <contour>
      <point x="-339" y="-101" type="line"/>
      <point x="-39" y="-101" type="line"/>
      <point x="-39" y="-77" type="line"/>
      <point x="-339" y="-77" type="line"/>
    </contour>
  </outline>
</glyph>
<glyph name="danda-deva" format="2">
  <advance width="338"/>
  <unicode hex="0964"/>
  <outline>
    <contour>
      <point x="260" y="-10" type="line"/>
      <point x="263" y="-9" type="line"/>
      <point x="263" y="595" type="line"/>
      <point x="243" y="612" type="line"/>
      <point x="240" y="612" type="line"/>
      <point x="240" y="3" type="line"/>
    </contour>
  </outline>
</glyph>
<glyph name="anji-beng" format="2">
  <advance width="368"/>
  <unicode hex="0980"/>
  <outline>
    <contour>
      <point x="297" y="22" type="curve" smooth="yes"/>
      <point x="316" y="22"/>
      <point x="331" y="37"/>
      <point x="331" y="59" type="curve" smooth="yes"/>
      <point x="331" y="83"/>
      <point x="318" y="98"/>
      <point x="299" y="98" type="curve" smooth="yes"/>
      <point x="280" y="98"/>
      <point x="273" y="86"/>
      <point x="271" y="71" type="curve"/>
      <point x="281" y="69" type="line"/>
      <point x="281" y="506" type="line" smooth="yes"/>
      <point x="281" y="576"/>
      <point x="253" y="626"/>
      <point x="192" y="626" type="curve" smooth="yes"/>
      <point x="115" y="626"/>
      <point x="52" y="546"/>
      <point x="52" y="437" type="curve" smooth="yes"/>
      <point x="52" y="349"/>
      <point x="92" y="286"/>
      <point x="152" y="286" type="curve" smooth="yes"/>
      <point x="187" y="286"/>
      <point x="204" y="308"/>
      <point x="204" y="342" type="curve" smooth="yes"/>
      <point x="204" y="370"/>
      <point x="189" y="391"/>
      <point x="163" y="391" type="curve" smooth="yes"/>
      <point x="139" y="391"/>
      <point x="123" y="371"/>
      <point x="123" y="344" type="curve" smooth="yes"/>
      <point x="123" y="324"/>
      <point x="130" y="311"/>
      <point x="136" y="303" type="curve"/>
      <point x="154" y="317" type="line"/>
      <point x="148" y="314"/>
      <point x="143" y="313"/>
      <point x="138" y="313" type="curve" smooth="yes"/>
      <point x="106" y="313"/>
      <point x="75" y="358"/>
      <point x="75" y="428" type="curve" smooth="yes"/>
      <point x="75" y="535"/>
      <point x="135" y="602"/>
      <point x="198" y="602" type="curve" smooth="yes"/>
      <point x="239" y="602"/>
      <point x="259" y="567"/>
      <point x="259" y="500" type="curve" smooth="yes"/>
      <point x="259" y="68" type="line" smooth="yes"/>
      <point x="259" y="39"/>
      <point x="276" y="22"/>
    </contour>
  </outline>
</glyph>
<glyph name="candrabindu-beng" format="2">
  <unicode hex="0981"/>
  <anchor x="0" y="622" name="_top"/>
  <outline>
    <contour>
      <point x="-10" y="736" type="curve" smooth="yes"/>
      <point x="52" y="736"/>
      <point x="75" y="786"/>
      <point x="82" y="867" type="curve"/>
      <point x="65" y="873" type="line"/>
      <point x="57" y="791"/>
      <point x="35" y="758"/>
      <point x="-9" y="758" type="curve" smooth="yes"/>
      <point x="-54" y="758"/>
      <point x="-79" y="794"/>
      <point x="-94" y="873" type="curve"/>
      <point x="-111" y="867" type="line"/>
      <point x="-98" y="786"/>
      <point x="-66" y="736"/>
    </contour>
    <contour>
      <point x="-11" y="835" type="curve" smooth="yes"/>
      <point x="7" y="835"/>
      <point x="20" y="850"/>
      <point x="20" y="872" type="curve" smooth="yes"/>
      <point x="20" y="894"/>
      <point x="7" y="908"/>
      <point x="-11" y="908" type="curve" smooth="yes"/>
      <point x="-30" y="908"/>
      <point x="-42" y="894"/>
      <point x="-42" y="872" type="curve" smooth="yes"/>
      <point x="-42" y="850"/>
      <point x="-30" y="835"/>
    </contour>
  </outline>
</glyph>
<glyph name="anusvara-beng" format="2">
  <advance width="289"/>
  <unicode hex="0982"/>
  <outline>
    <contour>
      <point x="142" y="380" type="curve" smooth="yes"/>
      <point x="194" y="380"/>
      <point x="232" y="433"/>
      <point x="232" y="513" type="curve" smooth="yes"/>
      <point x="232" y="579"/>
      <point x="206" y="628"/>
      <point x="150" y="628" type="curve" smooth="yes"/>
      <point x="95" y="628"/>
      <point x="58" y="574"/>
      <point x="58" y="500" type="curve" smooth="yes"/>
      <point x="58" y="433"/>
      <point x="87" y="380"/>
    </contour>
    <contour>
      <point x="139" y="404" type="curve" smooth="yes"/>
      <point x="104" y="404"/>
      <point x="81" y="441"/>
      <point x="81" y="494" type="curve" smooth="yes"/>
      <point x="81" y="552"/>
      <point x="108" y="604"/>
      <point x="151" y="604" type="curve" smooth="yes"/>
      <point x="186" y="604"/>
      <point x="211" y="571"/>
      <point x="211" y="517" type="curve" smooth="yes"/>
      <point x="211" y="456"/>
      <point x="182" y="404"/>
    </contour>
    <contour>
      <point x="240" y="-24" type="curve"/>
      <point x="254" y="-14" type="line"/>
      <point x="214" y="105"/>
      <point x="148" y="203"/>
      <point x="79" y="278" type="curve"/>
      <point x="61" y="253" type="line"/>
      <point x="132" y="191"/>
      <point x="199" y="72"/>
    </contour>
  </outline>
</glyph>
<glyph name="visarga-beng" format="2">
  <advance width="290"/>
  <unicode hex="0983"/>
  <outline>
    <contour>
      <point x="142" y="380" type="curve" smooth="yes"/>
      <point x="194" y="380"/>
      <point x="232" y="433"/>
      <point x="232" y="513" type="curve" smooth="yes"/>
      <point x="232" y="579"/>
      <point x="206" y="628"/>
      <point x="150" y="628" type="curve" smooth="yes"/>
      <point x="95" y="628"/>
      <point x="58" y="574"/>
      <point x="58" y="500" type="curve" smooth="yes"/>
      <point x="58" y="433"/>
      <point x="87" y="380"/>
    </contour>
    <contour>
      <point x="139" y="404" type="curve" smooth="yes"/>
      <point x="104" y="404"/>
      <point x="81" y="441"/>
      <point x="81" y="494" type="curve" smooth="yes"/>
      <point x="81" y="552"/>
      <point x="108" y="604"/>
      <point x="151" y="604" type="curve" smooth="yes"/>
      <point x="186" y="604"/>
      <point x="211" y="571"/>
      <point x="211" y="517" type="curve" smooth="yes"/>
      <point x="211" y="456"/>
      <point x="182" y="404"/>
    </contour>
    <contour>
      <point x="142" y="4" type="curve" smooth="yes"/>
      <point x="194" y="4"/>
      <point x="232" y="57"/>
      <point x="232" y="137" type="curve" smooth="yes"/>
      <point x="232" y="203"/>
      <point x="206" y="252"/>
      <point x="150" y="252" type="curve" smooth="yes"/>
      <point x="95" y="252"/>
      <point x="58" y="198"/>
      <point x="58" y="124" type="curve" smooth="yes"/>
      <point x="58" y="57"/>
      <point x="87" y="4"/>
    </contour>
    <contour>
      <point x="139" y="28" type="curve" smooth="yes"/>
      <point x="104" y="28"/>
      <point x="81" y="65"/>
      <point x="81" y="118" type="curve" smooth="yes"/>
      <point x="81" y="176"/>
      <point x="108" y="228"/>
      <point x="151" y="228" type="curve" smooth="yes"/>
      <point x="186" y="228"/>
      <point x="211" y="195"/>
      <point x="211" y="141" type="curve" smooth="yes"/>
      <point x="211" y="80"/>
      <point x="182" y="28"/>
    </contour>
  </outline>
</glyph>
<glyph name="a-beng" format="2">
  <advance width="547"/>
  <unicode hex="0985"/>
  <anchor x="471" y="-13" name="bottom"/>
  <anchor x="473" y="50" name="bottom.rakaar"/>
  <anchor x="473" y="6" name="bottom.rvocalic"/>
  <anchor x="465" y="0" name="bottom.virama"/>
  <anchor x="473" y="602" name="top"/>
  <anchor x="473" y="602" name="topright"/>
  <outline>
    <contour>
      <point x="470" y="-3" type="line"/>
      <point x="473" y="-2" type="line"/>
      <point x="473" y="602" type="line"/>
      <point x="562" y="602" type="line"/>
      <point x="550" y="622" type="line"/>
      <point x="-15" y="622" type="line"/>
      <point x="-3" y="602" type="line"/>
      <point x="451" y="602" type="line"/>
      <point x="451" y="53" type="line"/>
      <point x="461" y="45" type="line"/>
      <point x="444" y="111"/>
      <point x="403" y="175"/>
      <point x="356" y="228" type="curve"/>
      <point x="347" y="204" type="line"/>
      <point x="394" y="151"/>
      <point x="434" y="85"/>
      <point x="456" y="10" type="curve"/>
    </contour>
    <contour>
      <point x="255" y="133" type="curve" smooth="yes"/>
      <point x="329" y="133"/>
      <point x="379" y="187"/>
      <point x="381" y="308" type="curve" smooth="yes"/>
      <point x="384" y="442"/>
      <point x="328" y="512"/>
      <point x="248" y="512" type="curve" smooth="yes"/>
      <point x="199" y="512"/>
      <point x="171" y="486"/>
      <point x="171" y="448" type="curve" smooth="yes"/>
      <point x="171" y="416"/>
      <point x="190" y="394"/>
      <point x="219" y="394" type="curve" smooth="yes"/>
      <point x="251" y="394"/>
      <point x="268" y="422"/>
      <point x="268" y="457" type="curve" smooth="yes"/>
      <point x="268" y="534"/>
      <point x="230" y="582"/>
      <point x="205" y="605" type="curve"/>
      <point x="168" y="605" type="line"/>
      <point x="219" y="573"/>
      <point x="242" y="530"/>
      <point x="248" y="483" type="curve"/>
      <point x="254" y="485"/>
      <point x="261" y="486"/>
      <point x="267" y="486" type="curve" smooth="yes"/>
      <point x="311" y="486"/>
      <point x="362" y="435"/>
      <point x="362" y="322" type="curve" smooth="yes"/>
      <point x="362" y="216"/>
      <point x="321" y="159"/>
      <point x="251" y="159" type="curve" smooth="yes"/>
      <point x="165" y="159"/>
      <point x="95" y="257"/>
      <point x="52" y="514" type="curve"/>
      <point x="33" y="510" type="line"/>
      <point x="77" y="224"/>
      <point x="158" y="133"/>
    </contour>
  </outline>
</glyph>
<glyph name="i-beng" format="2">
  <advance width="336"/>
  <unicode hex="0987"/>
  <anchor x="272" y="74" name="bottom"/>
  <anchor x="384" y="-100" name="bottom.rakaar"/>
  <anchor x="308" y="100" name="bottom.rvocalic"/>
  <anchor x="238" y="90" name="bottom.virama"/>
  <anchor x="269" y="626" name="top"/>
  <anchor x="209" y="636" name="topright"/>
  <anchor x="168" y="0" name="vedic"/>
  <outline>
    <contour>
      <point x="267" y="618" type="curve"/>
      <point x="286" y="618" type="line"/>
      <point x="280" y="726"/>
      <point x="256" y="768"/>
      <point x="191" y="768" type="curve" smooth="yes"/>
      <point x="151" y="768"/>
      <point x="126" y="756"/>
      <point x="80" y="756" type="curve" smooth="yes"/>
      <point x="26" y="756"/>
      <point x="3" y="784"/>
      <point x="3" y="861" type="curve" smooth="yes"/>
      <point x="3" y="872"/>
      <point x="4" y="888"/>
      <point x="5" y="898" type="curve"/>
      <point x="-13" y="900" type="line"/>
      <point x="-14" y="887"/>
      <point x="-15" y="870"/>
      <point x="-15" y="856" type="curve" smooth="yes"/>
      <point x="-15" y="768"/>
      <point x="19" y="735"/>
      <point x="80" y="735" type="curve" smooth="yes"/>
      <point x="129" y="735"/>
      <point x="147" y="747"/>
      <point x="192" y="747" type="curve" smooth="yes"/>
      <point x="253" y="747"/>
      <point x="262" y="697"/>
    </contour>
    <component base="ha-beng" xOffset="2"/>
  </outline>
</glyph>
<glyph name="ii-beng" format="2">
  <advance width="429"/>
  <unicode hex="0988"/>
  <anchor x="373" y="-32" name="bottom"/>
  <anchor x="373" y="70" name="bottom.rakaar"/>
  <anchor x="363" y="13" name="bottom.rvocalic"/>
  <anchor x="368" y="0" name="bottom.virama"/>
  <anchor x="244" y="626" name="top"/>
  <anchor x="211" y="636" name="topright"/>
  <outline>
    <contour>
      <point x="356" y="2" type="curve"/>
      <point x="374" y="9" type="line"/>
      <point x="359" y="72"/>
      <point x="344" y="131"/>
      <point x="344" y="230" type="curve" smooth="yes"/>
      <point x="344" y="327"/>
      <point x="361" y="404"/>
      <point x="382" y="446" type="curve"/>
      <point x="355" y="477" type="line"/>
      <point x="319" y="457"/>
      <point x="262" y="390"/>
      <point x="231" y="296" type="curve"/>
      <point x="237" y="293" type="line"/>
      <point x="239" y="307"/>
      <point x="241" y="335"/>
      <point x="241" y="359" type="curve" smooth="yes"/>
      <point x="241" y="462"/>
      <point x="193" y="509"/>
      <point x="122" y="509" type="curve" smooth="yes"/>
      <point x="78" y="509"/>
      <point x="53" y="486"/>
      <point x="53" y="447" type="curve" smooth="yes"/>
      <point x="53" y="416"/>
      <point x="70" y="400"/>
      <point x="93" y="400" type="curve" smooth="yes"/>
      <point x="122" y="400"/>
      <point x="138" y="429"/>
      <point x="138" y="465" type="curve" smooth="yes"/>
      <point x="138" y="508"/>
      <point x="116" y="566"/>
      <point x="76" y="606" type="curve"/>
      <point x="40" y="606" type="line"/>
      <point x="79" y="578"/>
      <point x="105" y="540"/>
      <point x="116" y="486" type="curve"/>
      <point x="101" y="469" type="line"/>
      <point x="114" y="478"/>
      <point x="126" y="483"/>
      <point x="142" y="483" type="curve" smooth="yes"/>
      <point x="188" y="483"/>
      <point x="221" y="437"/>
      <point x="221" y="353" type="curve" smooth="yes"/>
      <point x="221" y="309"/>
      <point x="216" y="272"/>
      <point x="202" y="238" type="curve" smooth="yes"/>
      <point x="187" y="202"/>
      <point x="169" y="176"/>
      <point x="139" y="176" type="curve" smooth="yes"/>
      <point x="103" y="176"/>
      <point x="77" y="233"/>
      <point x="63" y="269" type="curve"/>
      <point x="46" y="260" type="line"/>
      <point x="64" y="212"/>
      <point x="92" y="151"/>
      <point x="141" y="151" type="curve" smooth="yes"/>
      <point x="194" y="151"/>
      <point x="214" y="204"/>
      <point x="241" y="270" type="curve" smooth="yes"/>
      <point x="266" y="331"/>
      <point x="299" y="403"/>
      <point x="364" y="452" type="curve"/>
      <point x="358" y="453" type="line"/>
      <point x="339" y="423"/>
      <point x="322" y="328"/>
      <point x="322" y="238" type="curve" smooth="yes"/>
      <point x="322" y="150"/>
      <point x="336" y="77"/>
    </contour>
    <contour>
      <point x="-3" y="602" type="line"/>
      <point x="444" y="602" type="line"/>
      <point x="432" y="622" type="line"/>
      <point x="-15" y="622" type="line"/>
    </contour>
    <contour>
      <point x="333" y="618" type="curve"/>
      <point x="352" y="618" type="line"/>
      <point x="346" y="725"/>
      <point x="322" y="769"/>
      <point x="252" y="769" type="curve" smooth="yes"/>
      <point x="204" y="769"/>
      <point x="180" y="755"/>
      <point x="134" y="755" type="curve" smooth="yes"/>
      <point x="78" y="755"/>
      <point x="52" y="783"/>
      <point x="52" y="861" type="curve" smooth="yes"/>
      <point x="52" y="872"/>
      <point x="53" y="888"/>
      <point x="54" y="898" type="curve"/>
      <point x="36" y="900" type="line"/>
      <point x="35" y="887"/>
      <point x="34" y="870"/>
      <point x="34" y="856" type="curve" smooth="yes"/>
      <point x="34" y="767"/>
      <point x="69" y="734"/>
      <point x="132" y="734" type="curve" smooth="yes"/>
      <point x="181" y="734"/>
      <point x="202" y="748"/>
      <point x="257" y="748" type="curve" smooth="yes"/>
      <point x="317" y="748"/>
      <point x="328" y="697"/>
    </contour>
  </outline>
</glyph>
<glyph name="u-beng" format="2">
  <advance width="446"/>
  <unicode hex="0989"/>
  <anchor x="318" y="40" name="bottom"/>
  <anchor x="352" y="-26" name="bottom.rakaar"/>
  <anchor x="296" y="85" name="bottom.rvocalic"/>
  <anchor x="270" y="30" name="bottom.virama"/>
  <anchor x="243" y="623" name="top"/>
  <anchor x="208" y="634" name="topright"/>
  <anchor x="223" y="0" name="vedic"/>
  <anchor x="234" y="-12" name="nukta"/>
  <outline>
    <contour>
      <point x="352" y="618" type="curve"/>
      <point x="371" y="618" type="line"/>
      <point x="365" y="725"/>
      <point x="341" y="769"/>
      <point x="271" y="769" type="curve" smooth="yes"/>
      <point x="223" y="769"/>
      <point x="199" y="755"/>
      <point x="153" y="755" type="curve" smooth="yes"/>
      <point x="97" y="755"/>
      <point x="71" y="783"/>
      <point x="71" y="861" type="curve" smooth="yes"/>
      <point x="71" y="872"/>
      <point x="72" y="888"/>
      <point x="73" y="898" type="curve"/>
      <point x="55" y="900" type="line"/>
      <point x="54" y="887"/>
      <point x="53" y="870"/>
      <point x="53" y="856" type="curve" smooth="yes"/>
      <point x="53" y="767"/>
      <point x="88" y="734"/>
      <point x="151" y="734" type="curve" smooth="yes"/>
      <point x="200" y="734"/>
      <point x="221" y="748"/>
      <point x="276" y="748" type="curve" smooth="yes"/>
      <point x="336" y="748"/>
      <point x="347" y="697"/>
    </contour>
    <component base="dda-beng"/>
  </outline>
</glyph>
<glyph name="uu-beng" format="2">
  <advance width="482"/>
  <unicode hex="098A"/>
  <anchor x="361" y="40" name="bottom"/>
  <anchor x="395" y="-26" name="bottom.rakaar"/>
  <anchor x="338" y="85" name="bottom.rvocalic"/>
  <anchor x="312" y="30" name="bottom.virama"/>
  <anchor x="273" y="623" name="top"/>
  <anchor x="253" y="636" name="topright"/>
  <outline>
    <contour>
      <point x="301" y="84" type="curve" smooth="yes"/>
      <point x="394" y="84"/>
      <point x="449" y="153"/>
      <point x="449" y="277" type="curve" smooth="yes"/>
      <point x="449" y="358"/>
      <point x="422" y="413"/>
      <point x="395" y="443" type="curve"/>
      <point x="366" y="378"/>
      <point x="322" y="322"/>
      <point x="281" y="322" type="curve" smooth="yes"/>
      <point x="258" y="322"/>
      <point x="247" y="339"/>
      <point x="247" y="366" type="curve" smooth="yes"/>
      <point x="247" y="602" type="line"/>
      <point x="497" y="602" type="line"/>
      <point x="484" y="622" type="line"/>
      <point x="-15" y="622" type="line"/>
      <point x="-3" y="602" type="line"/>
      <point x="225" y="602" type="line"/>
      <point x="225" y="365" type="line" smooth="yes"/>
      <point x="225" y="335"/>
      <point x="235" y="319"/>
      <point x="247" y="310" type="curve" smooth="yes"/>
      <point x="258" y="301"/>
      <point x="270" y="298"/>
      <point x="284" y="298" type="curve" smooth="yes"/>
      <point x="323" y="298"/>
      <point x="369" y="335"/>
      <point x="406" y="412" type="curve"/>
      <point x="391" y="410" type="line"/>
      <point x="409" y="389"/>
      <point x="427" y="348"/>
      <point x="427" y="281" type="curve" smooth="yes"/>
      <point x="427" y="161"/>
      <point x="375" y="109"/>
      <point x="300" y="109" type="curve" smooth="yes"/>
      <point x="197" y="109"/>
      <point x="149" y="282"/>
      <point x="114" y="498" type="curve"/>
      <point x="96" y="494" type="line"/>
      <point x="121" y="330"/>
      <point x="154" y="188"/>
      <point x="227" y="108" type="curve"/>
      <point x="241" y="117" type="line"/>
      <point x="145" y="143"/>
      <point x="81" y="277"/>
      <point x="43" y="498" type="curve"/>
      <point x="25" y="494" type="line"/>
      <point x="70" y="230"/>
      <point x="148" y="84"/>
    </contour>
    <contour>
      <point x="398" y="618" type="curve"/>
      <point x="417" y="618" type="line"/>
      <point x="411" y="725"/>
      <point x="360" y="769"/>
      <point x="288" y="769" type="curve" smooth="yes"/>
      <point x="245" y="769"/>
      <point x="193" y="755"/>
      <point x="147" y="755" type="curve" smooth="yes"/>
      <point x="91" y="755"/>
      <point x="60" y="783"/>
      <point x="60" y="861" type="curve" smooth="yes"/>
      <point x="60" y="872"/>
      <point x="61" y="888"/>
      <point x="62" y="898" type="curve"/>
      <point x="44" y="900" type="line"/>
      <point x="43" y="887"/>
      <point x="42" y="870"/>
      <point x="42" y="856" type="curve" smooth="yes"/>
      <point x="42" y="767"/>
      <point x="82" y="734"/>
      <point x="145" y="734" type="curve" smooth="yes"/>
      <point x="194" y="734"/>
      <point x="243" y="748"/>
      <point x="293" y="748" type="curve" smooth="yes"/>
      <point x="355" y="748"/>
      <point x="393" y="697"/>
    </contour>
  </outline>
</glyph>
<glyph name="rVocalic-beng" format="2">
  <advance width="478"/>
  <unicode hex="098B"/>
  <anchor x="299" y="-13" name="bottom"/>
  <anchor x="301" y="50" name="bottom.rakaar"/>
  <anchor x="238" y="149" name="bottom.rvocalic"/>
  <anchor x="292" y="0" name="bottom.virama"/>
  <anchor x="301" y="602" name="top"/>
  <anchor x="303" y="602" name="topright"/>
  <outline>
    <contour>
      <point x="300" y="-3" type="line"/>
      <point x="303" y="-2" type="line"/>
      <point x="303" y="638" type="line"/>
      <point x="284" y="654" type="line"/>
      <point x="281" y="653" type="line"/>
      <point x="281" y="502" type="line"/>
      <point x="288" y="516" type="line"/>
      <point x="200" y="473"/>
      <point x="104" y="404"/>
      <point x="32" y="338" type="curve"/>
      <point x="49" y="309" type="line"/>
      <point x="143" y="258"/>
      <point x="245" y="149"/>
      <point x="286" y="10" type="curve"/>
    </contour>
    <contour>
      <point x="281" y="53" type="line"/>
      <point x="291" y="45" type="line"/>
      <point x="260" y="167"/>
      <point x="147" y="281"/>
      <point x="59" y="334" type="curve"/>
      <point x="57" y="324" type="line"/>
      <point x="128" y="394"/>
      <point x="226" y="457"/>
      <point x="286" y="487" type="curve"/>
      <point x="281" y="499" type="line"/>
    </contour>
    <contour>
      <point x="58" y="482" type="curve" smooth="yes"/>
      <point x="111" y="482"/>
      <point x="173" y="526"/>
      <point x="200" y="599" type="curve"/>
      <point x="184" y="594" type="line"/>
      <point x="204" y="576"/>
      <point x="224" y="538"/>
      <point x="251" y="482" type="curve"/>
      <point x="264" y="491" type="line"/>
      <point x="236" y="561"/>
      <point x="211" y="602"/>
      <point x="188" y="624" type="curve"/>
      <point x="157" y="548"/>
      <point x="105" y="507"/>
      <point x="58" y="507" type="curve" smooth="yes"/>
      <point x="53" y="507"/>
      <point x="46" y="508"/>
      <point x="42" y="510" type="curve"/>
      <point x="59" y="496" type="line"/>
      <point x="68" y="507"/>
      <point x="71" y="515"/>
      <point x="71" y="530" type="curve" smooth="yes"/>
      <point x="71" y="551"/>
      <point x="60" y="568"/>
      <point x="37" y="568" type="curve" smooth="yes"/>
      <point x="15" y="568"/>
      <point x="0" y="552"/>
      <point x="0" y="528" type="curve" smooth="yes"/>
      <point x="0" y="499"/>
      <point x="24" y="482"/>
    </contour>
    <contour>
      <point x="401" y="97" type="line"/>
      <point x="404" y="98" type="line"/>
      <point x="404" y="602" type="line"/>
      <point x="493" y="602" type="line"/>
      <point x="481" y="622" type="line"/>
      <point x="404" y="622" type="line"/>
      <point x="402" y="661" type="line"/>
      <point x="385" y="674" type="line"/>
      <point x="382" y="673" type="line"/>
      <point x="382" y="153" type="line"/>
      <point x="392" y="145" type="line"/>
      <point x="376" y="206"/>
      <point x="340" y="266"/>
      <point x="297" y="316" type="curve"/>
      <point x="295" y="284" type="line"/>
      <point x="335" y="235"/>
      <point x="368" y="176"/>
      <point x="387" y="110" type="curve"/>
    </contour>
  </outline>
</glyph>
<glyph name="lVocalic-beng" format="2">
  <advance width="355"/>
  <unicode hex="098C"/>
  <anchor x="246" y="602" name="top"/>
  <outline>
    <contour>
      <point x="211" y="53" type="line"/>
      <point x="268" y="71"/>
      <point x="327" y="137"/>
      <point x="327" y="264" type="curve" smooth="yes"/>
      <point x="327" y="395"/>
      <point x="258" y="423"/>
      <point x="193" y="447" type="curve" smooth="yes"/>
      <point x="135" y="468"/>
      <point x="80" y="489"/>
      <point x="80" y="585" type="curve" smooth="yes"/>
      <point x="80" y="628"/>
      <point x="91" y="656"/>
      <point x="101" y="681" type="curve"/>
      <point x="83" y="689" type="line"/>
      <point x="69" y="655"/>
      <point x="60" y="620"/>
      <point x="60" y="586" type="curve" smooth="yes"/>
      <point x="60" y="475"/>
      <point x="120" y="450"/>
      <point x="180" y="429" type="curve" smooth="yes"/>
      <point x="244" y="406"/>
      <point x="307" y="384"/>
      <point x="307" y="259" type="curve" smooth="yes"/>
      <point x="307" y="159"/>
      <point x="263" y="95"/>
      <point x="222" y="82" type="curve"/>
      <point x="232" y="77" type="line"/>
      <point x="238" y="201"/>
      <point x="215" y="280"/>
      <point x="140" y="280" type="curve" smooth="yes"/>
      <point x="83" y="280"/>
      <point x="55" y="227"/>
      <point x="55" y="173" type="curve" smooth="yes"/>
      <point x="55" y="109"/>
      <point x="86" y="73"/>
      <point x="119" y="73" type="curve" smooth="yes"/>
      <point x="145" y="73"/>
      <point x="156" y="92"/>
      <point x="156" y="115" type="curve" smooth="yes"/>
      <point x="156" y="139"/>
      <point x="141" y="155"/>
      <point x="122" y="155" type="curve" smooth="yes"/>
      <point x="103" y="155"/>
      <point x="90" y="139"/>
      <point x="91" y="113" type="curve"/>
      <point x="100" y="112" type="line"/>
      <point x="89" y="118"/>
      <point x="77" y="135"/>
      <point x="77" y="174" type="curve" smooth="yes"/>
      <point x="77" y="238"/>
      <point x="112" y="258"/>
      <point x="140" y="258" type="curve" smooth="yes"/>
      <point x="199" y="258"/>
      <point x="212" y="192"/>
      <point x="212" y="111" type="curve" smooth="yes"/>
      <point x="212" y="89"/>
      <point x="211" y="73"/>
      <point x="208" y="56" type="curve"/>
    </contour>
  </outline>
</glyph>
<glyph name="e-beng" format="2">
  <advance width="480"/>
  <unicode hex="098F"/>
  <anchor x="404" y="-19" name="bottom"/>
  <anchor x="404" y="2" name="bottom.rvocalic"/>
  <anchor x="395" y="0" name="bottom.virama"/>
  <anchor x="342" y="602" name="top"/>
  <anchor x="344" y="602" name="topright"/>
  <outline>
    <contour>
      <point x="403" y="-7" type="line"/>
      <point x="406" y="-6" type="line"/>
      <point x="406" y="544" type="line" smooth="yes"/>
      <point x="406" y="604"/>
      <point x="385" y="630"/>
      <point x="346" y="630" type="curve" smooth="yes"/>
      <point x="268" y="630"/>
      <point x="182" y="495"/>
      <point x="182" y="380" type="curve" smooth="yes"/>
      <point x="182" y="321"/>
      <point x="211" y="301"/>
      <point x="236" y="301" type="curve" smooth="yes"/>
      <point x="267" y="301"/>
      <point x="285" y="324"/>
      <point x="285" y="353" type="curve" smooth="yes"/>
      <point x="285" y="386"/>
      <point x="265" y="403"/>
      <point x="240" y="403" type="curve" smooth="yes"/>
      <point x="223" y="403"/>
      <point x="207" y="394"/>
      <point x="202" y="373" type="curve"/>
      <point x="207" y="374" type="line"/>
      <point x="206" y="498"/>
      <point x="291" y="605"/>
      <point x="347" y="605" type="curve" smooth="yes"/>
      <point x="374" y="605"/>
      <point x="384" y="587"/>
      <point x="384" y="528" type="curve" smooth="yes"/>
      <point x="384" y="170" type="line" smooth="yes"/>
      <point x="384" y="135"/>
      <point x="384" y="88"/>
      <point x="386" y="57" type="curve"/>
      <point x="363" y="110"/>
      <point x="326" y="124"/>
      <point x="293" y="124" type="curve" smooth="yes"/>
      <point x="254" y="124"/>
      <point x="219" y="109"/>
      <point x="171" y="109" type="curve" smooth="yes"/>
      <point x="105" y="109"/>
      <point x="70" y="157"/>
      <point x="70" y="254" type="curve" smooth="yes"/>
      <point x="70" y="292"/>
      <point x="76" y="325"/>
      <point x="82" y="347" type="curve"/>
      <point x="63" y="352" type="line"/>
      <point x="55" y="325"/>
      <point x="50" y="285"/>
      <point x="50" y="245" type="curve" smooth="yes"/>
      <point x="50" y="123"/>
      <point x="104" y="83"/>
      <point x="170" y="83" type="curve" smooth="yes"/>
      <point x="224" y="83"/>
      <point x="249" y="98"/>
      <point x="298" y="98" type="curve" smooth="yes"/>
      <point x="333" y="98"/>
      <point x="363" y="82"/>
      <point x="388" y="7" type="curve"/>
    </contour>
  </outline>
</glyph>
<glyph name="ai-beng" format="2">
  <advance width="550"/>
  <unicode hex="0990"/>
  <anchor x="404" y="-19" name="bottom"/>
  <anchor x="404" y="2" name="bottom.rvocalic"/>
  <anchor x="395" y="0" name="bottom.virama"/>
  <anchor x="356" y="602" name="top"/>
  <anchor x="332" y="616" name="topright"/>
  <outline>
    <contour>
      <point x="404" y="353" type="line"/>
      <point x="451" y="413"/>
      <point x="485" y="477"/>
      <point x="485" y="565" type="curve" smooth="yes"/>
      <point x="485" y="691"/>
      <point x="416" y="730"/>
      <point x="316" y="743" type="curve" smooth="yes"/>
      <point x="238" y="753"/>
      <point x="172" y="763"/>
      <point x="172" y="861" type="curve" smooth="yes"/>
      <point x="172" y="896"/>
      <point x="182" y="924"/>
      <point x="190" y="945" type="curve"/>
      <point x="171" y="952" type="line"/>
      <point x="162" y="929"/>
      <point x="152" y="899"/>
      <point x="152" y="859" type="curve" smooth="yes"/>
      <point x="152" y="752"/>
      <point x="216" y="729"/>
      <point x="309" y="720" type="curve" smooth="yes"/>
      <point x="396" y="712"/>
      <point x="463" y="679"/>
      <point x="463" y="567" type="curve" smooth="yes"/>
      <point x="463" y="487"/>
      <point x="438" y="433"/>
      <point x="396" y="379" type="curve"/>
    </contour>
    <contour>
      <point x="403" y="-7" type="line"/>
      <point x="406" y="-6" type="line"/>
      <point x="406" y="544" type="line" smooth="yes"/>
      <point x="406" y="604"/>
      <point x="385" y="630"/>
      <point x="346" y="630" type="curve" smooth="yes"/>
      <point x="268" y="630"/>
      <point x="182" y="495"/>
      <point x="182" y="380" type="curve" smooth="yes"/>
      <point x="182" y="321"/>
      <point x="211" y="301"/>
      <point x="236" y="301" type="curve" smooth="yes"/>
      <point x="267" y="301"/>
      <point x="285" y="324"/>
      <point x="285" y="353" type="curve" smooth="yes"/>
      <point x="285" y="386"/>
      <point x="265" y="403"/>
      <point x="240" y="403" type="curve" smooth="yes"/>
      <point x="223" y="403"/>
      <point x="207" y="394"/>
      <point x="202" y="373" type="curve"/>
      <point x="207" y="374" type="line"/>
      <point x="206" y="498"/>
      <point x="291" y="605"/>
      <point x="347" y="605" type="curve" smooth="yes"/>
      <point x="374" y="605"/>
      <point x="384" y="587"/>
      <point x="384" y="528" type="curve" smooth="yes"/>
      <point x="384" y="170" type="line" smooth="yes"/>
      <point x="384" y="135"/>
      <point x="384" y="88"/>
      <point x="386" y="57" type="curve"/>
      <point x="363" y="110"/>
      <point x="326" y="124"/>
      <point x="293" y="124" type="curve" smooth="yes"/>
      <point x="254" y="124"/>
      <point x="219" y="109"/>
      <point x="171" y="109" type="curve" smooth="yes"/>
      <point x="105" y="109"/>
      <point x="70" y="157"/>
      <point x="70" y="254" type="curve" smooth="yes"/>
      <point x="70" y="292"/>
      <point x="76" y="325"/>
      <point x="82" y="347" type="curve"/>
      <point x="63" y="352" type="line"/>
      <point x="55" y="325"/>
      <point x="50" y="285"/>
      <point x="50" y="245" type="curve" smooth="yes"/>
      <point x="50" y="123"/>
      <point x="104" y="83"/>
      <point x="170" y="83" type="curve" smooth="yes"/>
      <point x="224" y="83"/>
      <point x="249" y="98"/>
      <point x="298" y="98" type="curve" smooth="yes"/>
      <point x="333" y="98"/>
      <point x="363" y="82"/>
      <point x="388" y="7" type="curve"/>
    </contour>
  </outline>
</glyph>
<glyph name="au-beng" format="2">
  <advance width="550"/>
  <unicode hex="0994"/>
  <anchor x="510" y="41" name="bottom"/>
  <anchor x="558" y="-25" name="bottom.rakaar"/>
  <anchor x="477" y="86" name="bottom.rvocalic"/>
  <anchor x="445" y="31" name="bottom.virama"/>
  <anchor x="516" y="602" name="top"/>
  <anchor x="472" y="616" name="topright"/>
  <outline>
    <contour>
      <point x="404" y="353" type="line"/>
      <point x="451" y="413"/>
      <point x="485" y="477"/>
      <point x="485" y="565" type="curve" smooth="yes"/>
      <point x="485" y="691"/>
      <point x="416" y="730"/>
      <point x="316" y="743" type="curve" smooth="yes"/>
      <point x="238" y="753"/>
      <point x="172" y="763"/>
      <point x="172" y="861" type="curve" smooth="yes"/>
      <point x="172" y="896"/>
      <point x="182" y="924"/>
      <point x="190" y="945" type="curve"/>
      <point x="171" y="952" type="line"/>
      <point x="162" y="929"/>
      <point x="152" y="899"/>
      <point x="152" y="859" type="curve" smooth="yes"/>
      <point x="152" y="752"/>
      <point x="216" y="729"/>
      <point x="309" y="720" type="curve" smooth="yes"/>
      <point x="396" y="712"/>
      <point x="463" y="679"/>
      <point x="463" y="567" type="curve" smooth="yes"/>
      <point x="463" y="487"/>
      <point x="438" y="433"/>
      <point x="396" y="379" type="curve"/>
    </contour>
    <contour>
      <point x="324" y="85" type="curve" smooth="yes"/>
      <point x="409" y="85"/>
      <point x="460" y="146"/>
      <point x="460" y="254" type="curve" smooth="yes"/>
      <point x="460" y="360"/>
      <point x="394" y="408"/>
      <point x="356" y="408" type="curve" smooth="yes"/>
      <point x="334" y="408"/>
      <point x="317" y="393"/>
      <point x="317" y="365" type="curve" smooth="yes"/>
      <point x="317" y="338"/>
      <point x="334" y="320"/>
      <point x="357" y="320" type="curve" smooth="yes"/>
      <point x="394" y="320"/>
      <point x="446" y="387"/>
      <point x="446" y="486" type="curve" smooth="yes"/>
      <point x="446" y="570"/>
      <point x="405" y="616"/>
      <point x="340" y="616" type="curve" smooth="yes"/>
      <point x="244" y="616"/>
      <point x="170" y="506"/>
      <point x="170" y="421" type="curve" smooth="yes"/>
      <point x="170" y="377"/>
      <point x="190" y="357"/>
      <point x="214" y="357" type="curve" smooth="yes"/>
      <point x="238" y="357"/>
      <point x="254" y="375"/>
      <point x="254" y="405" type="curve" smooth="yes"/>
      <point x="254" y="431"/>
      <point x="240" y="451"/>
      <point x="216" y="451" type="curve" smooth="yes"/>
      <point x="204" y="451"/>
      <point x="190" y="444"/>
      <point x="182" y="416" type="curve"/>
      <point x="196" y="409" type="line"/>
      <point x="200" y="532"/>
      <point x="279" y="593"/>
      <point x="342" y="593" type="curve" smooth="yes"/>
      <point x="396" y="593"/>
      <point x="424" y="552"/>
      <point x="424" y="489" type="curve" smooth="yes"/>
      <point x="424" y="434"/>
      <point x="404" y="389"/>
      <point x="377" y="374" type="curve"/>
      <point x="386" y="365" type="line"/>
      <point x="411" y="364"/>
      <point x="438" y="317"/>
      <point x="438" y="256" type="curve" smooth="yes"/>
      <point x="438" y="153"/>
      <point x="389" y="110"/>
      <point x="325" y="110" type="curve" smooth="yes"/>
      <point x="203" y="110"/>
      <point x="112" y="248"/>
      <point x="56" y="517" type="curve"/>
      <point x="37" y="512" type="line"/>
      <point x="97" y="207"/>
      <point x="205" y="85"/>
    </contour>
  </outline>
</glyph>
<glyph name="kha-beng" format="2">
  <advance width="406"/>
  <unicode hex="0996"/>
  <anchor x="324" y="11" name="bottom"/>
  <anchor x="330" y="20" name="bottom.rakaar"/>
  <anchor x="332" y="6" name="bottom.rvocalic"/>
  <anchor x="328" y="32" name="bottom.virama"/>
  <anchor x="332" y="545" name="top"/>
  <anchor x="337" y="567" name="topright"/>
  <outline>
    <contour>
      <point x="329" y="-3" type="line"/>
      <point x="332" y="-2" type="line"/>
      <point x="332" y="602" type="line"/>
      <point x="421" y="602" type="line"/>
      <point x="409" y="622" type="line"/>
      <point x="332" y="622" type="line"/>
      <point x="330" y="661" type="line"/>
      <point x="313" y="674" type="line"/>
      <point x="310" y="673" type="line"/>
      <point x="310" y="53" type="line"/>
      <point x="320" y="45" type="line"/>
      <point x="289" y="167"/>
      <point x="176" y="281"/>
      <point x="85" y="320" type="curve"/>
      <point x="95" y="310" type="line"/>
      <point x="192" y="330"/>
      <point x="239" y="387"/>
      <point x="239" y="473" type="curve" smooth="yes"/>
      <point x="239" y="553"/>
      <point x="212" y="595"/>
      <point x="188" y="624" type="curve"/>
      <point x="157" y="548"/>
      <point x="105" y="507"/>
      <point x="58" y="507" type="curve" smooth="yes"/>
      <point x="53" y="507"/>
      <point x="46" y="508"/>
      <point x="42" y="510" type="curve"/>
      <point x="59" y="496" type="line"/>
      <point x="68" y="507"/>
      <point x="71" y="515"/>
      <point x="71" y="530" type="curve" smooth="yes"/>
      <point x="71" y="551"/>
      <point x="60" y="568"/>
      <point x="37" y="568" type="curve" smooth="yes"/>
      <point x="15" y="568"/>
      <point x="0" y="552"/>
      <point x="0" y="528" type="curve" smooth="yes"/>
      <point x="0" y="499"/>
      <point x="24" y="482"/>
      <point x="58" y="482" type="curve" smooth="yes"/>
      <point x="111" y="482"/>
      <point x="173" y="526"/>
      <point x="200" y="599" type="curve"/>
      <point x="182" y="591" type="line"/>
      <point x="199" y="573"/>
      <point x="217" y="535"/>
      <point x="217" y="478" type="curve" smooth="yes"/>
      <point x="217" y="381"/>
      <point x="146" y="344"/>
      <point x="65" y="333" type="curve"/>
      <point x="75" y="295" type="line"/>
      <point x="172" y="258"/>
      <point x="274" y="149"/>
      <point x="315" y="10" type="curve"/>
    </contour>
  </outline>
</glyph>
<glyph name="ca-beng" format="2">
  <advance width="354"/>
  <unicode hex="099A"/>
  <anchor x="216" y="47" name="bottom"/>
  <anchor x="258" y="0" name="bottom.rakaar"/>
  <anchor x="205" y="56" name="bottom.rvocalic"/>
  <anchor x="174" y="35" name="bottom.virama"/>
  <anchor x="96" y="602" name="top"/>
  <anchor x="98" y="602" name="topright"/>
  <outline>
    <contour>
      <point x="147" y="50" type="curve" smooth="yes"/>
      <point x="235" y="50"/>
      <point x="305" y="218"/>
      <point x="305" y="355" type="curve" smooth="yes"/>
      <point x="305" y="375"/>
      <point x="290" y="388"/>
      <point x="285" y="391" type="curve"/>
      <point x="212" y="403"/>
      <point x="131" y="466"/>
      <point x="89" y="564" type="curve"/>
      <point x="85" y="540" type="line"/>
      <point x="122" y="438"/>
      <point x="214" y="377"/>
      <point x="290" y="363" type="curve"/>
      <point x="281" y="374" type="line"/>
      <point x="284" y="225"/>
      <point x="214" y="75"/>
      <point x="145" y="75" type="curve" smooth="yes"/>
      <point x="117" y="75"/>
      <point x="96" y="101"/>
      <point x="96" y="140" type="curve" smooth="yes"/>
      <point x="96" y="602" type="line"/>
      <point x="369" y="602" type="line"/>
      <point x="356" y="622" type="line"/>
      <point x="-15" y="622" type="line"/>
      <point x="-2" y="602" type="line"/>
      <point x="74" y="602" type="line"/>
      <point x="74" y="139" type="line" smooth="yes"/>
      <point x="74" y="85"/>
      <point x="104" y="50"/>
    </contour>
  </outline>
</glyph>
<glyph name="tta-beng" format="2">
  <advance width="352"/>
  <unicode hex="099F"/>
  <anchor x="216" y="61" name="bottom"/>
  <anchor x="258" y="14" name="bottom.rakaar"/>
  <anchor x="205" y="70" name="bottom.rvocalic"/>
  <anchor x="174" y="49" name="bottom.virama"/>
  <anchor x="153" y="-32" name="nukta"/>
  <anchor x="163" y="633" name="top"/>
  <anchor x="133" y="654" name="topright"/>
  <outline>
    <contour>
      <point x="272" y="618" type="curve"/>
      <point x="291" y="618" type="line"/>
      <point x="285" y="726"/>
      <point x="261" y="768"/>
      <point x="196" y="768" type="curve" smooth="yes"/>
      <point x="156" y="768"/>
      <point x="131" y="756"/>
      <point x="85" y="756" type="curve" smooth="yes"/>
      <point x="31" y="756"/>
      <point x="8" y="784"/>
      <point x="8" y="861" type="curve" smooth="yes"/>
      <point x="8" y="872"/>
      <point x="9" y="888"/>
      <point x="10" y="898" type="curve"/>
      <point x="-8" y="900" type="line"/>
      <point x="-9" y="887"/>
      <point x="-10" y="870"/>
      <point x="-10" y="856" type="curve" smooth="yes"/>
      <point x="-10" y="768"/>
      <point x="24" y="735"/>
      <point x="85" y="735" type="curve" smooth="yes"/>
      <point x="134" y="735"/>
      <point x="152" y="747"/>
      <point x="197" y="747" type="curve" smooth="yes"/>
      <point x="258" y="747"/>
      <point x="267" y="697"/>
    </contour>
    <contour>
      <point x="146" y="64" type="curve" smooth="yes"/>
      <point x="242" y="64"/>
      <point x="307" y="222"/>
      <point x="307" y="357" type="curve" smooth="yes"/>
      <point x="307" y="399"/>
      <point x="288" y="429"/>
      <point x="258" y="429" type="curve" smooth="yes"/>
      <point x="228" y="429"/>
      <point x="214" y="404"/>
      <point x="214" y="379" type="curve" smooth="yes"/>
      <point x="214" y="350"/>
      <point x="230" y="330"/>
      <point x="255" y="330" type="curve" smooth="yes"/>
      <point x="272" y="330"/>
      <point x="283" y="339"/>
      <point x="290" y="360" type="curve"/>
      <point x="282" y="363" type="line"/>
      <point x="280" y="219"/>
      <point x="221" y="89"/>
      <point x="146" y="89" type="curve" smooth="yes"/>
      <point x="116" y="89"/>
      <point x="96" y="115"/>
      <point x="96" y="155" type="curve" smooth="yes"/>
      <point x="96" y="602" type="line"/>
      <point x="367" y="602" type="line"/>
      <point x="355" y="622" type="line"/>
      <point x="-15" y="622" type="line"/>
      <point x="-2" y="602" type="line"/>
      <point x="74" y="602" type="line"/>
      <point x="74" y="153" type="line" smooth="yes"/>
      <point x="74" y="98"/>
      <point x="105" y="64"/>
    </contour>
  </outline>
</glyph>
<glyph name="ddha-beng" format="2">
  <advance width="352"/>
  <unicode hex="09A2"/>
  <anchor x="223" y="61" name="bottom"/>
  <anchor x="265" y="14" name="bottom.rakaar"/>
  <anchor x="212" y="70" name="bottom.rvocalic"/>
  <anchor x="181" y="49" name="bottom.virama"/>
  <anchor x="153" y="-32" name="nukta"/>
  <anchor x="103" y="602" name="top"/>
  <anchor x="105" y="602" name="topright"/>
  <outline>
    <contour>
      <point x="146" y="64" type="curve" smooth="yes"/>
      <point x="242" y="64"/>
      <point x="307" y="222"/>
      <point x="307" y="357" type="curve" smooth="yes"/>
      <point x="307" y="399"/>
      <point x="288" y="429"/>
      <point x="258" y="429" type="curve" smooth="yes"/>
      <point x="228" y="429"/>
      <point x="214" y="404"/>
      <point x="214" y="379" type="curve" smooth="yes"/>
      <point x="214" y="350"/>
      <point x="230" y="330"/>
      <point x="255" y="330" type="curve" smooth="yes"/>
      <point x="272" y="330"/>
      <point x="283" y="339"/>
      <point x="290" y="360" type="curve"/>
      <point x="282" y="363" type="line"/>
      <point x="280" y="219"/>
      <point x="221" y="89"/>
      <point x="146" y="89" type="curve" smooth="yes"/>
      <point x="116" y="89"/>
      <point x="96" y="115"/>
      <point x="96" y="155" type="curve" smooth="yes"/>
      <point x="96" y="602" type="line"/>
      <point x="367" y="602" type="line"/>
      <point x="355" y="622" type="line"/>
      <point x="-15" y="622" type="line"/>
      <point x="-2" y="602" type="line"/>
      <point x="74" y="602" type="line"/>
      <point x="74" y="153" type="line" smooth="yes"/>
      <point x="74" y="98"/>
      <point x="105" y="64"/>
    </contour>
  </outline>
</glyph>
<glyph name="tha-beng" format="2">
  <advance width="391"/>
  <unicode hex="09A5"/>
  <anchor x="309" y="11" name="bottom"/>
  <anchor x="315" y="20" name="bottom.rakaar"/>
  <anchor x="317" y="6" name="bottom.rvocalic"/>
  <anchor x="313" y="32" name="bottom.virama"/>
  <anchor x="317" y="545" name="top"/>
  <anchor x="322" y="567" name="topright"/>
  <outline>
    <contour>
      <point x="314" y="-3" type="line"/>
      <point x="317" y="-2" type="line"/>
      <point x="317" y="602" type="line"/>
      <point x="406" y="602" type="line"/>
      <point x="394" y="622" type="line"/>
      <point x="317" y="622" type="line"/>
      <point x="315" y="661" type="line"/>
      <point x="298" y="674" type="line"/>
      <point x="295" y="673" type="line"/>
      <point x="295" y="53" type="line"/>
      <point x="305" y="45" type="line"/>
      <point x="274" y="167"/>
      <point x="161" y="281"/>
      <point x="70" y="320" type="curve"/>
      <point x="80" y="310" type="line"/>
      <point x="177" y="330"/>
      <point x="224" y="388"/>
      <point x="224" y="477" type="curve" smooth="yes"/>
      <point x="224" y="581"/>
      <point x="176" y="623"/>
      <point x="119" y="623" type="curve" smooth="yes"/>
      <point x="58" y="623"/>
      <point x="24" y="572"/>
      <point x="24" y="532" type="curve" smooth="yes"/>
      <point x="24" y="500"/>
      <point x="42" y="480"/>
      <point x="66" y="480" type="curve" smooth="yes"/>
      <point x="86" y="480"/>
      <point x="101" y="494"/>
      <point x="101" y="520" type="curve" smooth="yes"/>
      <point x="101" y="541"/>
      <point x="89" y="563"/>
      <point x="60" y="563" type="curve"/>
      <point x="62" y="551" type="line"/>
      <point x="67" y="575"/>
      <point x="85" y="600"/>
      <point x="124" y="600" type="curve" smooth="yes"/>
      <point x="178" y="600"/>
      <point x="202" y="547"/>
      <point x="202" y="482" type="curve" smooth="yes"/>
      <point x="202" y="382"/>
      <point x="131" y="344"/>
      <point x="50" y="333" type="curve"/>
      <point x="60" y="295" type="line"/>
      <point x="157" y="258"/>
      <point x="259" y="149"/>
      <point x="300" y="10" type="curve"/>
    </contour>
  </outline>
</glyph>
<glyph name="da-beng" format="2">
  <advance width="376"/>
  <unicode hex="09A6"/>
  <anchor x="298" y="72" name="bottom"/>
  <anchor x="311" y="70" name="bottom.rakaar"/>
  <anchor x="313" y="11" name="bottom.rvocalic"/>
  <anchor x="305" y="0" name="bottom.virama"/>
  <anchor x="96" y="602" name="top"/>
  <anchor x="99" y="602" name="topright"/>
  <outline>
    <contour>
      <point x="295" y="2" type="curve"/>
      <point x="313" y="9" type="line"/>
      <point x="298" y="72"/>
      <point x="283" y="131"/>
      <point x="283" y="230" type="curve" smooth="yes"/>
      <point x="283" y="327"/>
      <point x="300" y="404"/>
      <point x="320" y="443" type="curve"/>
      <point x="294" y="472" type="line"/>
      <point x="229" y="432"/>
      <point x="128" y="315"/>
      <point x="84" y="237" type="curve"/>
      <point x="96" y="230" type="line"/>
      <point x="96" y="602" type="line"/>
      <point x="391" y="602" type="line"/>
      <point x="380" y="622" type="line"/>
      <point x="-15" y="622" type="line"/>
      <point x="-2" y="602" type="line"/>
      <point x="74" y="602" type="line"/>
      <point x="74" y="226" type="line"/>
      <point x="96" y="213" type="line"/>
      <point x="157" y="311"/>
      <point x="245" y="410"/>
      <point x="302" y="445" type="curve"/>
      <point x="297" y="453" type="line"/>
      <point x="278" y="423"/>
      <point x="261" y="328"/>
      <point x="261" y="238" type="curve" smooth="yes"/>
      <point x="261" y="150"/>
      <point x="275" y="77"/>
    </contour>
  </outline>
</glyph>
<glyph name="dha-beng" format="2">
  <advance width="375"/>
  <unicode hex="09A7"/>
  <anchor x="293" y="11" name="bottom"/>
  <anchor x="299" y="20" name="bottom.rakaar"/>
  <anchor x="301" y="6" name="bottom.rvocalic"/>
  <anchor x="297" y="32" name="bottom.virama"/>
  <anchor x="307" y="602" name="top"/>
  <anchor x="301" y="602" name="topright"/>
  <outline>
    <contour>
      <point x="298" y="-3" type="line"/>
      <point x="301" y="-2" type="line"/>
      <point x="301" y="602" type="line"/>
      <point x="390" y="602" type="line"/>
      <point x="378" y="622" type="line"/>
      <point x="279" y="622" type="line"/>
      <point x="279" y="502" type="line"/>
      <point x="286" y="516" type="line"/>
      <point x="198" y="473"/>
      <point x="102" y="404"/>
      <point x="30" y="338" type="curve"/>
      <point x="47" y="309" type="line"/>
      <point x="141" y="258"/>
      <point x="243" y="149"/>
      <point x="284" y="10" type="curve"/>
    </contour>
    <contour>
      <point x="279" y="53" type="line"/>
      <point x="289" y="45" type="line"/>
      <point x="258" y="167"/>
      <point x="145" y="281"/>
      <point x="57" y="334" type="curve"/>
      <point x="55" y="324" type="line"/>
      <point x="126" y="394"/>
      <point x="224" y="457"/>
      <point x="284" y="487" type="curve"/>
      <point x="279" y="499" type="line"/>
    </contour>
    <contour>
      <point x="155" y="426" type="curve"/>
      <point x="167" y="441" type="line"/>
      <point x="129" y="443"/>
      <point x="80" y="471"/>
      <point x="80" y="530" type="curve" smooth="yes"/>
      <point x="80" y="587"/>
      <point x="115" y="606"/>
      <point x="142" y="606" type="curve" smooth="yes"/>
      <point x="149" y="606"/>
      <point x="156" y="603"/>
      <point x="162" y="600" type="curve"/>
      <point x="157" y="611" type="line"/>
      <point x="143" y="606"/>
      <point x="136" y="592"/>
      <point x="136" y="577" type="curve" smooth="yes"/>
      <point x="136" y="552"/>
      <point x="149" y="539"/>
      <point x="169" y="539" type="curve" smooth="yes"/>
      <point x="186" y="539"/>
      <point x="200" y="553"/>
      <point x="200" y="577" type="curve" smooth="yes"/>
      <point x="200" y="603"/>
      <point x="185" y="630"/>
      <point x="145" y="630" type="curve" smooth="yes"/>
      <point x="101" y="630"/>
      <point x="57" y="597"/>
      <point x="57" y="532" type="curve" smooth="yes"/>
      <point x="57" y="458"/>
      <point x="119" y="426"/>
    </contour>
  </outline>
</glyph>
<glyph name="na-beng" format="2">
  <advance width="356"/>
  <unicode hex="09A8"/>
  <anchor x="267" y="61" name="bottom"/>
  <anchor x="280" y="20" name="bottom.rakaar"/>
  <anchor x="282" y="6" name="bottom.rvocalic"/>
  <anchor x="278" y="32" name="bottom.virama"/>
  <anchor x="288" y="602" name="top"/>
  <anchor x="282" y="602" name="topright"/>
  <outline>
    <contour>
      <point x="279" y="-3" type="line"/>
      <point x="282" y="-2" type="line"/>
      <point x="282" y="602" type="line"/>
      <point x="371" y="602" type="line"/>
      <point x="359" y="622" type="line"/>
      <point x="-15" y="622" type="line"/>
      <point x="-3" y="602" type="line"/>
      <point x="260" y="602" type="line"/>
      <point x="260" y="296" type="line" smooth="yes"/>
      <point x="260" y="247"/>
      <point x="261" y="199"/>
      <point x="263" y="150" type="curve"/>
      <point x="266" y="150" type="line"/>
      <point x="247" y="272"/>
      <point x="192" y="395"/>
      <point x="87" y="395" type="curve" smooth="yes"/>
      <point x="49" y="395"/>
      <point x="21" y="372"/>
      <point x="21" y="331" type="curve" smooth="yes"/>
      <point x="21" y="295"/>
      <point x="42" y="272"/>
      <point x="72" y="272" type="curve" smooth="yes"/>
      <point x="101" y="272"/>
      <point x="119" y="295"/>
      <point x="119" y="326" type="curve" smooth="yes"/>
      <point x="119" y="350"/>
      <point x="111" y="366"/>
      <point x="98" y="374" type="curve"/>
      <point x="84" y="361" type="line"/>
      <point x="88" y="363"/>
      <point x="96" y="366"/>
      <point x="105" y="366" type="curve" smooth="yes"/>
      <point x="209" y="366"/>
      <point x="263" y="157"/>
      <point x="265" y="10" type="curve"/>
    </contour>
  </outline>
</glyph>
<glyph name="pha-beng" format="2">
  <advance width="499"/>
  <unicode hex="09AB"/>
  <anchor x="301" y="11" name="bottom"/>
  <anchor x="307" y="20" name="bottom.rakaar"/>
  <anchor x="309" y="6" name="bottom.rvocalic"/>
  <anchor x="305" y="32" name="bottom.virama"/>
  <anchor x="315" y="602" name="top"/>
  <anchor x="309" y="602" name="topright"/>
  <outline>
    <contour>
      <point x="306" y="-3" type="line"/>
      <point x="309" y="-2" type="line"/>
      <point x="309" y="504" type="line"/>
      <point x="297" y="494" type="line"/>
      <point x="301" y="495"/>
      <point x="308" y="496"/>
      <point x="312" y="496" type="curve" smooth="yes"/>
      <point x="386" y="496"/>
      <point x="442" y="448"/>
      <point x="442" y="349" type="curve" smooth="yes"/>
      <point x="442" y="330"/>
      <point x="439" y="313"/>
      <point x="429" y="302" type="curve"/>
      <point x="435" y="307" type="line"/>
      <point x="432" y="332"/>
      <point x="415" y="346"/>
      <point x="396" y="346" type="curve" smooth="yes"/>
      <point x="371" y="346"/>
      <point x="357" y="328"/>
      <point x="357" y="302" type="curve" smooth="yes"/>
      <point x="357" y="272"/>
      <point x="376" y="254"/>
      <point x="402" y="254" type="curve" smooth="yes"/>
      <point x="429" y="254"/>
      <point x="462" y="279"/>
      <point x="462" y="345" type="curve" smooth="yes"/>
      <point x="462" y="472"/>
      <point x="381" y="521"/>
      <point x="308" y="521" type="curve" smooth="yes"/>
      <point x="300" y="521"/>
      <point x="291" y="520"/>
      <point x="287" y="519" type="curve"/>
      <point x="287" y="53" type="line"/>
      <point x="297" y="45" type="line"/>
      <point x="266" y="167"/>
      <point x="152" y="256"/>
      <point x="64" y="289" type="curve"/>
      <point x="61" y="279" type="line"/>
      <point x="109" y="335"/>
      <point x="163" y="379"/>
      <point x="214" y="418" type="curve"/>
      <point x="170" y="506"/>
      <point x="90" y="575"/>
      <point x="21" y="610" type="curve"/>
      <point x="23" y="602" type="line"/>
      <point x="514" y="602" type="line"/>
      <point x="502" y="622" type="line"/>
      <point x="-15" y="622" type="line"/>
      <point x="8" y="586" type="line"/>
      <point x="88" y="550"/>
      <point x="150" y="489"/>
      <point x="192" y="417" type="curve"/>
      <point x="193" y="433" type="line"/>
      <point x="159" y="409"/>
      <point x="91" y="353"/>
      <point x="37" y="292" type="curve"/>
      <point x="54" y="264" type="line"/>
      <point x="148" y="233"/>
      <point x="251" y="149"/>
      <point x="292" y="10" type="curve"/>
    </contour>
  </outline>
</glyph>
<glyph name="ma-beng" format="2">
  <advance width="382"/>
  <unicode hex="09AE"/>
  <anchor x="293" y="61" name="bottom"/>
  <anchor x="306" y="20" name="bottom.rakaar"/>
  <anchor x="308" y="6" name="bottom.rvocalic"/>
  <anchor x="304" y="32" name="bottom.virama"/>
  <anchor x="314" y="602" name="top"/>
  <anchor x="308" y="602" name="topright"/>
  <outline>
    <contour>
      <point x="305" y="-3" type="line"/>
      <point x="308" y="-2" type="line"/>
      <point x="308" y="602" type="line"/>
      <point x="397" y="602" type="line"/>
      <point x="385" y="622" type="line"/>
      <point x="-15" y="622" type="line"/>
      <point x="-3" y="602" type="line"/>
      <point x="42" y="602" type="line"/>
      <point x="42" y="614" type="line"/>
      <point x="29" y="595"/>
      <point x="22" y="573"/>
      <point x="22" y="550" type="curve" smooth="yes"/>
      <point x="22" y="487"/>
      <point x="57" y="468"/>
      <point x="93" y="449" type="curve" smooth="yes"/>
      <point x="131" y="429"/>
      <point x="171" y="409"/>
      <point x="171" y="333" type="curve" smooth="yes"/>
      <point x="171" y="303"/>
      <point x="163" y="290"/>
      <point x="156" y="281" type="curve"/>
      <point x="174" y="297" type="line"/>
      <point x="165" y="304"/>
      <point x="146" y="310"/>
      <point x="131" y="310" type="curve" smooth="yes"/>
      <point x="99" y="310"/>
      <point x="80" y="289"/>
      <point x="80" y="255" type="curve" smooth="yes"/>
      <point x="80" y="218"/>
      <point x="101" y="197"/>
      <point x="130" y="197" type="curve" smooth="yes"/>
      <point x="154" y="197"/>
      <point x="176" y="214"/>
      <point x="187" y="265" type="curve"/>
      <point x="174" y="264" type="line"/>
      <point x="262" y="229"/>
      <point x="289" y="95"/>
      <point x="291" y="10" type="curve"/>
    </contour>
    <contour>
      <point x="289" y="110" type="curve"/>
      <point x="294" y="110" type="line"/>
      <point x="281" y="196"/>
      <point x="234" y="267"/>
      <point x="182" y="291" type="curve"/>
      <point x="189" y="273" type="line"/>
      <point x="192" y="290"/>
      <point x="194" y="303"/>
      <point x="194" y="320" type="curve" smooth="yes"/>
      <point x="194" y="419"/>
      <point x="148" y="442"/>
      <point x="107" y="465" type="curve" smooth="yes"/>
      <point x="74" y="484"/>
      <point x="44" y="499"/>
      <point x="44" y="548" type="curve" smooth="yes"/>
      <point x="44" y="573"/>
      <point x="52" y="591"/>
      <point x="64" y="611" type="curve"/>
      <point x="52" y="602" type="line"/>
      <point x="286" y="602" type="line"/>
      <point x="286" y="256" type="line" smooth="yes"/>
      <point x="286" y="207"/>
      <point x="287" y="159"/>
    </contour>
  </outline>
</glyph>
<glyph name="ya-beng" format="2">
  <advance width="383"/>
  <unicode hex="09AF"/>
  <anchor x="301" y="11" name="bottom"/>
  <anchor x="307" y="20" name="bottom.rakaar"/>
  <anchor x="309" y="6" name="bottom.rvocalic"/>
  <anchor x="305" y="32" name="bottom.virama"/>
  <anchor x="151" y="95" name="nukta"/>
  <anchor x="315" y="602" name="top"/>
  <anchor x="309" y="602" name="topright"/>
  <outline>
    <contour>
      <point x="306" y="-3" type="line"/>
      <point x="309" y="-2" type="line"/>
      <point x="309" y="602" type="line"/>
      <point x="398" y="602" type="line"/>
      <point x="386" y="622" type="line"/>
      <point x="-15" y="622" type="line"/>
      <point x="8" y="586" type="line"/>
      <point x="88" y="550"/>
      <point x="150" y="489"/>
      <point x="192" y="417" type="curve"/>
      <point x="193" y="433" type="line"/>
      <point x="159" y="409"/>
      <point x="91" y="353"/>
      <point x="37" y="292" type="curve"/>
      <point x="54" y="264" type="line"/>
      <point x="148" y="233"/>
      <point x="251" y="149"/>
      <point x="292" y="10" type="curve"/>
    </contour>
    <contour>
      <point x="287" y="53" type="line"/>
      <point x="297" y="45" type="line"/>
      <point x="266" y="167"/>
      <point x="152" y="256"/>
      <point x="64" y="289" type="curve"/>
      <point x="61" y="279" type="line"/>
      <point x="109" y="335"/>
      <point x="163" y="379"/>
      <point x="214" y="418" type="curve"/>
      <point x="170" y="506"/>
      <point x="90" y="575"/>
      <point x="21" y="610" type="curve"/>
      <point x="24" y="602" type="line"/>
      <point x="287" y="602" type="line"/>
    </contour>
  </outline>
</glyph>
<glyph name="ha-beng" format="2">
  <advance width="334"/>
  <unicode hex="09B9"/>
  <anchor x="194" y="104" name="bottom"/>
  <anchor x="274" y="-100" name="bottom.rakaar"/>
  <anchor x="222" y="106" name="bottom.rvocalic"/>
  <anchor x="171" y="90" name="bottom.virama"/>
  <anchor x="172" y="602" name="top"/>
  <anchor x="171" y="602" name="topright"/>
  <outline>
    <contour>
      <point x="323" y="-38" type="curve"/>
      <point x="336" y="-25" type="line"/>
      <point x="289" y="53"/>
      <point x="202" y="163"/>
      <point x="94" y="213" type="curve"/>
      <point x="95" y="205" type="line"/>
      <point x="115" y="201"/>
      <point x="125" y="200"/>
      <point x="141" y="200" type="curve" smooth="yes"/>
      <point x="224" y="200"/>
      <point x="290" y="258"/>
      <point x="290" y="362" type="curve" smooth="yes"/>
      <point x="290" y="455"/>
      <point x="240" y="510"/>
      <point x="156" y="510" type="curve" smooth="yes"/>
      <point x="93" y="510"/>
      <point x="65" y="487"/>
      <point x="65" y="447" type="curve" smooth="yes"/>
      <point x="65" y="412"/>
      <point x="87" y="396"/>
      <point x="112" y="396" type="curve" smooth="yes"/>
      <point x="148" y="396"/>
      <point x="162" y="426"/>
      <point x="162" y="462" type="curve" smooth="yes"/>
      <point x="162" y="509"/>
      <point x="136" y="568"/>
      <point x="93" y="606" type="curve"/>
      <point x="57" y="606" type="line"/>
      <point x="99" y="578"/>
      <point x="128" y="541"/>
      <point x="139" y="487" type="curve"/>
      <point x="127" y="471" type="line"/>
      <point x="141" y="480"/>
      <point x="155" y="484"/>
      <point x="172" y="484" type="curve" smooth="yes"/>
      <point x="227" y="484"/>
      <point x="268" y="442"/>
      <point x="268" y="367" type="curve" smooth="yes"/>
      <point x="268" y="263"/>
      <point x="205" y="224"/>
      <point x="138" y="224" type="curve" smooth="yes"/>
      <point x="100" y="224"/>
      <point x="70" y="234"/>
      <point x="48" y="249" type="curve"/>
      <point x="61" y="196" type="line"/>
      <point x="171" y="160"/>
      <point x="256" y="65"/>
    </contour>
    <contour>
      <point x="-3" y="602" type="line"/>
      <point x="349" y="602" type="line"/>
      <point x="337" y="622" type="line"/>
      <point x="-15" y="622" type="line"/>
    </contour>
  </outline>
</glyph>
<glyph name="nukta-beng" format="2">
  <unicode hex="09BC"/>
  <anchor x="0" y="-105" name="_nukta"/>
  <outline>
    <contour>
      <point x="0" y="-144" type="curve" smooth="yes"/>
      <point x="19" y="-144"/>
      <point x="36" y="-128"/>
      <point x="36" y="-104" type="curve" smooth="yes"/>
      <point x="36" y="-79"/>
      <point x="19" y="-63"/>
      <point x="0" y="-63" type="curve" smooth="yes"/>
      <point x="-20" y="-63"/>
      <point x="-37" y="-79"/>
      <point x="-37" y="-104" type="curve" smooth="yes"/>
      <point x="-37" y="-128"/>
      <point x="-20" y="-144"/>
    </contour>
  </outline>
</glyph>
<glyph name="uMatra-beng" format="2">
  <unicode hex="09C1"/>
  <anchor x="0" y="0" name="_bottom"/>
  <outline>
    <contour>
      <point x="112" y="-233" type="curve"/>
      <point x="128" y="-225" type="line"/>
      <point x="77" y="-104"/>
      <point x="18" y="-29"/>
      <point x="-78" y="-29" type="curve" smooth="yes"/>
      <point x="-123" y="-29"/>
      <point x="-162" y="-54"/>
      <point x="-162" y="-117" type="curve" smooth="yes"/>
      <point x="-162" y="-182"/>
      <point x="-122" y="-220"/>
      <point x="-76" y="-220" type="curve" smooth="yes"/>
      <point x="-16" y="-220"/>
      <point x="15" y="-156"/>
      <point x="15" y="-82" type="curve" smooth="yes"/>
      <point x="15" y="-50"/>
      <point x="13" y="-21"/>
      <point x="-1" y="42" type="curve"/>
      <point x="-17" y="30" type="line"/>
      <point x="-6" y="-23"/>
      <point x="-5" y="-50"/>
      <point x="-5" y="-71" type="curve" smooth="yes"/>
      <point x="-5" y="-136"/>
      <point x="-27" y="-197"/>
      <point x="-75" y="-197" type="curve" smooth="yes"/>
      <point x="-110" y="-197"/>
      <point x="-139" y="-169"/>
      <point x="-139" y="-118" type="curve" smooth="yes"/>
      <point x="-139" y="-75"/>
      <point x="-113" y="-52"/>
      <point x="-77" y="-52" type="curve" smooth="yes"/>
      <point x="15" y="-52"/>
      <point x="63" y="-128"/>
    </contour>
  </outline>
</glyph>
<glyph name="rVocalicMatra-beng" format="2">
  <unicode hex="09C3"/>
  <anchor x="0" y="0" name="_bottom.rvocalic"/>
  <outline>
    <contour>
      <point x="33" y="-217" type="curve"/>
      <point x="42" y="-203" type="line"/>
      <point x="1" y="-155"/>
      <point x="-45" y="-118"/>
      <point x="-107" y="-80" type="curve"/>
      <point x="-105" y="-90" type="line"/>
      <point x="-73" y="-57"/>
      <point x="-31" y="-27"/>
      <point x="0" y="-9" type="curve"/>
      <point x="0" y="-2" type="line"/>
      <point x="-10" y="15" type="line"/>
      <point x="-47" y="-8"/>
      <point x="-99" y="-47"/>
      <point x="-134" y="-80" type="curve"/>
      <point x="-118" y="-101" type="line"/>
      <point x="-67" y="-124"/>
      <point x="-20" y="-162"/>
    </contour>
  </outline>
</glyph>
<glyph name="eMatra-beng" format="2">
  <advance width="260"/>
  <unicode hex="09C7"/>
  <outline>
    <contour>
      <point x="185" y="1" type="curve" smooth="yes"/>
      <point x="216" y="1"/>
      <point x="238" y="20"/>
      <point x="238" y="54" type="curve" smooth="yes"/>
      <point x="238" y="85"/>
      <point x="217" y="105"/>
      <point x="191" y="105" type="curve" smooth="yes"/>
      <point x="163" y="105"/>
      <point x="144" y="86"/>
      <point x="144" y="57" type="curve" smooth="yes"/>
      <point x="144" y="41"/>
      <point x="147" y="31"/>
      <point x="158" y="21" type="curve"/>
      <point x="166" y="28" type="line"/>
      <point x="113" y="44"/>
      <point x="65" y="142"/>
      <point x="65" y="290" type="curve" smooth="yes"/>
      <point x="65" y="471"/>
      <point x="152" y="602"/>
      <point x="232" y="602" type="curve" smooth="yes"/>
      <point x="275" y="602" type="line"/>
      <point x="262" y="622" type="line"/>
      <point x="-15" y="622" type="line"/>
      <point x="-3" y="602" type="line"/>
      <point x="177" y="602" type="line"/>
      <point x="175" y="608" type="line"/>
      <point x="115" y="582"/>
      <point x="42" y="465"/>
      <point x="42" y="294" type="curve" smooth="yes"/>
      <point x="42" y="105"/>
      <point x="111" y="1"/>
    </contour>
  </outline>
</glyph>
<glyph name="aiMatra-beng" format="2">
  <advance width="260"/>
  <unicode hex="09C8"/>
  <outline>
    <contour>
      <point x="231" y="618" type="curve"/>
      <point x="250" y="618" type="line"/>
      <point x="248" y="724"/>
      <point x="225" y="768"/>
      <point x="151" y="768" type="curve" smooth="yes"/>
      <point x="126" y="768"/>
      <point x="97" y="762"/>
      <point x="69" y="762" type="curve" smooth="yes"/>
      <point x="33" y="762"/>
      <point x="-5" y="780"/>
      <point x="-5" y="856" type="curve" smooth="yes"/>
      <point x="-5" y="869"/>
      <point x="-4" y="885"/>
      <point x="-2" y="898" type="curve"/>
      <point x="-19" y="900" type="line"/>
      <point x="-21" y="888"/>
      <point x="-23" y="871"/>
      <point x="-23" y="856" type="curve" smooth="yes"/>
      <point x="-23" y="763"/>
      <point x="23" y="740"/>
      <point x="69" y="740" type="curve" smooth="yes"/>
      <point x="98" y="740"/>
      <point x="124" y="746"/>
      <point x="158" y="746" type="curve" smooth="yes"/>
      <point x="222" y="746"/>
      <point x="228" y="693"/>
    </contour>
    <component base="eMatra-beng"/>
  </outline>
</glyph>
<glyph name="oMatra-beng" format="2">
  <advance width="732"/>
  <unicode hex="09CB"/>
  <outline>
    <contour>
      <point x="419" y="249" type="curve" smooth="yes"/>
      <point x="452" y="249"/>
      <point x="480" y="272"/>
      <point x="480" y="310" type="curve" smooth="yes"/>
      <point x="480" y="346"/>
      <point x="453" y="372"/>
      <point x="419" y="372" type="curve" smooth="yes"/>
      <point x="384" y="372"/>
      <point x="355" y="346"/>
      <point x="355" y="310" type="curve" smooth="yes"/>
      <point x="355" y="274"/>
      <point x="385" y="249"/>
    </contour>
    <contour>
      <point x="185" y="1" type="curve" smooth="yes"/>
      <point x="216" y="1"/>
      <point x="238" y="20"/>
      <point x="238" y="54" type="curve" smooth="yes"/>
      <point x="238" y="85"/>
      <point x="217" y="105"/>
      <point x="191" y="105" type="curve" smooth="yes"/>
      <point x="163" y="105"/>
      <point x="144" y="86"/>
      <point x="144" y="57" type="curve" smooth="yes"/>
      <point x="144" y="41"/>
      <point x="147" y="31"/>
      <point x="158" y="21" type="curve"/>
      <point x="166" y="28" type="line"/>
      <point x="113" y="44"/>
      <point x="65" y="142"/>
      <point x="65" y="290" type="curve" smooth="yes"/>
      <point x="65" y="471"/>
      <point x="152" y="602"/>
      <point x="232" y="602" type="curve" smooth="yes"/>
      <point x="275" y="602" type="line"/>
      <point x="262" y="622" type="line"/>
      <point x="-15" y="622" type="line"/>
      <point x="-3" y="602" type="line"/>
      <point x="177" y="602" type="line"/>
      <point x="175" y="608" type="line"/>
      <point x="115" y="582"/>
      <point x="42" y="465"/>
      <point x="42" y="294" type="curve" smooth="yes"/>
      <point x="42" y="105"/>
      <point x="111" y="1"/>
    </contour>
    <contour>
      <point x="655" y="-10" type="line"/>
      <point x="658" y="-9" type="line"/>
      <point x="658" y="602" type="line"/>
      <point x="747" y="602" type="line"/>
      <point x="735" y="622" type="line"/>
      <point x="658" y="622" type="line"/>
      <point x="656" y="661" type="line"/>
      <point x="639" y="674" type="line"/>
      <point x="636" y="673" type="line"/>
      <point x="636" y="618" type="line" smooth="yes"/>
      <point x="636" y="604"/>
      <point x="637" y="583"/>
      <point x="638" y="556" type="curve"/>
      <point x="643" y="556" type="line"/>
      <point x="633" y="613"/>
      <point x="607" y="622"/>
      <point x="586" y="622" type="curve" smooth="yes"/>
      <point x="547" y="622" type="line"/>
      <point x="559" y="602" type="line"/>
      <point x="582" y="602" type="line" smooth="yes"/>
      <point x="613" y="602"/>
      <point x="631" y="578"/>
      <point x="636" y="514" type="curve"/>
      <point x="636" y="3" type="line"/>
    </contour>
  </outline>
</glyph>
<glyph name="auMatra-beng" format="2">
  <advance width="732"/>
  <unicode hex="09CC"/>
  <anchor x="740" y="612" name="top"/>
  <anchor x="529" y="650" name="topright"/>
  <outline>
    <contour>
      <point x="419" y="249" type="curve" smooth="yes"/>
      <point x="452" y="249"/>
      <point x="480" y="272"/>
      <point x="480" y="310" type="curve" smooth="yes"/>
      <point x="480" y="346"/>
      <point x="453" y="372"/>
      <point x="419" y="372" type="curve" smooth="yes"/>
      <point x="384" y="372"/>
      <point x="355" y="346"/>
      <point x="355" y="310" type="curve" smooth="yes"/>
      <point x="355" y="274"/>
      <point x="385" y="249"/>
    </contour>
    <contour>
      <point x="655" y="-10" type="line"/>
      <point x="658" y="-9" type="line"/>
      <point x="658" y="602" type="line"/>
      <point x="747" y="602" type="line"/>
      <point x="735" y="622" type="line"/>
      <point x="547" y="622" type="line"/>
      <point x="559" y="602" type="line"/>
      <point x="636" y="602" type="line"/>
      <point x="636" y="3" type="line"/>
    </contour>
    <contour>
      <point x="635" y="616" type="curve"/>
      <point x="659" y="616" type="line"/>
      <point x="657" y="736"/>
      <point x="610" y="777"/>
      <point x="537" y="777" type="curve" smooth="yes"/>
      <point x="486" y="777"/>
      <point x="438" y="756"/>
      <point x="372" y="756" type="curve" smooth="yes"/>
      <point x="319" y="756"/>
      <point x="286" y="773"/>
      <point x="286" y="853" type="curve" smooth="yes"/>
      <point x="286" y="867"/>
      <point x="288" y="883"/>
      <point x="291" y="898" type="curve"/>
      <point x="273" y="900" type="line"/>
      <point x="270" y="886"/>
      <point x="268" y="865"/>
      <point x="268" y="847" type="curve" smooth="yes"/>
      <point x="268" y="761"/>
      <point x="307" y="733"/>
      <point x="373" y="733" type="curve" smooth="yes"/>
      <point x="439" y="733"/>
      <point x="485" y="754"/>
      <point x="544" y="754" type="curve" smooth="yes"/>
      <point x="606" y="754"/>
      <point x="636" y="705"/>
      <point x="636" y="637" type="curve" smooth="yes"/>
      <point x="636" y="632"/>
      <point x="636" y="623"/>
    </contour>
    <contour>
      <point x="185" y="1" type="curve" smooth="yes"/>
      <point x="216" y="1"/>
      <point x="238" y="20"/>
      <point x="238" y="54" type="curve" smooth="yes"/>
      <point x="238" y="85"/>
      <point x="217" y="105"/>
      <point x="191" y="105" type="curve" smooth="yes"/>
      <point x="163" y="105"/>
      <point x="144" y="86"/>
      <point x="144" y="57" type="curve" smooth="yes"/>
      <point x="144" y="41"/>
      <point x="147" y="31"/>
      <point x="158" y="21" type="curve"/>
      <point x="166" y="28" type="line"/>
      <point x="113" y="44"/>
      <point x="65" y="142"/>
      <point x="65" y="290" type="curve" smooth="yes"/>
      <point x="65" y="471"/>
      <point x="152" y="602"/>
      <point x="232" y="602" type="curve" smooth="yes"/>
      <point x="275" y="602" type="line"/>
      <point x="262" y="622" type="line"/>
      <point x="-15" y="622" type="line"/>
      <point x="-3" y="602" type="line"/>
      <point x="177" y="602" type="line"/>
      <point x="175" y="608" type="line"/>
      <point x="115" y="582"/>
      <point x="42" y="465"/>
      <point x="42" y="294" type="curve" smooth="yes"/>
      <point x="42" y="105"/>
      <point x="111" y="1"/>
    </contour>
  </outline>
</glyph>
<glyph name="rha-beng" format="2">
  <advance width="352"/>
  <unicode hex="09DD"/>
  <anchor x="199" y="-63" name="bottom"/>
  <anchor x="265" y="14" name="bottom.rakaar"/>
  <anchor x="213" y="-98" name="bottom.rvocalic"/>
  <anchor x="153" y="-54" name="bottom.virama"/>
  <anchor x="153" y="-32" name="nukta"/>
  <anchor x="121" y="602" name="top"/>
  <anchor x="121" y="602" name="topright"/>
  <outline>
    <contour>
      <point x="146" y="64" type="curve" smooth="yes"/>
      <point x="242" y="64"/>
      <point x="307" y="222"/>
      <point x="307" y="357" type="curve" smooth="yes"/>
      <point x="307" y="399"/>
      <point x="288" y="429"/>
      <point x="258" y="429" type="curve" smooth="yes"/>
      <point x="228" y="429"/>
      <point x="214" y="404"/>
      <point x="214" y="379" type="curve" smooth="yes"/>
      <point x="214" y="350"/>
      <point x="230" y="330"/>
      <point x="255" y="330" type="curve" smooth="yes"/>
      <point x="272" y="330"/>
      <point x="283" y="339"/>
      <point x="290" y="360" type="curve"/>
      <point x="282" y="363" type="line"/>
      <point x="280" y="219"/>
      <point x="221" y="89"/>
      <point x="146" y="89" type="curve" smooth="yes"/>
      <point x="116" y="89"/>
      <point x="96" y="115"/>
      <point x="96" y="155" type="curve" smooth="yes"/>
      <point x="96" y="602" type="line"/>
      <point x="367" y="602" type="line"/>
      <point x="355" y="622" type="line"/>
      <point x="-15" y="622" type="line"/>
      <point x="-2" y="602" type="line"/>
      <point x="74" y="602" type="line"/>
      <point x="74" y="153" type="line" smooth="yes"/>
      <point x="74" y="98"/>
      <point x="105" y="64"/>
    </contour>
    <contour>
      <point x="153" y="-71" type="curve" smooth="yes"/>
      <point x="172" y="-71"/>
      <point x="189" y="-55"/>
      <point x="189" y="-31" type="curve" smooth="yes"/>
      <point x="189" y="-6"/>
      <point x="172" y="10"/>
      <point x="153" y="10" type="curve" smooth="yes"/>
      <point x="133" y="10"/>
      <point x="116" y="-6"/>
      <point x="116" y="-31" type="curve" smooth="yes"/>
      <point x="116" y="-55"/>
      <point x="133" y="-71"/>
    </contour>
  </outline>
</glyph>
<glyph name="rrVocalic-beng" format="2">
  <advance width="478"/>
  <unicode hex="09E0"/>
  <anchor x="429" y="-13" name="bottom"/>
  <anchor x="432" y="50" name="bottom.rakaar"/>
  <anchor x="432" y="6" name="bottom.rvocalic"/>
  <anchor x="422" y="0" name="bottom.virama"/>
  <anchor x="432" y="602" name="top"/>
  <anchor x="435" y="602" name="topright"/>
  <outline>
    <contour>
      <point x="300" y="-3" type="line"/>
      <point x="303" y="-2" type="line"/>
      <point x="303" y="638" type="line"/>
      <point x="284" y="654" type="line"/>
      <point x="281" y="653" type="line"/>
      <point x="281" y="502" type="line"/>
      <point x="288" y="516" type="line"/>
      <point x="200" y="473"/>
      <point x="104" y="404"/>
      <point x="32" y="338" type="curve"/>
      <point x="49" y="309" type="line"/>
      <point x="143" y="258"/>
      <point x="245" y="149"/>
      <point x="286" y="10" type="curve"/>
    </contour>
    <contour>
      <point x="281" y="53" type="line"/>
      <point x="291" y="45" type="line"/>
      <point x="260" y="167"/>
      <point x="147" y="281"/>
      <point x="59" y="334" type="curve"/>
      <point x="57" y="324" type="line"/>
      <point x="128" y="394"/>
      <point x="226" y="457"/>
      <point x="286" y="487" type="curve"/>
      <point x="281" y="499" type="line"/>
    </contour>
    <contour>
      <point x="58" y="482" type="curve" smooth="yes"/>
      <point x="111" y="482"/>
      <point x="173" y="526"/>
      <point x="200" y="599" type="curve"/>
      <point x="184" y="594" type="line"/>
      <point x="204" y="576"/>
      <point x="224" y="538"/>
      <point x="251" y="482" type="curve"/>
      <point x="264" y="491" type="line"/>
      <point x="236" y="561"/>
      <point x="211" y="602"/>
      <point x="188" y="624" type="curve"/>
      <point x="157" y="548"/>
      <point x="105" y="507"/>
      <point x="58" y="507" type="curve" smooth="yes"/>
      <point x="53" y="507"/>
      <point x="46" y="508"/>
      <point x="42" y="510" type="curve"/>
      <point x="59" y="496" type="line"/>
      <point x="68" y="507"/>
      <point x="71" y="515"/>
      <point x="71" y="530" type="curve" smooth="yes"/>
      <point x="71" y="551"/>
      <point x="60" y="568"/>
      <point x="37" y="568" type="curve" smooth="yes"/>
      <point x="15" y="568"/>
      <point x="0" y="552"/>
      <point x="0" y="528" type="curve" smooth="yes"/>
      <point x="0" y="499"/>
      <point x="24" y="482"/>
    </contour>
    <contour>
      <point x="401" y="97" type="line"/>
      <point x="404" y="98" type="line"/>
      <point x="404" y="602" type="line"/>
      <point x="493" y="602" type="line"/>
      <point x="481" y="622" type="line"/>
      <point x="404" y="622" type="line"/>
      <point x="402" y="661" type="line"/>
      <point x="385" y="674" type="line"/>
      <point x="382" y="673" type="line"/>
      <point x="382" y="153" type="line"/>
      <point x="392" y="145" type="line"/>
      <point x="376" y="206"/>
      <point x="340" y="266"/>
      <point x="297" y="316" type="curve"/>
      <point x="295" y="284" type="line"/>
      <point x="335" y="235"/>
      <point x="368" y="176"/>
      <point x="387" y="110" type="curve"/>
    </contour>
    <contour>
      <point x="271" y="-68" type="curve"/>
      <point x="280" y="-54" type="line"/>
      <point x="239" y="-6"/>
      <point x="193" y="31"/>
      <point x="131" y="69" type="curve"/>
      <point x="133" y="59" type="line"/>
      <point x="165" y="92"/>
      <point x="207" y="122"/>
      <point x="238" y="140" type="curve"/>
      <point x="238" y="147" type="line"/>
      <point x="228" y="164" type="line"/>
      <point x="191" y="141"/>
      <point x="139" y="102"/>
      <point x="104" y="69" type="curve"/>
      <point x="120" y="48" type="line"/>
      <point x="171" y="25"/>
      <point x="218" y="-13"/>
    </contour>
  </outline>
</glyph>
<glyph name="llVocalic-beng" format="2">
  <advance width="481"/>
  <unicode hex="09E1"/>
  <anchor x="246" y="602" name="top"/>
  <outline>
    <contour>
      <point x="208" y="56" type="curve"/>
      <point x="284" y="79"/>
      <point x="327" y="155"/>
      <point x="327" y="264" type="curve" smooth="yes"/>
      <point x="327" y="395"/>
      <point x="258" y="423"/>
      <point x="193" y="447" type="curve" smooth="yes"/>
      <point x="135" y="468"/>
      <point x="80" y="489"/>
      <point x="80" y="585" type="curve" smooth="yes"/>
      <point x="80" y="628"/>
      <point x="91" y="656"/>
      <point x="101" y="681" type="curve"/>
      <point x="83" y="689" type="line"/>
      <point x="69" y="655"/>
      <point x="60" y="620"/>
      <point x="60" y="586" type="curve" smooth="yes"/>
      <point x="60" y="475"/>
      <point x="120" y="450"/>
      <point x="180" y="429" type="curve" smooth="yes"/>
      <point x="244" y="406"/>
      <point x="307" y="384"/>
      <point x="307" y="259" type="curve" smooth="yes"/>
      <point x="307" y="159"/>
      <point x="263" y="95"/>
      <point x="222" y="82" type="curve"/>
      <point x="232" y="77" type="line"/>
      <point x="238" y="201"/>
      <point x="215" y="280"/>
      <point x="140" y="280" type="curve" smooth="yes"/>
      <point x="83" y="280"/>
      <point x="55" y="227"/>
      <point x="55" y="173" type="curve" smooth="yes"/>
      <point x="55" y="109"/>
      <point x="86" y="73"/>
      <point x="119" y="73" type="curve" smooth="yes"/>
      <point x="145" y="73"/>
      <point x="156" y="92"/>
      <point x="156" y="115" type="curve" smooth="yes"/>
      <point x="156" y="139"/>
      <point x="141" y="155"/>
      <point x="122" y="155" type="curve" smooth="yes"/>
      <point x="103" y="155"/>
      <point x="90" y="139"/>
      <point x="91" y="113" type="curve"/>
      <point x="100" y="112" type="line"/>
      <point x="89" y="118"/>
      <point x="77" y="135"/>
      <point x="77" y="174" type="curve" smooth="yes"/>
      <point x="77" y="238"/>
      <point x="112" y="258"/>
      <point x="140" y="258" type="curve" smooth="yes"/>
      <point x="199" y="258"/>
      <point x="212" y="192"/>
      <point x="212" y="111" type="curve" smooth="yes"/>
      <point x="212" y="89"/>
      <point x="211" y="73"/>
    </contour>
    <contour>
      <point x="337" y="-135" type="line"/>
      <point x="394" y="-117"/>
      <point x="453" y="-51"/>
      <point x="453" y="76" type="curve" smooth="yes"/>
      <point x="453" y="205"/>
      <point x="386" y="234"/>
      <point x="321" y="258" type="curve"/>
      <point x="315" y="238" type="line"/>
      <point x="376" y="217"/>
      <point x="433" y="190"/>
      <point x="433" y="71" type="curve" smooth="yes"/>
      <point x="433" y="-29"/>
      <point x="389" y="-93"/>
      <point x="348" y="-106" type="curve"/>
      <point x="358" y="-111" type="line"/>
      <point x="364" y="13"/>
      <point x="341" y="92"/>
      <point x="266" y="92" type="curve" smooth="yes"/>
      <point x="209" y="92"/>
      <point x="181" y="39"/>
      <point x="181" y="-15" type="curve" smooth="yes"/>
      <point x="181" y="-79"/>
      <point x="212" y="-115"/>
      <point x="245" y="-115" type="curve" smooth="yes"/>
      <point x="271" y="-115"/>
      <point x="282" y="-96"/>
      <point x="282" y="-73" type="curve" smooth="yes"/>
      <point x="282" y="-49"/>
      <point x="267" y="-33"/>
      <point x="248" y="-33" type="curve" smooth="yes"/>
      <point x="229" y="-33"/>
      <point x="216" y="-49"/>
      <point x="217" y="-75" type="curve"/>
      <point x="226" y="-76" type="line"/>
      <point x="215" y="-70"/>
      <point x="203" y="-53"/>
      <point x="203" y="-14" type="curve" smooth="yes"/>
      <point x="203" y="50"/>
      <point x="238" y="70"/>
      <point x="266" y="70" type="curve" smooth="yes"/>
      <point x="325" y="70"/>
      <point x="338" y="4"/>
      <point x="338" y="-77" type="curve" smooth="yes"/>
      <point x="338" y="-99"/>
      <point x="337" y="-115"/>
      <point x="334" y="-132" type="curve"/>
    </contour>
  </outline>
</glyph>
<glyph name="lVocalicMatra-beng" format="2">
  <unicode hex="09E2"/>
  <anchor x="0" y="30" name="_bottom"/>
  <outline>
    <contour>
      <point x="-25" y="-238" type="line"/>
      <point x="16" y="-238"/>
      <point x="48" y="-199"/>
      <point x="48" y="-137" type="curve" smooth="yes"/>
      <point x="48" y="-84"/>
      <point x="25" y="-57"/>
      <point x="-13" y="-41" type="curve" smooth="yes"/>
      <point x="-54" y="-23"/>
      <point x="-78" y="-15"/>
      <point x="-78" y="21" type="curve" smooth="yes"/>
      <point x="-78" y="37"/>
      <point x="-71" y="55"/>
      <point x="-64" y="67" type="curve"/>
      <point x="-79" y="74" type="line"/>
      <point x="-88" y="58"/>
      <point x="-95" y="39"/>
      <point x="-95" y="17" type="curve" smooth="yes"/>
      <point x="-95" y="-29"/>
      <point x="-66" y="-43"/>
      <point x="-29" y="-58" type="curve" smooth="yes"/>
      <point x="14" y="-76"/>
      <point x="31" y="-96"/>
      <point x="31" y="-142" type="curve" smooth="yes"/>
      <point x="31" y="-176"/>
      <point x="14" y="-211"/>
      <point x="-5" y="-211" type="curve" smooth="yes"/>
      <point x="-7" y="-211"/>
      <point x="-10" y="-211"/>
      <point x="-12" y="-210" type="curve"/>
      <point x="-4" y="-224" type="line"/>
      <point x="-3" y="-218"/>
      <point x="-3" y="-209"/>
      <point x="-3" y="-203" type="curve" smooth="yes"/>
      <point x="-3" y="-115"/>
      <point x="-38" y="-93"/>
      <point x="-66" y="-93" type="curve" smooth="yes"/>
      <point x="-103" y="-93"/>
      <point x="-120" y="-126"/>
      <point x="-120" y="-156" type="curve" smooth="yes"/>
      <point x="-120" y="-202"/>
      <point x="-94" y="-226"/>
      <point x="-73" y="-226" type="curve" smooth="yes"/>
      <point x="-60" y="-226"/>
      <point x="-50" y="-218"/>
      <point x="-50" y="-202" type="curve" smooth="yes"/>
      <point x="-50" y="-187"/>
      <point x="-59" y="-179"/>
      <point x="-70" y="-179" type="curve" smooth="yes"/>
      <point x="-85" y="-179"/>
      <point x="-91" y="-193"/>
      <point x="-91" y="-206" type="curve"/>
      <point x="-85" y="-206" type="line"/>
      <point x="-90" y="-200"/>
      <point x="-101" y="-191"/>
      <point x="-101" y="-163" type="curve" smooth="yes"/>
      <point x="-101" y="-129"/>
      <point x="-85" y="-114"/>
      <point x="-66" y="-114" type="curve" smooth="yes"/>
      <point x="-41" y="-114"/>
      <point x="-22" y="-135"/>
      <point x="-22" y="-201" type="curve" smooth="yes"/>
      <point x="-22" y="-218"/>
      <point x="-23" y="-227"/>
      <point x="-26" y="-236" type="curve"/>
    </contour>
  </outline>
</glyph>
<glyph name="llVocalicMatra-beng" format="2">
  <unicode hex="09E3"/>
  <anchor x="0" y="30" name="_bottom"/>
  <outline>
    <contour>
      <point x="-23" y="-236" type="curve"/>
      <point x="20" y="-238"/>
      <point x="48" y="-195"/>
      <point x="48" y="-137" type="curve" smooth="yes"/>
      <point x="48" y="-84"/>
      <point x="25" y="-57"/>
      <point x="-13" y="-41" type="curve" smooth="yes"/>
      <point x="-54" y="-23"/>
      <point x="-78" y="-15"/>
      <point x="-78" y="21" type="curve" smooth="yes"/>
      <point x="-78" y="37"/>
      <point x="-71" y="55"/>
      <point x="-64" y="67" type="curve"/>
      <point x="-79" y="74" type="line"/>
      <point x="-88" y="58"/>
      <point x="-95" y="39"/>
      <point x="-95" y="17" type="curve" smooth="yes"/>
      <point x="-95" y="-29"/>
      <point x="-66" y="-43"/>
      <point x="-29" y="-58" type="curve" smooth="yes"/>
      <point x="14" y="-76"/>
      <point x="31" y="-96"/>
      <point x="31" y="-142" type="curve" smooth="yes"/>
      <point x="31" y="-176"/>
      <point x="14" y="-211"/>
      <point x="-5" y="-211" type="curve" smooth="yes"/>
      <point x="-7" y="-211"/>
      <point x="-10" y="-211"/>
      <point x="-12" y="-210" type="curve"/>
      <point x="-4" y="-224" type="line"/>
      <point x="-4" y="-216"/>
      <point x="-3" y="-209"/>
      <point x="-3" y="-203" type="curve" smooth="yes"/>
      <point x="-3" y="-115"/>
      <point x="-38" y="-93"/>
      <point x="-66" y="-93" type="curve" smooth="yes"/>
      <point x="-103" y="-93"/>
      <point x="-120" y="-126"/>
      <point x="-120" y="-156" type="curve" smooth="yes"/>
      <point x="-120" y="-202"/>
      <point x="-94" y="-226"/>
      <point x="-73" y="-226" type="curve" smooth="yes"/>
      <point x="-60" y="-226"/>
      <point x="-50" y="-218"/>
      <point x="-50" y="-202" type="curve" smooth="yes"/>
      <point x="-50" y="-187"/>
      <point x="-59" y="-179"/>
      <point x="-70" y="-179" type="curve" smooth="yes"/>
      <point x="-85" y="-179"/>
      <point x="-91" y="-193"/>
      <point x="-91" y="-206" type="curve"/>
      <point x="-85" y="-206" type="line"/>
      <point x="-90" y="-200"/>
      <point x="-101" y="-191"/>
      <point x="-101" y="-163" type="curve" smooth="yes"/>
      <point x="-101" y="-129"/>
      <point x="-85" y="-114"/>
      <point x="-66" y="-114" type="curve" smooth="yes"/>
      <point x="-41" y="-114"/>
      <point x="-22" y="-137"/>
      <point x="-22" y="-208" type="curve" smooth="yes"/>
      <point x="-22" y="-221"/>
      <point x="-23" y="-228"/>
    </contour>
    <contour>
      <point x="39" y="-365" type="line"/>
      <point x="79" y="-365"/>
      <point x="112" y="-326"/>
      <point x="112" y="-264" type="curve" smooth="yes"/>
      <point x="112" y="-211"/>
      <point x="84" y="-179"/>
      <point x="38" y="-163" type="curve"/>
      <point x="32" y="-184" type="line"/>
      <point x="72" y="-193"/>
      <point x="95" y="-225"/>
      <point x="95" y="-269" type="curve" smooth="yes"/>
      <point x="95" y="-303"/>
      <point x="78" y="-338"/>
      <point x="59" y="-338" type="curve" smooth="yes"/>
      <point x="57" y="-338"/>
      <point x="54" y="-338"/>
      <point x="52" y="-337" type="curve"/>
      <point x="60" y="-351" type="line"/>
      <point x="61" y="-343"/>
      <point x="61" y="-336"/>
      <point x="61" y="-330" type="curve" smooth="yes"/>
      <point x="61" y="-242"/>
      <point x="26" y="-220"/>
      <point x="-2" y="-220" type="curve" smooth="yes"/>
      <point x="-39" y="-220"/>
      <point x="-56" y="-253"/>
      <point x="-56" y="-283" type="curve" smooth="yes"/>
      <point x="-56" y="-329"/>
      <point x="-30" y="-353"/>
      <point x="-9" y="-353" type="curve" smooth="yes"/>
      <point x="4" y="-353"/>
      <point x="14" y="-345"/>
      <point x="14" y="-329" type="curve" smooth="yes"/>
      <point x="14" y="-314"/>
      <point x="5" y="-306"/>
      <point x="-6" y="-306" type="curve" smooth="yes"/>
      <point x="-21" y="-306"/>
      <point x="-27" y="-320"/>
      <point x="-27" y="-333" type="curve"/>
      <point x="-21" y="-333" type="line"/>
      <point x="-26" y="-327"/>
      <point x="-37" y="-318"/>
      <point x="-37" y="-290" type="curve" smooth="yes"/>
      <point x="-37" y="-256"/>
      <point x="-21" y="-241"/>
      <point x="-2" y="-241" type="curve" smooth="yes"/>
      <point x="23" y="-241"/>
      <point x="42" y="-259"/>
      <point x="42" y="-330" type="curve" smooth="yes"/>
      <point x="42" y="-343"/>
      <point x="40" y="-355"/>
      <point x="38" y="-363" type="curve"/>
    </contour>
  </outline>
</glyph>
<glyph name="zero-beng" format="2">
  <advance width="420"/>
  <unicode hex="09E6"/>
  <outline>
    <contour>
      <point x="203" y="72" type="curve" smooth="yes"/>
      <point x="294" y="72"/>
      <point x="360" y="183"/>
      <point x="360" y="336" type="curve" smooth="yes"/>
      <point x="360" y="472"/>
      <point x="307" y="560"/>
      <point x="222" y="560" type="curve" smooth="yes"/>
      <point x="129" y="560"/>
      <point x="60" y="451"/>
      <point x="60" y="299" type="curve" smooth="yes"/>
      <point x="60" y="160"/>
      <point x="115" y="72"/>
    </contour>
    <contour>
      <point x="199" y="98" type="curve" smooth="yes"/>
      <point x="130" y="98"/>
      <point x="85" y="179"/>
      <point x="85" y="295" type="curve" smooth="yes"/>
      <point x="85" y="428"/>
      <point x="142" y="535"/>
      <point x="226" y="535" type="curve" smooth="yes"/>
      <point x="292" y="535"/>
      <point x="335" y="457"/>
      <point x="335" y="338" type="curve" smooth="yes"/>
      <point x="335" y="203"/>
      <point x="282" y="98"/>
    </contour>
  </outline>
</glyph>
<glyph name="one-beng" format="2">
  <advance width="373"/>
  <unicode hex="09E7"/>
  <outline>
    <contour>
      <point x="206" y="37" type="curve" smooth="yes"/>
      <point x="269" y="37"/>
      <point x="319" y="89"/>
      <point x="319" y="195" type="curve" smooth="yes"/>
      <point x="319" y="300"/>
      <point x="273" y="347"/>
      <point x="196" y="400" type="curve" smooth="yes"/>
      <point x="111" y="459"/>
      <point x="104" y="507"/>
      <point x="104" y="555" type="curve"/>
      <point x="96" y="557" type="line"/>
      <point x="100" y="549"/>
      <point x="108" y="546"/>
      <point x="119" y="546" type="curve" smooth="yes"/>
      <point x="141" y="546"/>
      <point x="153" y="562"/>
      <point x="153" y="587" type="curve" smooth="yes"/>
      <point x="153" y="607"/>
      <point x="142" y="625"/>
      <point x="119" y="625" type="curve" smooth="yes"/>
      <point x="93" y="625"/>
      <point x="75" y="601"/>
      <point x="75" y="562" type="curve" smooth="yes"/>
      <point x="75" y="491"/>
      <point x="103" y="434"/>
      <point x="182" y="382" type="curve" smooth="yes"/>
      <point x="258" y="332"/>
      <point x="298" y="295"/>
      <point x="298" y="193" type="curve" smooth="yes"/>
      <point x="298" y="117"/>
      <point x="264" y="61"/>
      <point x="206" y="61" type="curve" smooth="yes"/>
      <point x="179" y="61"/>
      <point x="160" y="76"/>
      <point x="154" y="101" type="curve"/>
      <point x="142" y="95" type="line"/>
      <point x="149" y="88"/>
      <point x="155" y="87"/>
      <point x="161" y="87" type="curve" smooth="yes"/>
      <point x="179" y="87"/>
      <point x="193" y="102"/>
      <point x="193" y="130" type="curve" smooth="yes"/>
      <point x="193" y="156"/>
      <point x="178" y="173"/>
      <point x="157" y="173" type="curve" smooth="yes"/>
      <point x="133" y="173"/>
      <point x="118" y="153"/>
      <point x="118" y="122" type="curve" smooth="yes"/>
      <point x="118" y="75"/>
      <point x="152" y="37"/>
    </contour>
  </outline>
</glyph>
<glyph name="two-beng" format="2">
  <advance width="365"/>
  <unicode hex="09E8"/>
  <outline>
    <contour>
      <point x="340" y="-22" type="curve"/>
      <point x="351" y="-9" type="line"/>
      <point x="305" y="57"/>
      <point x="220" y="184"/>
      <point x="104" y="242" type="curve"/>
      <point x="113" y="231" type="line"/>
      <point x="143" y="219"/>
      <point x="168" y="217"/>
      <point x="186" y="217" type="curve" smooth="yes"/>
      <point x="258" y="217"/>
      <point x="298" y="262"/>
      <point x="298" y="329" type="curve" smooth="yes"/>
      <point x="298" y="389"/>
      <point x="275" y="431"/>
      <point x="206" y="458" type="curve" smooth="yes"/>
      <point x="119" y="492"/>
      <point x="114" y="529"/>
      <point x="114" y="555" type="curve"/>
      <point x="105" y="557" type="line"/>
      <point x="109" y="549"/>
      <point x="117" y="546"/>
      <point x="128" y="546" type="curve" smooth="yes"/>
      <point x="150" y="546"/>
      <point x="162" y="562"/>
      <point x="162" y="587" type="curve" smooth="yes"/>
      <point x="162" y="607"/>
      <point x="151" y="625"/>
      <point x="128" y="625" type="curve" smooth="yes"/>
      <point x="102" y="625"/>
      <point x="84" y="601"/>
      <point x="84" y="562" type="curve" smooth="yes"/>
      <point x="84" y="510"/>
      <point x="115" y="469"/>
      <point x="195" y="439" type="curve" smooth="yes"/>
      <point x="257" y="416"/>
      <point x="278" y="386"/>
      <point x="278" y="331" type="curve" smooth="yes"/>
      <point x="278" y="268"/>
      <point x="239" y="240"/>
      <point x="184" y="240" type="curve" smooth="yes"/>
      <point x="142" y="240"/>
      <point x="88" y="260"/>
      <point x="68" y="278" type="curve"/>
      <point x="76" y="224" type="line"/>
      <point x="183" y="182"/>
      <point x="283" y="56"/>
    </contour>
  </outline>
</glyph>
<glyph name="three-beng" format="2">
  <advance width="453"/>
  <unicode hex="09E9"/>
  <outline>
    <contour>
      <point x="277" y="92" type="curve" smooth="yes"/>
      <point x="346" y="92"/>
      <point x="417" y="146"/>
      <point x="417" y="299" type="curve" smooth="yes"/>
      <point x="417" y="442"/>
      <point x="361" y="518"/>
      <point x="271" y="518" type="curve" smooth="yes"/>
      <point x="222" y="518"/>
      <point x="198" y="492"/>
      <point x="198" y="454" type="curve" smooth="yes"/>
      <point x="198" y="422"/>
      <point x="218" y="400"/>
      <point x="248" y="400" type="curve" smooth="yes"/>
      <point x="279" y="400"/>
      <point x="294" y="423"/>
      <point x="294" y="453" type="curve" smooth="yes"/>
      <point x="294" y="473"/>
      <point x="285" y="495"/>
      <point x="270" y="500" type="curve"/>
      <point x="248" y="478" type="line"/>
      <point x="256" y="486"/>
      <point x="271" y="492"/>
      <point x="290" y="492" type="curve" smooth="yes"/>
      <point x="344" y="492"/>
      <point x="395" y="430"/>
      <point x="395" y="306" type="curve" smooth="yes"/>
      <point x="395" y="172"/>
      <point x="341" y="117"/>
      <point x="275" y="117" type="curve" smooth="yes"/>
      <point x="176" y="117"/>
      <point x="100" y="220"/>
      <point x="52" y="511" type="curve"/>
      <point x="33" y="507" type="line"/>
      <point x="82" y="187"/>
      <point x="168" y="92"/>
    </contour>
  </outline>
</glyph>
<glyph name="four-beng" format="2">
  <advance width="396"/>
  <unicode hex="09EA"/>
  <outline>
    <contour>
      <point x="196" y="26" type="curve" smooth="yes"/>
      <point x="286" y="26"/>
      <point x="330" y="96"/>
      <point x="330" y="176" type="curve" smooth="yes"/>
      <point x="330" y="254"/>
      <point x="287" y="305"/>
      <point x="225" y="342" type="curve"/>
      <point x="210" y="331" type="line"/>
      <point x="258" y="298"/>
      <point x="307" y="257"/>
      <point x="307" y="180" type="curve" smooth="yes"/>
      <point x="307" y="96"/>
      <point x="259" y="48"/>
      <point x="196" y="48" type="curve" smooth="yes"/>
      <point x="135" y="48"/>
      <point x="89" y="93"/>
      <point x="89" y="160" type="curve" smooth="yes"/>
      <point x="89" y="226"/>
      <point x="119" y="266"/>
      <point x="201" y="318" type="curve" smooth="yes"/>
      <point x="271" y="363"/>
      <point x="316" y="399"/>
      <point x="316" y="480" type="curve" smooth="yes"/>
      <point x="316" y="560"/>
      <point x="268" y="603"/>
      <point x="201" y="603" type="curve" smooth="yes"/>
      <point x="123" y="603"/>
      <point x="80" y="543"/>
      <point x="80" y="474" type="curve" smooth="yes"/>
      <point x="80" y="395"/>
      <point x="131" y="347"/>
      <point x="170" y="316" type="curve"/>
      <point x="187" y="327" type="line"/>
      <point x="131" y="374"/>
      <point x="105" y="420"/>
      <point x="105" y="472" type="curve" smooth="yes"/>
      <point x="105" y="538"/>
      <point x="146" y="581"/>
      <point x="203" y="581" type="curve" smooth="yes"/>
      <point x="262" y="581"/>
      <point x="294" y="535"/>
      <point x="294" y="483" type="curve" smooth="yes"/>
      <point x="294" y="423"/>
      <point x="263" y="388"/>
      <point x="188" y="339" type="curve" smooth="yes"/>
      <point x="121" y="296"/>
      <point x="66" y="257"/>
      <point x="66" y="169" type="curve" smooth="yes"/>
      <point x="66" y="68"/>
      <point x="134" y="26"/>
    </contour>
  </outline>
</glyph>
<glyph name="six-beng" format="2">
  <advance width="471"/>
  <unicode hex="09EC"/>
  <outline>
    <contour>
      <point x="278" y="52" type="curve" smooth="yes"/>
      <point x="371" y="52"/>
      <point x="426" y="121"/>
      <point x="426" y="245" type="curve" smooth="yes"/>
      <point x="426" y="326"/>
      <point x="399" y="381"/>
      <point x="372" y="411" type="curve"/>
      <point x="343" y="346"/>
      <point x="299" y="290"/>
      <point x="258" y="290" type="curve" smooth="yes"/>
      <point x="235" y="290"/>
      <point x="224" y="307"/>
      <point x="224" y="334" type="curve" smooth="yes"/>
      <point x="224" y="578" type="line" smooth="yes"/>
      <point x="224" y="609"/>
      <point x="208" y="627"/>
      <point x="186" y="627" type="curve" smooth="yes"/>
      <point x="165" y="627"/>
      <point x="151" y="612"/>
      <point x="151" y="590" type="curve" smooth="yes"/>
      <point x="151" y="565"/>
      <point x="165" y="551"/>
      <point x="185" y="551" type="curve" smooth="yes"/>
      <point x="204" y="551"/>
      <point x="211" y="563"/>
      <point x="213" y="578" type="curve"/>
      <point x="202" y="570" type="line"/>
      <point x="202" y="333" type="line" smooth="yes"/>
      <point x="202" y="303"/>
      <point x="212" y="287"/>
      <point x="224" y="278" type="curve" smooth="yes"/>
      <point x="235" y="269"/>
      <point x="247" y="266"/>
      <point x="261" y="266" type="curve" smooth="yes"/>
      <point x="300" y="266"/>
      <point x="346" y="303"/>
      <point x="383" y="380" type="curve"/>
      <point x="368" y="378" type="line"/>
      <point x="386" y="357"/>
      <point x="404" y="316"/>
      <point x="404" y="249" type="curve" smooth="yes"/>
      <point x="404" y="129"/>
      <point x="352" y="77"/>
      <point x="277" y="77" type="curve" smooth="yes"/>
      <point x="158" y="77"/>
      <point x="96" y="201"/>
      <point x="64" y="479" type="curve"/>
      <point x="45" y="476" type="line"/>
      <point x="74" y="185"/>
      <point x="144" y="52"/>
    </contour>
  </outline>
</glyph>
<glyph name="seven-beng" format="2">
  <advance width="368"/>
  <unicode hex="09ED"/>
  <outline>
    <contour>
      <point x="297" y="22" type="curve" smooth="yes"/>
      <point x="316" y="22"/>
      <point x="331" y="37"/>
      <point x="331" y="59" type="curve" smooth="yes"/>
      <point x="331" y="83"/>
      <point x="318" y="98"/>
      <point x="299" y="98" type="curve" smooth="yes"/>
      <point x="280" y="98"/>
      <point x="273" y="86"/>
      <point x="271" y="71" type="curve"/>
      <point x="281" y="69" type="line"/>
      <point x="281" y="506" type="line" smooth="yes"/>
      <point x="281" y="576"/>
      <point x="253" y="626"/>
      <point x="192" y="626" type="curve" smooth="yes"/>
      <point x="115" y="626"/>
      <point x="52" y="546"/>
      <point x="52" y="437" type="curve" smooth="yes"/>
      <point x="52" y="336"/>
      <point x="96" y="268"/>
      <point x="179" y="268" type="curve" smooth="yes"/>
      <point x="222" y="268"/>
      <point x="251" y="290"/>
      <point x="268" y="314" type="curve"/>
      <point x="270" y="350" type="line"/>
      <point x="258" y="327"/>
      <point x="223" y="293"/>
      <point x="174" y="293" type="curve" smooth="yes"/>
      <point x="109" y="293"/>
      <point x="75" y="353"/>
      <point x="75" y="428" type="curve" smooth="yes"/>
      <point x="75" y="535"/>
      <point x="135" y="602"/>
      <point x="198" y="602" type="curve" smooth="yes"/>
      <point x="239" y="602"/>
      <point x="259" y="567"/>
      <point x="259" y="500" type="curve" smooth="yes"/>
      <point x="259" y="68" type="line" smooth="yes"/>
      <point x="259" y="39"/>
      <point x="276" y="22"/>
    </contour>
  </outline>
</glyph>
<glyph name="eight-beng" format="2">
  <advance width="392"/>
  <unicode hex="09EE"/>
  <outline>
    <contour>
      <point x="169" y="30" type="curve" smooth="yes"/>
      <point x="232" y="30"/>
      <point x="303" y="124"/>
      <point x="303" y="236" type="curve" smooth="yes"/>
      <point x="303" y="276"/>
      <point x="288" y="317"/>
      <point x="251" y="363" type="curve"/>
      <point x="226" y="367" type="line"/>
      <point x="265" y="316"/>
      <point x="279" y="275"/>
      <point x="279" y="238" type="curve" smooth="yes"/>
      <point x="279" y="144"/>
      <point x="221" y="54"/>
      <point x="164" y="54" type="curve" smooth="yes"/>
      <point x="136" y="54"/>
      <point x="117" y="74"/>
      <point x="117" y="118" type="curve" smooth="yes"/>
      <point x="117" y="578" type="line" smooth="yes"/>
      <point x="117" y="609"/>
      <point x="101" y="627"/>
      <point x="79" y="627" type="curve" smooth="yes"/>
      <point x="58" y="627"/>
      <point x="44" y="612"/>
      <point x="44" y="590" type="curve" smooth="yes"/>
      <point x="44" y="565"/>
      <point x="58" y="551"/>
      <point x="78" y="551" type="curve" smooth="yes"/>
      <point x="97" y="551"/>
      <point x="104" y="563"/>
      <point x="106" y="578" type="curve"/>
      <point x="95" y="580" type="line"/>
      <point x="95" y="119" type="line" smooth="yes"/>
      <point x="95" y="64"/>
      <point x="121" y="30"/>
    </contour>
    <contour>
      <point x="107" y="319" type="line"/>
      <point x="140" y="344"/>
      <point x="177" y="365"/>
      <point x="216" y="365" type="curve" smooth="yes"/>
      <point x="273" y="365"/>
      <point x="290" y="324"/>
      <point x="332" y="324" type="curve" smooth="yes"/>
      <point x="355" y="324"/>
      <point x="370" y="348"/>
      <point x="377" y="395" type="curve"/>
      <point x="361" y="399" type="line"/>
      <point x="356" y="376"/>
      <point x="346" y="351"/>
      <point x="325" y="351" type="curve" smooth="yes"/>
      <point x="287" y="351"/>
      <point x="270" y="388"/>
      <point x="206" y="388" type="curve" smooth="yes"/>
      <point x="174" y="388"/>
      <point x="138" y="371"/>
      <point x="108" y="351" type="curve"/>
    </contour>
  </outline>
</glyph>
<glyph name="ralowerdiagonal-beng" format="2">
  <advance width="382"/>
  <unicode hex="09F1"/>
  <anchor x="300" y="11" name="bottom"/>
  <anchor x="306" y="20" name="bottom.rakaar"/>
  <anchor x="308" y="6" name="bottom.rvocalic"/>
  <anchor x="304" y="32" name="bottom.virama"/>
  <anchor x="154" y="98" name="nukta"/>
  <anchor x="314" y="602" name="top"/>
  <anchor x="308" y="602" name="topright"/>
  <outline>
    <contour>
      <point x="305" y="-3" type="line"/>
      <point x="308" y="-2" type="line"/>
      <point x="308" y="602" type="line"/>
      <point x="397" y="602" type="line"/>
      <point x="385" y="622" type="line"/>
      <point x="-15" y="622" type="line"/>
      <point x="-3" y="602" type="line"/>
      <point x="286" y="602" type="line"/>
      <point x="286" y="502" type="line"/>
      <point x="293" y="516" type="line"/>
      <point x="205" y="473"/>
      <point x="109" y="404"/>
      <point x="37" y="338" type="curve"/>
      <point x="54" y="309" type="line"/>
      <point x="148" y="258"/>
      <point x="250" y="149"/>
      <point x="291" y="10" type="curve"/>
    </contour>
    <contour>
      <point x="286" y="53" type="line"/>
      <point x="296" y="45" type="line"/>
      <point x="265" y="167"/>
      <point x="152" y="281"/>
      <point x="64" y="334" type="curve"/>
      <point x="62" y="324" type="line"/>
      <point x="133" y="394"/>
      <point x="231" y="457"/>
      <point x="291" y="487" type="curve"/>
      <point x="286" y="499" type="line"/>
    </contour>
    <contour>
      <point x="206" y="35" type="curve"/>
      <point x="217" y="45" type="line"/>
      <point x="185" y="116"/>
      <point x="138" y="178"/>
      <point x="82" y="218" type="curve"/>
      <point x="73" y="195" type="line"/>
      <point x="136" y="147"/>
      <point x="169" y="102"/>
    </contour>
  </outline>
</glyph>
<glyph name="rupeemark-beng" format="2">
  <advance width="405"/>
  <unicode hex="09F2"/>
  <outline>
    <contour>
      <point x="342" y="18" type="curve"/>
      <point x="360" y="26" type="line"/>
      <point x="271" y="319"/>
      <point x="182" y="438"/>
      <point x="81" y="534" type="curve"/>
      <point x="70" y="505" type="line"/>
      <point x="179" y="413"/>
      <point x="260" y="268"/>
    </contour>
  </outline>
</glyph>
<glyph name="rupee-beng" format="2">
  <advance width="383"/>
  <unicode hex="09F3"/>
  <outline>
    <contour>
      <point x="177" y="50" type="curve" smooth="yes"/>
      <point x="257" y="50"/>
      <point x="317" y="188"/>
      <point x="317" y="313" type="curve" smooth="yes"/>
      <point x="317" y="355"/>
      <point x="298" y="385"/>
      <point x="268" y="385" type="curve" smooth="yes"/>
      <point x="238" y="385"/>
      <point x="224" y="360"/>
      <point x="224" y="335" type="curve" smooth="yes"/>
      <point x="224" y="306"/>
      <point x="240" y="286"/>
      <point x="265" y="286" type="curve" smooth="yes"/>
      <point x="282" y="286"/>
      <point x="293" y="295"/>
      <point x="300" y="316" type="curve"/>
      <point x="292" y="319" type="line"/>
      <point x="290" y="185"/>
      <point x="236" y="75"/>
      <point x="177" y="75" type="curve" smooth="yes"/>
      <point x="147" y="75"/>
      <point x="127" y="101"/>
      <point x="127" y="141" type="curve" smooth="yes"/>
      <point x="127" y="643" type="line" smooth="yes"/>
      <point x="127" y="673"/>
      <point x="114" y="692"/>
      <point x="90" y="692" type="curve" smooth="yes"/>
      <point x="69" y="692"/>
      <point x="55" y="677"/>
      <point x="55" y="655" type="curve" smooth="yes"/>
      <point x="55" y="630"/>
      <point x="69" y="616"/>
      <point x="90" y="616" type="curve" smooth="yes"/>
      <point x="108" y="616"/>
      <point x="114" y="628"/>
      <point x="116" y="643" type="curve"/>
      <point x="105" y="645" type="line"/>
      <point x="105" y="139" type="line" smooth="yes"/>
      <point x="105" y="84"/>
      <point x="136" y="50"/>
    </contour>
    <contour>
      <point x="49" y="485" type="line"/>
      <point x="333" y="485" type="line"/>
      <point x="321" y="505" type="line"/>
      <point x="36" y="505" type="line"/>
    </contour>
  </outline>
</glyph>
<glyph name="oneNumr-beng" format="2">
  <advance width="303"/>
  <unicode hex="09F4"/>
  <outline>
    <contour>
      <point x="41" y="23" type="line"/>
      <point x="123" y="121"/>
      <point x="224" y="268"/>
      <point x="273" y="546" type="curve"/>
      <point x="254" y="550" type="line"/>
      <point x="208" y="296"/>
      <point x="103" y="126"/>
      <point x="15" y="37" type="curve"/>
    </contour>
  </outline>
</glyph>
<glyph name="twoNumr-beng" format="2">
  <advance width="412"/>
  <unicode hex="09F5"/>
  <outline>
    <contour>
      <point x="143" y="46" type="line"/>
      <point x="238" y="128"/>
      <point x="322" y="279"/>
      <point x="359" y="612" type="curve"/>
      <point x="341" y="615" type="line"/>
      <point x="316" y="418"/>
      <point x="280" y="271"/>
      <point x="211" y="161" type="curve"/>
      <point x="213" y="154" type="line"/>
      <point x="218" y="174"/>
      <point x="221" y="206"/>
      <point x="221" y="234" type="curve" smooth="yes"/>
      <point x="221" y="322"/>
      <point x="182" y="367"/>
      <point x="121" y="367" type="curve" smooth="yes"/>
      <point x="67" y="367"/>
      <point x="34" y="322"/>
      <point x="34" y="277" type="curve" smooth="yes"/>
      <point x="34" y="245"/>
      <point x="51" y="224"/>
      <point x="78" y="224" type="curve" smooth="yes"/>
      <point x="101" y="224"/>
      <point x="117" y="240"/>
      <point x="117" y="267" type="curve" smooth="yes"/>
      <point x="117" y="290"/>
      <point x="103" y="311"/>
      <point x="68" y="311" type="curve"/>
      <point x="69" y="296" type="line"/>
      <point x="73" y="320"/>
      <point x="89" y="343"/>
      <point x="125" y="343" type="curve" smooth="yes"/>
      <point x="176" y="343"/>
      <point x="200" y="297"/>
      <point x="200" y="236" type="curve" smooth="yes"/>
      <point x="200" y="137"/>
      <point x="167" y="101"/>
      <point x="120" y="64" type="curve"/>
    </contour>
  </outline>
</glyph>
<glyph name="threeNumr-beng" format="2">
  <advance width="451"/>
  <unicode hex="09F6"/>
  <outline>
    <contour>
      <point x="142" y="46" type="curve" smooth="yes"/>
      <point x="219" y="46"/>
      <point x="323" y="157"/>
      <point x="398" y="612" type="curve"/>
      <point x="381" y="616" type="line"/>
      <point x="323" y="283"/>
      <point x="237" y="70"/>
      <point x="140" y="70" type="curve" smooth="yes"/>
      <point x="109" y="70"/>
      <point x="79" y="93"/>
      <point x="79" y="133" type="curve" smooth="yes"/>
      <point x="79" y="172"/>
      <point x="101" y="185"/>
      <point x="148" y="211" type="curve" smooth="yes"/>
      <point x="210" y="246"/>
      <point x="228" y="282"/>
      <point x="228" y="332" type="curve" smooth="yes"/>
      <point x="228" y="399"/>
      <point x="186" y="435"/>
      <point x="137" y="435" type="curve" smooth="yes"/>
      <point x="89" y="435"/>
      <point x="58" y="396"/>
      <point x="58" y="351" type="curve" smooth="yes"/>
      <point x="58" y="319"/>
      <point x="76" y="298"/>
      <point x="100" y="298" type="curve" smooth="yes"/>
      <point x="123" y="298"/>
      <point x="137" y="313"/>
      <point x="137" y="340" type="curve" smooth="yes"/>
      <point x="137" y="363"/>
      <point x="119" y="384"/>
      <point x="90" y="383" type="curve"/>
      <point x="91" y="370" type="line"/>
      <point x="95" y="392"/>
      <point x="109" y="412"/>
      <point x="144" y="412" type="curve" smooth="yes"/>
      <point x="183" y="412"/>
      <point x="208" y="378"/>
      <point x="208" y="333" type="curve" smooth="yes"/>
      <point x="208" y="294"/>
      <point x="192" y="260"/>
      <point x="135" y="230" type="curve" smooth="yes"/>
      <point x="83" y="202"/>
      <point x="55" y="182"/>
      <point x="55" y="134" type="curve" smooth="yes"/>
      <point x="55" y="84"/>
      <point x="93" y="46"/>
    </contour>
  </outline>
</glyph>
<glyph name="fourNumr-beng" format="2">
  <advance width="220"/>
  <unicode hex="09F7"/>
  <outline>
    <contour>
      <point x="141" y="22" type="curve" smooth="yes"/>
      <point x="161" y="22"/>
      <point x="175" y="37"/>
      <point x="175" y="59" type="curve" smooth="yes"/>
      <point x="175" y="84"/>
      <point x="161" y="98"/>
      <point x="141" y="98" type="curve" smooth="yes"/>
      <point x="123" y="98"/>
      <point x="117" y="86"/>
      <point x="115" y="71" type="curve"/>
      <point x="126" y="69" type="line"/>
      <point x="126" y="578" type="line" smooth="yes"/>
      <point x="126" y="608"/>
      <point x="113" y="627"/>
      <point x="89" y="627" type="curve" smooth="yes"/>
      <point x="68" y="627"/>
      <point x="54" y="612"/>
      <point x="54" y="590" type="curve" smooth="yes"/>
      <point x="54" y="565"/>
      <point x="68" y="551"/>
      <point x="89" y="551" type="curve" smooth="yes"/>
      <point x="107" y="551"/>
      <point x="113" y="563"/>
      <point x="115" y="578" type="curve"/>
      <point x="104" y="580" type="line"/>
      <point x="104" y="71" type="line" smooth="yes"/>
      <point x="104" y="41"/>
      <point x="117" y="22"/>
    </contour>
  </outline>
</glyph>
<glyph name="oneLessNumr-beng" format="2">
  <advance width="425"/>
  <unicode hex="09F8"/>
  <outline>
    <contour>
      <point x="346" y="59" type="curve" smooth="yes"/>
      <point x="366" y="59"/>
      <point x="380" y="74"/>
      <point x="380" y="96" type="curve" smooth="yes"/>
      <point x="380" y="121"/>
      <point x="366" y="135"/>
      <point x="346" y="135" type="curve" smooth="yes"/>
      <point x="328" y="135"/>
      <point x="322" y="123"/>
      <point x="320" y="108" type="curve"/>
      <point x="331" y="106" type="line"/>
      <point x="331" y="438" type="line"/>
      <point x="308" y="459" type="line"/>
      <point x="246" y="419"/>
      <point x="160" y="306"/>
      <point x="116" y="231" type="curve"/>
      <point x="125" y="224" type="line"/>
      <point x="126" y="260"/>
      <point x="126" y="286"/>
      <point x="126" y="312" type="curve" smooth="yes"/>
      <point x="126" y="578" type="line" smooth="yes"/>
      <point x="126" y="608"/>
      <point x="113" y="627"/>
      <point x="89" y="627" type="curve" smooth="yes"/>
      <point x="68" y="627"/>
      <point x="54" y="612"/>
      <point x="54" y="590" type="curve" smooth="yes"/>
      <point x="54" y="565"/>
      <point x="68" y="551"/>
      <point x="89" y="551" type="curve" smooth="yes"/>
      <point x="107" y="551"/>
      <point x="113" y="563"/>
      <point x="115" y="578" type="curve"/>
      <point x="104" y="580" type="line"/>
      <point x="104" y="220" type="line"/>
      <point x="125" y="208" type="line"/>
      <point x="188" y="306"/>
      <point x="262" y="399"/>
      <point x="316" y="434" type="curve"/>
      <point x="309" y="444" type="line"/>
      <point x="309" y="108" type="line" smooth="yes"/>
      <point x="309" y="78"/>
      <point x="322" y="59"/>
    </contour>
  </outline>
</glyph>
<glyph name="sixteenDnom-beng" format="2">
  <advance width="312"/>
  <unicode hex="09F9"/>
  <outline>
    <contour>
      <point x="155" y="158" type="curve" smooth="yes"/>
      <point x="225" y="158"/>
      <point x="267" y="221"/>
      <point x="267" y="322" type="curve" smooth="yes"/>
      <point x="267" y="419"/>
      <point x="227" y="479"/>
      <point x="159" y="479" type="curve" smooth="yes"/>
      <point x="89" y="479"/>
      <point x="45" y="415"/>
      <point x="45" y="313" type="curve" smooth="yes"/>
      <point x="45" y="218"/>
      <point x="88" y="158"/>
    </contour>
    <contour>
      <point x="153" y="184" type="curve" smooth="yes"/>
      <point x="103" y="184"/>
      <point x="71" y="233"/>
      <point x="71" y="311" type="curve" smooth="yes"/>
      <point x="71" y="399"/>
      <point x="104" y="454"/>
      <point x="162" y="454" type="curve" smooth="yes"/>
      <point x="212" y="454"/>
      <point x="243" y="404"/>
      <point x="243" y="328" type="curve" smooth="yes"/>
      <point x="243" y="238"/>
      <point x="211" y="184"/>
    </contour>
  </outline>
</glyph>
<glyph name="isshar-beng" format="2">
  <advance width="418"/>
  <unicode hex="09FA"/>
  <outline>
    <contour>
      <point x="161" y="205" type="curve" smooth="yes"/>
      <point x="228" y="205"/>
      <point x="301" y="249"/>
      <point x="368" y="490" type="curve"/>
      <point x="349" y="495" type="line"/>
      <point x="288" y="292"/>
      <point x="229" y="230"/>
      <point x="163" y="230" type="curve" smooth="yes"/>
      <point x="95" y="230"/>
      <point x="70" y="299"/>
      <point x="70" y="398" type="curve" smooth="yes"/>
      <point x="70" y="408"/>
      <point x="70" y="419"/>
      <point x="71" y="429" type="curve"/>
      <point x="52" y="425" type="line"/>
      <point x="51" y="413"/>
      <point x="50" y="399"/>
      <point x="50" y="386" type="curve" smooth="yes"/>
      <point x="50" y="259"/>
      <point x="99" y="205"/>
    </contour>
    <contour>
      <point x="175" y="357" type="curve" smooth="yes"/>
      <point x="192" y="357"/>
      <point x="207" y="370"/>
      <point x="207" y="395" type="curve" smooth="yes"/>
      <point x="207" y="419"/>
      <point x="193" y="434"/>
      <point x="175" y="434" type="curve" smooth="yes"/>
      <point x="156" y="434"/>
      <point x="141" y="420"/>
      <point x="141" y="395" type="curve" smooth="yes"/>
      <point x="141" y="370"/>
      <point x="157" y="357"/>
    </contour>
  </outline>
</glyph>
<glyph name="uni09FC" format="2">
  <advance width="371"/>
  <unicode hex="09FC"/>
  <anchor x="-136" y="0" name="vedic"/>
  <outline>
    <contour>
      <point x="192" y="288" type="curve" smooth="yes"/>
      <point x="266" y="288"/>
      <point x="299" y="349"/>
      <point x="309" y="449" type="curve"/>
      <point x="290" y="455" type="line"/>
      <point x="278" y="355"/>
      <point x="251" y="310"/>
      <point x="192" y="310" type="curve" smooth="yes"/>
      <point x="133" y="310"/>
      <point x="100" y="359"/>
      <point x="81" y="454" type="curve"/>
      <point x="62" y="449" type="line"/>
      <point x="79" y="349"/>
      <point x="122" y="288"/>
    </contour>
    <contour>
      <point x="189" y="422" type="curve" smooth="yes"/>
      <point x="206" y="422"/>
      <point x="221" y="435"/>
      <point x="221" y="460" type="curve" smooth="yes"/>
      <point x="221" y="484"/>
      <point x="207" y="499"/>
      <point x="189" y="499" type="curve" smooth="yes"/>
      <point x="170" y="499"/>
      <point x="155" y="485"/>
      <point x="155" y="460" type="curve" smooth="yes"/>
      <point x="155" y="435"/>
      <point x="171" y="422"/>
    </contour>
    <contour>
      <point x="323" y="-10" type="curve"/>
      <point x="336" y="3" type="line"/>
      <point x="297" y="49"/>
      <point x="231" y="115"/>
      <point x="138" y="145" type="curve"/>
      <point x="130" y="123" type="line"/>
      <point x="223" y="92"/>
      <point x="285" y="30"/>
    </contour>
  </outline>
</glyph>
<glyph name="uni09FD" format="2">
  <advance width="346"/>
  <unicode hex="09FD"/>
  <outline>
    <contour>
      <point x="171" y="284" type="curve" smooth="yes"/>
      <point x="200" y="284"/>
      <point x="222" y="298"/>
      <point x="241" y="322" type="curve" smooth="yes"/>
      <point x="260" y="347"/>
      <point x="272" y="382"/>
      <point x="272" y="422" type="curve" smooth="yes"/>
      <point x="272" y="500"/>
      <point x="230" y="554"/>
      <point x="176" y="554" type="curve" smooth="yes"/>
      <point x="146" y="554"/>
      <point x="123" y="538"/>
      <point x="103" y="512" type="curve" smooth="yes"/>
      <point x="85" y="488"/>
      <point x="74" y="453"/>
      <point x="74" y="415" type="curve" smooth="yes"/>
      <point x="74" y="341"/>
      <point x="116" y="284"/>
    </contour>
    <contour>
      <point x="175" y="304" type="curve" smooth="yes"/>
      <point x="131" y="304"/>
      <point x="97" y="347"/>
      <point x="97" y="420" type="curve" smooth="yes"/>
      <point x="97" y="489"/>
      <point x="132" y="534"/>
      <point x="175" y="534" type="curve" smooth="yes"/>
      <point x="215" y="534"/>
      <point x="250" y="493"/>
      <point x="250" y="417" type="curve" smooth="yes"/>
      <point x="250" y="354"/>
      <point x="216" y="304"/>
    </contour>
  </outline>
</glyph>
<glyph name="uni09FE" format="2">
  <unicode hex="09FE"/>
  <outline>
    <contour>
      <point x="122" y="853" type="curve"/>
      <point x="133" y="867" type="line"/>
      <point x="80" y="908"/>
      <point x="29" y="946"/>
      <point x="-82" y="967" type="curve"/>
      <point x="-79" y="958" type="line"/>
      <point x="-61" y="955"/>
      <point x="-44" y="953"/>
      <point x="-22" y="953" type="curve" smooth="yes"/>
      <point x="57" y="953"/>
      <point x="93" y="986"/>
      <point x="93" y="1042" type="curve" smooth="yes"/>
      <point x="93" y="1097"/>
      <point x="52" y="1127"/>
      <point x="0" y="1127" type="curve" smooth="yes"/>
      <point x="-59" y="1127"/>
      <point x="-78" y="1111"/>
      <point x="-78" y="1086" type="curve" smooth="yes"/>
      <point x="-78" y="1066"/>
      <point x="-65" y="1054"/>
      <point x="-47" y="1054" type="curve" smooth="yes"/>
      <point x="-23" y="1054"/>
      <point x="-10" y="1072"/>
      <point x="-10" y="1094" type="curve" smooth="yes"/>
      <point x="-10" y="1124"/>
      <point x="-29" y="1158"/>
      <point x="-64" y="1179" type="curve"/>
      <point x="-147" y="1179" type="line"/>
      <point x="-139" y="1160" type="line"/>
      <point x="-58" y="1160" type="line"/>
      <point x="-65" y="1171" type="line"/>
      <point x="-86" y="1171" type="line"/>
      <point x="-53" y="1151"/>
      <point x="-41" y="1138"/>
      <point x="-32" y="1112" type="curve"/>
      <point x="-39" y="1100" type="line"/>
      <point x="-26" y="1105"/>
      <point x="-16" y="1107"/>
      <point x="4" y="1107" type="curve" smooth="yes"/>
      <point x="39" y="1107"/>
      <point x="73" y="1091"/>
      <point x="73" y="1043" type="curve" smooth="yes"/>
      <point x="73" y="983"/>
      <point x="24" y="971"/>
      <point x="-26" y="971" type="curve" smooth="yes"/>
      <point x="-52" y="971"/>
      <point x="-83" y="976"/>
      <point x="-100" y="983" type="curve"/>
      <point x="-93" y="951" type="line"/>
      <point x="-2" y="935"/>
      <point x="59" y="905"/>
    </contour>
  </outline>
</glyph>
<glyph name="uni1CD0" format="2">
  <unicode hex="1CD0"/>
  <note>
uni1CD0
</note>
  <anchor x="-299" y="-220" name="_vedic"/>
  <outline>
    <contour>
      <point x="-397" y="705" type="line"/>
      <point x="-295" y="888" type="line"/>
      <point x="-301" y="885" type="line"/>
      <point x="-200" y="704" type="line"/>
      <point x="-181" y="715" type="line"/>
      <point x="-299" y="922" type="line"/>
      <point x="-416" y="716" type="line"/>
    </contour>
  </outline>
</glyph>
<glyph name="uni1CD2" format="2">
  <unicode hex="1CD2"/>
  <note>
uni1CD2
</note>
  <anchor x="-299" y="-220" name="_vedic"/>
  <outline>
    <contour>
      <point x="-416" y="774" type="line"/>
      <point x="-173" y="774" type="line"/>
      <point x="-182" y="794" type="line"/>
      <point x="-424" y="794" type="line"/>
    </contour>
  </outline>
</glyph>
<glyph name="uni1CD5" format="2">
  <unicode hex="1CD5"/>
  <note>
uni1CD5
</note>
  <anchor x="-299" y="340" name="_vedic"/>
  <outline>
    <contour>
      <point x="-361" y="-295" type="curve" smooth="yes"/>
      <point x="-310" y="-295"/>
      <point x="-282" y="-251"/>
      <point x="-282" y="-187" type="curve" smooth="yes"/>
      <point x="-282" y="-124" type="line"/>
      <point x="-302" y="-115" type="line"/>
      <point x="-302" y="-183" type="line" smooth="yes"/>
      <point x="-302" y="-244"/>
      <point x="-322" y="-275"/>
      <point x="-366" y="-275" type="curve" smooth="yes"/>
      <point x="-397" y="-275"/>
      <point x="-429" y="-250"/>
      <point x="-429" y="-200" type="curve" smooth="yes"/>
      <point x="-429" y="-158"/>
      <point x="-416" y="-129"/>
      <point x="-397" y="-94" type="curve"/>
      <point x="-414" y="-84" type="line"/>
      <point x="-433" y="-120"/>
      <point x="-449" y="-157"/>
      <point x="-449" y="-196" type="curve" smooth="yes"/>
      <point x="-449" y="-256"/>
      <point x="-409" y="-295"/>
    </contour>
    <contour>
      <point x="-218" y="-295" type="curve" smooth="yes"/>
      <point x="-175" y="-295"/>
      <point x="-149" y="-258"/>
      <point x="-149" y="-203" type="curve" smooth="yes"/>
      <point x="-149" y="-157"/>
      <point x="-164" y="-122"/>
      <point x="-187" y="-85" type="curve"/>
      <point x="-204" y="-94" type="line"/>
      <point x="-184" y="-127"/>
      <point x="-169" y="-159"/>
      <point x="-169" y="-199" type="curve" smooth="yes"/>
      <point x="-169" y="-254"/>
      <point x="-193" y="-275"/>
      <point x="-224" y="-275" type="curve" smooth="yes"/>
      <point x="-254" y="-275"/>
      <point x="-276" y="-252"/>
      <point x="-290" y="-210" type="curve"/>
      <point x="-304" y="-221" type="line"/>
      <point x="-286" y="-269"/>
      <point x="-257" y="-295"/>
    </contour>
  </outline>
</glyph>
<glyph name="uni1CD6" format="2">
  <unicode hex="1CD6"/>
  <note>
uni1CD6
</note>
  <anchor x="-299" y="340" name="_vedic"/>
  <outline>
    <contour>
      <point x="-400" y="-268" type="line"/>
      <point x="-166" y="-268" type="line"/>
      <point x="-181" y="-248" type="line"/>
      <point x="-395" y="-248" type="line"/>
      <point x="-395" y="-96" type="line"/>
      <point x="-415" y="-79" type="line"/>
      <point x="-415" y="-251" type="line"/>
    </contour>
  </outline>
</glyph>
<glyph name="uni1CD8" format="2">
  <unicode hex="1CD8"/>
  <note>
uni1CD8
</note>
  <anchor x="-299" y="340" name="_vedic"/>
  <outline>
    <contour>
      <point x="-292" y="-263" type="curve" smooth="yes"/>
      <point x="-210" y="-263"/>
      <point x="-167" y="-194"/>
      <point x="-158" y="-89" type="curve"/>
      <point x="-180" y="-86" type="line"/>
      <point x="-187" y="-179"/>
      <point x="-219" y="-242"/>
      <point x="-297" y="-242" type="curve" smooth="yes"/>
      <point x="-370" y="-242"/>
      <point x="-409" y="-184"/>
      <point x="-422" y="-86" type="curve"/>
      <point x="-443" y="-90" type="line"/>
      <point x="-429" y="-196"/>
      <point x="-384" y="-263"/>
    </contour>
  </outline>
</glyph>
<glyph name="uni1CE1" format="2">
  <advance width="453"/>
  <unicode hex="1CE1"/>
  <note>
uni1CE1
</note>
  <outline>
    <contour>
      <point x="128" y="-146" type="curve" smooth="yes"/>
      <point x="214" y="-146"/>
      <point x="257" y="-82"/>
      <point x="257" y="39" type="curve" smooth="yes"/>
      <point x="257" y="216"/>
      <point x="200" y="490"/>
      <point x="200" y="652" type="curve" smooth="yes"/>
      <point x="200" y="764"/>
      <point x="233" y="814"/>
      <point x="292" y="814" type="curve" smooth="yes"/>
      <point x="336" y="814"/>
      <point x="370" y="777"/>
      <point x="396" y="713" type="curve"/>
      <point x="413" y="719" type="line"/>
      <point x="385" y="797"/>
      <point x="345" y="836"/>
      <point x="291" y="836" type="curve" smooth="yes"/>
      <point x="217" y="836"/>
      <point x="177" y="772"/>
      <point x="177" y="657" type="curve" smooth="yes"/>
      <point x="177" y="483"/>
      <point x="234" y="210"/>
      <point x="234" y="44" type="curve" smooth="yes"/>
      <point x="234" y="-79"/>
      <point x="198" y="-124"/>
      <point x="123" y="-124" type="curve" smooth="yes"/>
      <point x="84" y="-124"/>
      <point x="50" y="-108"/>
      <point x="10" y="-73" type="curve"/>
      <point x="0" y="-86" type="line"/>
      <point x="39" y="-128"/>
      <point x="83" y="-146"/>
    </contour>
  </outline>
</glyph>
<glyph name="uni1CEA" format="2">
  <advance width="540"/>
  <unicode hex="1CEA"/>
  <note>
uni1CEA
</note>
  <anchor x="270" y="0" name="vedic"/>
  <outline>
    <contour>
      <point x="273" y="-5" type="curve" smooth="yes"/>
      <point x="393" y="-5"/>
      <point x="467" y="66"/>
      <point x="467" y="170" type="curve" smooth="yes"/>
      <point x="467" y="312"/>
      <point x="344" y="394"/>
      <point x="344" y="511" type="curve" smooth="yes"/>
      <point x="344" y="575"/>
      <point x="382" y="613"/>
      <point x="427" y="613" type="curve" smooth="yes"/>
      <point x="471" y="613"/>
      <point x="497" y="582"/>
      <point x="497" y="539" type="curve" smooth="yes"/>
      <point x="497" y="486"/>
      <point x="468" y="456"/>
      <point x="420" y="430" type="curve"/>
      <point x="433" y="412" type="line"/>
      <point x="485" y="443"/>
      <point x="519" y="479"/>
      <point x="519" y="541" type="curve" smooth="yes"/>
      <point x="519" y="590"/>
      <point x="479" y="633"/>
      <point x="426" y="633" type="curve" smooth="yes"/>
      <point x="365" y="633"/>
      <point x="322" y="583"/>
      <point x="322" y="511" type="curve" smooth="yes"/>
      <point x="322" y="388"/>
      <point x="445" y="311"/>
      <point x="445" y="170" type="curve" smooth="yes"/>
      <point x="445" y="85"/>
      <point x="393" y="15"/>
      <point x="267" y="15" type="curve" smooth="yes"/>
      <point x="164" y="15"/>
      <point x="96" y="69"/>
      <point x="96" y="162" type="curve" smooth="yes"/>
      <point x="96" y="293"/>
      <point x="239" y="371"/>
      <point x="239" y="504" type="curve" smooth="yes"/>
      <point x="239" y="575"/>
      <point x="200" y="628"/>
      <point x="137" y="628" type="curve" smooth="yes"/>
      <point x="79" y="628"/>
      <point x="39" y="582"/>
      <point x="39" y="524" type="curve" smooth="yes"/>
      <point x="39" y="473"/>
      <point x="65" y="430"/>
      <point x="104" y="396" type="curve"/>
      <point x="119" y="408" type="line"/>
      <point x="85" y="441"/>
      <point x="61" y="476"/>
      <point x="61" y="519" type="curve" smooth="yes"/>
      <point x="61" y="574"/>
      <point x="95" y="608"/>
      <point x="143" y="608" type="curve" smooth="yes"/>
      <point x="193" y="608"/>
      <point x="217" y="560"/>
      <point x="217" y="504" type="curve" smooth="yes"/>
      <point x="217" y="377"/>
      <point x="74" y="301"/>
      <point x="74" y="160" type="curve" smooth="yes"/>
      <point x="74" y="58"/>
      <point x="154" y="-5"/>
    </contour>
  </outline>
</glyph>
<glyph name="uni1CED" format="2">
  <unicode hex="1CED"/>
  <note>
uni1CED
</note>
  <anchor x="-299" y="340" name="_vedic"/>
  <outline>
    <contour>
      <point x="-381" y="-95" type="line"/>
      <point x="-206" y="-290" type="line"/>
      <point x="-190" y="-276" type="line"/>
      <point x="-363" y="-80" type="line"/>
    </contour>
  </outline>
</glyph>
<glyph name="uni1CF2" format="2">
  <advance width="367"/>
  <unicode hex="1CF2"/>
  <note>
uni1CF2
</note>
  <anchor x="-136" y="0" name="vedic"/>
  <outline>
    <contour>
      <point x="190" y="316" type="curve" smooth="yes"/>
      <point x="272" y="316"/>
      <point x="321" y="386"/>
      <point x="328" y="491" type="curve"/>
      <point x="305" y="494" type="line"/>
      <point x="298" y="401"/>
      <point x="260" y="337"/>
      <point x="186" y="337" type="curve" smooth="yes"/>
      <point x="112" y="337"/>
      <point x="74" y="396"/>
      <point x="61" y="494" type="curve"/>
      <point x="39" y="490" type="line"/>
      <point x="53" y="384"/>
      <point x="98" y="316"/>
    </contour>
    <contour>
      <point x="62" y="67" type="line"/>
      <point x="68" y="161"/>
      <point x="106" y="224"/>
      <point x="181" y="224" type="curve" smooth="yes"/>
      <point x="255" y="224"/>
      <point x="293" y="166"/>
      <point x="306" y="67" type="curve"/>
      <point x="328" y="71" type="line"/>
      <point x="313" y="177"/>
      <point x="269" y="246"/>
      <point x="176" y="246" type="curve" smooth="yes"/>
      <point x="95" y="246"/>
      <point x="45" y="176"/>
      <point x="39" y="70" type="curve"/>
    </contour>
  </outline>
</glyph>
<glyph name="uni1CF5" format="2">
  <advance width="355"/>
  <unicode hex="1CF5"/>
  <outline>
    <contour>
      <point x="306" y="458" type="line"/>
      <point x="287" y="471" type="line"/>
      <point x="178" y="300" type="line"/>
      <point x="68" y="471" type="line"/>
      <point x="49" y="458" type="line"/>
      <point x="164" y="282" type="line"/>
      <point x="49" y="106" type="line"/>
      <point x="68" y="93" type="line"/>
      <point x="178" y="264" type="line"/>
      <point x="287" y="93" type="line"/>
      <point x="306" y="106" type="line"/>
      <point x="191" y="282" type="line"/>
    </contour>
  </outline>
</glyph>
<glyph name="uni1CF7" format="2">
  <advance width="453"/>
  <unicode hex="1CF7"/>
  <note>
uni1CE1
</note>
  <outline>
    <contour>
      <point x="247" y="-146" type="line"/>
      <point x="252" y="-94"/>
      <point x="257" y="-34"/>
      <point x="257" y="37" type="curve" smooth="yes"/>
      <point x="257" y="278"/>
      <point x="181" y="435"/>
      <point x="181" y="642" type="curve" smooth="yes"/>
      <point x="181" y="755"/>
      <point x="224" y="814"/>
      <point x="289" y="814" type="curve" smooth="yes"/>
      <point x="338" y="814"/>
      <point x="370" y="777"/>
      <point x="396" y="713" type="curve"/>
      <point x="413" y="719" type="line"/>
      <point x="385" y="797"/>
      <point x="347" y="836"/>
      <point x="289" y="836" type="curve" smooth="yes"/>
      <point x="211" y="836"/>
      <point x="158" y="768"/>
      <point x="158" y="646" type="curve" smooth="yes"/>
      <point x="158" y="435"/>
      <point x="234" y="268"/>
      <point x="234" y="42" type="curve" smooth="yes"/>
      <point x="234" y="-34"/>
      <point x="230" y="-94"/>
      <point x="222" y="-143" type="curve"/>
    </contour>
  </outline>
</glyph>
<glyph name="uni2010" format="2">
  <advance width="236"/>
  <unicode hex="2010"/>
  <outline>
    <contour>
      <point x="20" y="259" type="line"/>
      <point x="216" y="259" type="line"/>
      <point x="216" y="287" type="line"/>
      <point x="20" y="287" type="line"/>
    </contour>
  </outline>
</glyph>
<glyph name="quotedblleft" format="2">
  <advance width="263"/>
  <unicode hex="201C"/>
  <outline>
    <contour>
      <point x="192" y="462" type="curve" smooth="yes"/>
      <point x="212" y="462"/>
      <point x="222" y="476"/>
      <point x="222" y="489" type="curve" smooth="yes"/>
      <point x="222" y="526"/>
      <point x="177" y="524"/>
      <point x="177" y="583" type="curve" smooth="yes"/>
      <point x="177" y="618"/>
      <point x="191" y="659"/>
      <point x="251" y="688" type="curve"/>
      <point x="251" y="717" type="line"/>
      <point x="168" y="675"/>
      <point x="145" y="627"/>
      <point x="145" y="550" type="curve" smooth="yes"/>
      <point x="145" y="500"/>
      <point x="162" y="462"/>
    </contour>
    <contour>
      <point x="97" y="462" type="curve" smooth="yes"/>
      <point x="117" y="462"/>
      <point x="127" y="476"/>
      <point x="127" y="489" type="curve" smooth="yes"/>
      <point x="127" y="526"/>
      <point x="82" y="524"/>
      <point x="82" y="583" type="curve" smooth="yes"/>
      <point x="82" y="618"/>
      <point x="96" y="659"/>
      <point x="156" y="688" type="curve"/>
      <point x="156" y="717" type="line"/>
      <point x="73" y="675"/>
      <point x="50" y="627"/>
      <point x="50" y="550" type="curve" smooth="yes"/>
      <point x="50" y="500"/>
      <point x="67" y="462"/>
    </contour>
  </outline>
</glyph>
<glyph name="quotedblright" format="2">
  <advance width="262"/>
  <unicode hex="201D"/>
  <outline>
    <contour>
      <point x="106" y="462" type="line"/>
      <point x="189" y="501"/>
      <point x="212" y="549"/>
      <point x="212" y="626" type="curve" smooth="yes"/>
      <point x="212" y="676"/>
      <point x="195" y="714"/>
      <point x="165" y="714" type="curve" smooth="yes"/>
      <point x="145" y="714"/>
      <point x="135" y="700"/>
      <point x="135" y="687" type="curve" smooth="yes"/>
      <point x="135" y="650"/>
      <point x="180" y="652"/>
      <point x="180" y="593" type="curve" smooth="yes"/>
      <point x="180" y="558"/>
      <point x="166" y="517"/>
      <point x="106" y="488" type="curve"/>
    </contour>
    <contour>
      <point x="12" y="462" type="line"/>
      <point x="95" y="501"/>
      <point x="118" y="549"/>
      <point x="118" y="626" type="curve" smooth="yes"/>
      <point x="118" y="676"/>
      <point x="101" y="714"/>
      <point x="71" y="714" type="curve" smooth="yes"/>
      <point x="51" y="714"/>
      <point x="41" y="700"/>
      <point x="41" y="687" type="curve" smooth="yes"/>
      <point x="41" y="650"/>
      <point x="86" y="652"/>
      <point x="86" y="593" type="curve" smooth="yes"/>
      <point x="86" y="558"/>
      <point x="72" y="517"/>
      <point x="12" y="488" type="curve"/>
    </contour>
  </outline>
</glyph>
<glyph name="ellipsis" format="2">
  <advance width="713"/>
  <unicode hex="2026"/>
  <outline>
    <contour>
      <point x="636" y="-6" type="curve" smooth="yes"/>
      <point x="650" y="-6"/>
      <point x="663" y="4"/>
      <point x="663" y="33" type="curve" smooth="yes"/>
      <point x="663" y="63"/>
      <point x="650" y="73"/>
      <point x="636" y="73" type="curve" smooth="yes"/>
      <point x="619" y="73"/>
      <point x="606" y="63"/>
      <point x="606" y="33" type="curve" smooth="yes"/>
      <point x="606" y="4"/>
      <point x="619" y="-6"/>
    </contour>
    <contour>
      <point x="80" y="-6" type="curve" smooth="yes"/>
      <point x="94" y="-6"/>
      <point x="107" y="4"/>
      <point x="107" y="33" type="curve" smooth="yes"/>
      <point x="107" y="63"/>
      <point x="94" y="73"/>
      <point x="80" y="73" type="curve" smooth="yes"/>
      <point x="63" y="73"/>
      <point x="50" y="63"/>
      <point x="50" y="33" type="curve" smooth="yes"/>
      <point x="50" y="4"/>
      <point x="63" y="-6"/>
    </contour>
    <contour>
      <point x="358" y="-6" type="curve" smooth="yes"/>
      <point x="372" y="-6"/>
      <point x="385" y="4"/>
      <point x="385" y="33" type="curve" smooth="yes"/>
      <point x="385" y="63"/>
      <point x="372" y="73"/>
      <point x="358" y="73" type="curve" smooth="yes"/>
      <point x="341" y="73"/>
      <point x="328" y="63"/>
      <point x="328" y="33" type="curve" smooth="yes"/>
      <point x="328" y="4"/>
      <point x="341" y="-6"/>
    </contour>
  </outline>
</glyph>
<glyph name="minus" format="2">
  <advance width="422"/>
  <unicode hex="2212"/>
  <outline>
    <contour>
      <point x="50" y="344" type="line"/>
      <point x="372" y="344" type="line"/>
      <point x="372" y="372" type="line"/>
      <point x="50" y="372" type="line"/>
    </contour>
  </outline>
</glyph>
<glyph name="uniA8F1" format="2">
  <unicode hex="A8F1"/>
  <note>
uniA8F1
</note>
  <outline>
    <contour>
      <point x="-78" y="908" type="curve" smooth="yes"/>
      <point x="-46" y="908"/>
      <point x="-29" y="929"/>
      <point x="-29" y="959" type="curve" smooth="yes"/>
      <point x="-29" y="1028"/>
      <point x="-109" y="1084"/>
      <point x="-109" y="1133" type="curve" smooth="yes"/>
      <point x="-109" y="1150"/>
      <point x="-100" y="1161"/>
      <point x="-79" y="1161" type="curve" smooth="yes"/>
      <point x="-37" y="1161" type="line"/>
      <point x="-37" y="1166" type="line"/>
      <point x="-46" y="1180" type="line"/>
      <point x="-78" y="1180" type="line" smooth="yes"/>
      <point x="-111" y="1180"/>
      <point x="-129" y="1163"/>
      <point x="-129" y="1137" type="curve" smooth="yes"/>
      <point x="-129" y="1075"/>
      <point x="-49" y="1023"/>
      <point x="-49" y="964" type="curve" smooth="yes"/>
      <point x="-49" y="943"/>
      <point x="-58" y="928"/>
      <point x="-79" y="928" type="curve" smooth="yes"/>
      <point x="-108" y="928"/>
      <point x="-131" y="952"/>
      <point x="-155" y="1011" type="curve"/>
      <point x="-174" y="1005" type="line"/>
      <point x="-147" y="937"/>
      <point x="-117" y="908"/>
    </contour>
  </outline>
</glyph>
<glyph name="aaMatra-beng.fina" format="2">
  <advance width="151"/>
  <outline>
    <contour>
      <point x="93" y="-10" type="line"/>
      <point x="96" y="-9" type="line"/>
      <point x="96" y="661" type="line"/>
      <point x="77" y="674" type="line"/>
      <point x="74" y="673" type="line"/>
      <point x="74" y="618" type="line" smooth="yes"/>
      <point x="74" y="604"/>
      <point x="75" y="583"/>
      <point x="76" y="556" type="curve"/>
      <point x="81" y="556" type="line"/>
      <point x="71" y="613"/>
      <point x="45" y="622"/>
      <point x="24" y="622" type="curve" smooth="yes"/>
      <point x="-15" y="622" type="line"/>
      <point x="-3" y="602" type="line"/>
      <point x="20" y="602" type="line" smooth="yes"/>
      <point x="51" y="602"/>
      <point x="69" y="578"/>
      <point x="74" y="514" type="curve"/>
      <point x="74" y="3" type="line"/>
    </contour>
  </outline>
</glyph>
<glyph name="aiMatra-beng.init" format="2">
  <advance width="260"/>
  <outline>
    <contour>
      <point x="231" y="618" type="curve"/>
      <point x="250" y="618" type="line"/>
      <point x="248" y="724"/>
      <point x="225" y="768"/>
      <point x="151" y="768" type="curve" smooth="yes"/>
      <point x="126" y="768"/>
      <point x="97" y="762"/>
      <point x="69" y="762" type="curve" smooth="yes"/>
      <point x="33" y="762"/>
      <point x="-5" y="780"/>
      <point x="-5" y="856" type="curve" smooth="yes"/>
      <point x="-5" y="869"/>
      <point x="-4" y="885"/>
      <point x="-2" y="898" type="curve"/>
      <point x="-19" y="900" type="line"/>
      <point x="-21" y="888"/>
      <point x="-23" y="871"/>
      <point x="-23" y="856" type="curve" smooth="yes"/>
      <point x="-23" y="763"/>
      <point x="23" y="740"/>
      <point x="69" y="740" type="curve" smooth="yes"/>
      <point x="98" y="740"/>
      <point x="124" y="746"/>
      <point x="158" y="746" type="curve" smooth="yes"/>
      <point x="222" y="746"/>
      <point x="228" y="693"/>
    </contour>
    <contour>
      <point x="185" y="1" type="curve" smooth="yes"/>
      <point x="216" y="1"/>
      <point x="238" y="20"/>
      <point x="238" y="54" type="curve" smooth="yes"/>
      <point x="238" y="85"/>
      <point x="217" y="105"/>
      <point x="191" y="105" type="curve" smooth="yes"/>
      <point x="163" y="105"/>
      <point x="144" y="86"/>
      <point x="144" y="57" type="curve" smooth="yes"/>
      <point x="144" y="41"/>
      <point x="147" y="31"/>
      <point x="158" y="21" type="curve"/>
      <point x="166" y="28" type="line"/>
      <point x="113" y="44"/>
      <point x="65" y="150"/>
      <point x="65" y="305" type="curve" smooth="yes"/>
      <point x="65" y="479"/>
      <point x="149" y="602"/>
      <point x="232" y="602" type="curve" smooth="yes"/>
      <point x="275" y="602" type="line"/>
      <point x="262" y="622" type="line"/>
      <point x="231" y="622" type="line" smooth="yes"/>
      <point x="117" y="622"/>
      <point x="42" y="474"/>
      <point x="42" y="309" type="curve" smooth="yes"/>
      <point x="42" y="113"/>
      <point x="111" y="1"/>
    </contour>
  </outline>
</glyph>
<glyph name="assacross" format="2">
  <advance width="523"/>
  <anchor x="207" y="98" name="_nukta"/>
  <outline>
    <contour>
      <point x="344" y="231" type="curve"/>
      <point x="352" y="255" type="line"/>
      <point x="310" y="318"/>
      <point x="254" y="371"/>
      <point x="206" y="409" type="curve"/>
      <point x="182" y="393" type="line"/>
      <point x="230" y="362"/>
      <point x="293" y="304"/>
    </contour>
  </outline>
</glyph>
<glyph name="assastroke" format="2">
  <advance width="356"/>
  <anchor x="108" y="98" name="_nukta"/>
  <outline>
    <contour>
      <point x="160" y="35" type="curve"/>
      <point x="171" y="45" type="line"/>
      <point x="139" y="116"/>
      <point x="92" y="178"/>
      <point x="36" y="218" type="curve"/>
      <point x="27" y="195" type="line"/>
      <point x="90" y="147"/>
      <point x="123" y="102"/>
    </contour>
  </outline>
</glyph>
<glyph name="auLength-beng.fina" format="2">
  <advance width="151"/>
  <anchor x="178" y="612" name="top"/>
  <anchor x="-33" y="650" name="topright"/>
  <outline>
    <contour>
      <point x="93" y="-10" type="line"/>
      <point x="96" y="-9" type="line"/>
      <point x="96" y="623" type="line" smooth="yes"/>
      <point x="96" y="737"/>
      <point x="48" y="777"/>
      <point x="-25" y="777" type="curve" smooth="yes"/>
      <point x="-76" y="777"/>
      <point x="-124" y="756"/>
      <point x="-190" y="756" type="curve" smooth="yes"/>
      <point x="-243" y="756"/>
      <point x="-276" y="773"/>
      <point x="-276" y="853" type="curve" smooth="yes"/>
      <point x="-276" y="867"/>
      <point x="-274" y="883"/>
      <point x="-271" y="898" type="curve"/>
      <point x="-289" y="900" type="line"/>
      <point x="-292" y="886"/>
      <point x="-294" y="865"/>
      <point x="-294" y="847" type="curve" smooth="yes"/>
      <point x="-294" y="761"/>
      <point x="-255" y="733"/>
      <point x="-189" y="733" type="curve" smooth="yes"/>
      <point x="-123" y="733"/>
      <point x="-77" y="754"/>
      <point x="-18" y="754" type="curve" smooth="yes"/>
      <point x="44" y="754"/>
      <point x="74" y="705"/>
      <point x="74" y="637" type="curve" smooth="yes"/>
      <point x="74" y="632"/>
      <point x="74" y="623"/>
      <point x="73" y="616" type="curve"/>
      <point x="86" y="622" type="line"/>
      <point x="-15" y="622" type="line"/>
      <point x="-3" y="602" type="line"/>
      <point x="74" y="602" type="line"/>
      <point x="74" y="3" type="line"/>
    </contour>
  </outline>
</glyph>
<glyph name="b_ba-beng" format="2">
  <advance width="649"/>
  <anchor x="567" y="11" name="bottom"/>
  <anchor x="573" y="20" name="bottom.rakaar"/>
  <anchor x="575" y="6" name="bottom.rvocalic"/>
  <anchor x="571" y="32" name="bottom.virama"/>
  <anchor x="581" y="602" name="top"/>
  <anchor x="575" y="602" name="topright"/>
  <outline>
    <contour>
      <point x="305" y="-3" type="line"/>
      <point x="308" y="-2" type="line"/>
      <point x="308" y="602" type="line"/>
      <point x="553" y="602" type="line"/>
      <point x="553" y="502" type="line"/>
      <point x="560" y="516" type="line"/>
      <point x="472" y="473"/>
      <point x="386" y="404"/>
      <point x="314" y="338" type="curve"/>
      <point x="331" y="309" type="line"/>
      <point x="425" y="258"/>
      <point x="517" y="149"/>
      <point x="558" y="10" type="curve"/>
      <point x="572" y="-3" type="line"/>
      <point x="575" y="-2" type="line"/>
      <point x="575" y="602" type="line"/>
      <point x="664" y="602" type="line"/>
      <point x="652" y="622" type="line"/>
      <point x="-15" y="622" type="line"/>
      <point x="-3" y="602" type="line"/>
      <point x="286" y="602" type="line"/>
      <point x="286" y="502" type="line"/>
      <point x="293" y="516" type="line"/>
      <point x="205" y="473"/>
      <point x="109" y="404"/>
      <point x="37" y="338" type="curve"/>
      <point x="54" y="309" type="line"/>
      <point x="148" y="258"/>
      <point x="250" y="149"/>
      <point x="291" y="10" type="curve"/>
    </contour>
    <contour>
      <point x="286" y="53" type="line"/>
      <point x="296" y="45" type="line"/>
      <point x="265" y="167"/>
      <point x="152" y="281"/>
      <point x="64" y="334" type="curve"/>
      <point x="62" y="324" type="line"/>
      <point x="133" y="394"/>
      <point x="231" y="457"/>
      <point x="291" y="487" type="curve"/>
      <point x="286" y="499" type="line"/>
    </contour>
    <contour>
      <point x="553" y="53" type="line"/>
      <point x="563" y="45" type="line"/>
      <point x="532" y="167"/>
      <point x="429" y="281"/>
      <point x="341" y="334" type="curve"/>
      <point x="339" y="324" type="line"/>
      <point x="410" y="394"/>
      <point x="498" y="457"/>
      <point x="558" y="487" type="curve"/>
      <point x="553" y="499" type="line"/>
    </contour>
  </outline>
</glyph>
<glyph name="b_bha-beng" format="2">
  <advance width="421"/>
  <anchor x="298" y="-51" name="bottom"/>
  <anchor x="353" y="-142" name="bottom.rakaar"/>
  <anchor x="297" y="-31" name="bottom.rvocalic"/>
  <anchor x="270" y="-86" name="bottom.virama"/>
  <anchor x="355" y="602" name="top"/>
  <anchor x="349" y="602" name="topright"/>
  <outline>
    <contour>
      <point x="271" y="-21" type="curve" smooth="yes"/>
      <point x="337" y="-21"/>
      <point x="390" y="24"/>
      <point x="390" y="128" type="curve" smooth="yes"/>
      <point x="390" y="202"/>
      <point x="366" y="252"/>
      <point x="342" y="276" type="curve"/>
      <point x="302" y="196"/>
      <point x="259" y="189"/>
      <point x="229" y="192" type="curve"/>
      <point x="233" y="185" type="line"/>
      <point x="243" y="189"/>
      <point x="250" y="203"/>
      <point x="250" y="220" type="curve" smooth="yes"/>
      <point x="250" y="245"/>
      <point x="236" y="262"/>
      <point x="214" y="262" type="curve" smooth="yes"/>
      <point x="190" y="262"/>
      <point x="176" y="242"/>
      <point x="176" y="220" type="curve" smooth="yes"/>
      <point x="176" y="191"/>
      <point x="193" y="167"/>
      <point x="235" y="167" type="curve" smooth="yes"/>
      <point x="281" y="167"/>
      <point x="322" y="189"/>
      <point x="353" y="247" type="curve"/>
      <point x="338" y="249" type="line"/>
      <point x="352" y="240"/>
      <point x="371" y="194"/>
      <point x="371" y="138" type="curve" smooth="yes"/>
      <point x="371" y="51"/>
      <point x="330" y="7"/>
      <point x="268" y="7" type="curve" smooth="yes"/>
      <point x="147" y="7"/>
      <point x="80" y="169"/>
      <point x="41" y="485" type="curve"/>
      <point x="21" y="482" type="line"/>
      <point x="64" y="128"/>
      <point x="139" y="-21"/>
    </contour>
    <contour>
      <point x="329" y="261" type="line"/>
      <point x="334" y="269" type="line"/>
      <point x="290" y="351"/>
      <point x="220" y="401"/>
      <point x="138" y="430" type="curve"/>
      <point x="138" y="422" type="line"/>
      <point x="191" y="472"/>
      <point x="282" y="522"/>
      <point x="334" y="541" type="curve"/>
      <point x="329" y="548" type="line"/>
    </contour>
    <contour>
      <point x="331" y="243" type="curve"/>
      <point x="349" y="260" type="line"/>
      <point x="349" y="602" type="line"/>
      <point x="436" y="602" type="line"/>
      <point x="424" y="622" type="line"/>
      <point x="-15" y="622" type="line"/>
      <point x="-3" y="602" type="line"/>
      <point x="329" y="602" type="line"/>
      <point x="329" y="557" type="line"/>
      <point x="334" y="566" type="line"/>
      <point x="257" y="538"/>
      <point x="172" y="484"/>
      <point x="113" y="434" type="curve"/>
      <point x="128" y="407" type="line"/>
      <point x="219" y="381"/>
      <point x="285" y="329"/>
    </contour>
  </outline>
</glyph>
<glyph name="b_d_ra-beng" format="2">
  <advance width="553"/>
  <anchor x="470" y="63" name="bottom"/>
  <anchor x="484" y="3" name="bottom.rvocalic"/>
  <anchor x="475" y="6" name="bottom.virama"/>
  <anchor x="429" y="602" name="top"/>
  <anchor x="415" y="602" name="topright"/>
  <outline>
    <contour>
      <point x="481" y="-1" type="line"/>
      <point x="484" y="1" type="line"/>
      <point x="469" y="68"/>
      <point x="456" y="115"/>
      <point x="456" y="224" type="curve" smooth="yes"/>
      <point x="456" y="320"/>
      <point x="477" y="404"/>
      <point x="497" y="443" type="curve"/>
      <point x="471" y="472" type="line"/>
      <point x="406" y="432"/>
      <point x="305" y="335"/>
      <point x="261" y="247" type="curve"/>
      <point x="273" y="240" type="line"/>
      <point x="273" y="602" type="line"/>
      <point x="568" y="602" type="line"/>
      <point x="557" y="622" type="line"/>
      <point x="-15" y="622" type="line"/>
      <point x="-2" y="602" type="line"/>
      <point x="251" y="602" type="line"/>
      <point x="251" y="265" type="line"/>
      <point x="266" y="259" type="line"/>
      <point x="223" y="343"/>
      <point x="146" y="395"/>
      <point x="86" y="418" type="curve"/>
      <point x="89" y="410" type="line"/>
      <point x="122" y="444"/>
      <point x="208" y="507"/>
      <point x="260" y="530" type="curve"/>
      <point x="258" y="558" type="line"/>
      <point x="199" y="529"/>
      <point x="114" y="471"/>
      <point x="61" y="424" type="curve"/>
      <point x="76" y="396" type="line"/>
      <point x="157" y="366"/>
      <point x="225" y="309"/>
      <point x="269" y="223" type="curve"/>
      <point x="273" y="223" type="line"/>
      <point x="334" y="331"/>
      <point x="422" y="410"/>
      <point x="479" y="445" type="curve"/>
      <point x="474" y="453" type="line"/>
      <point x="455" y="423"/>
      <point x="435" y="327"/>
      <point x="435" y="239" type="curve" smooth="yes"/>
      <point x="435" y="178"/>
      <point x="441" y="109"/>
      <point x="456" y="53" type="curve"/>
      <point x="460" y="50" type="line"/>
      <point x="437" y="99"/>
      <point x="398" y="128"/>
      <point x="347" y="128" type="curve" smooth="yes"/>
      <point x="292" y="128"/>
      <point x="246" y="108"/>
      <point x="191" y="108" type="curve" smooth="yes"/>
      <point x="121" y="108"/>
      <point x="90" y="154"/>
      <point x="90" y="221" type="curve" smooth="yes"/>
      <point x="90" y="241"/>
      <point x="93" y="263"/>
      <point x="98" y="286" type="curve"/>
      <point x="79" y="290" type="line"/>
      <point x="73" y="264"/>
      <point x="70" y="239"/>
      <point x="70" y="215" type="curve" smooth="yes"/>
      <point x="70" y="139"/>
      <point x="104" y="82"/>
      <point x="190" y="82" type="curve" smooth="yes"/>
      <point x="251" y="82"/>
      <point x="292" y="103"/>
      <point x="351" y="103" type="curve" smooth="yes"/>
      <point x="404" y="103"/>
      <point x="442" y="69"/>
      <point x="464" y="9" type="curve"/>
    </contour>
  </outline>
</glyph>
<glyph name="b_da-beng" format="2">
  <advance width="528"/>
  <anchor x="448" y="72" name="bottom"/>
  <anchor x="461" y="70" name="bottom.rakaar"/>
  <anchor x="463" y="11" name="bottom.rvocalic"/>
  <anchor x="455" y="0" name="bottom.virama"/>
  <anchor x="248" y="602" name="top"/>
  <anchor x="359" y="602" name="topleft"/>
  <anchor x="251" y="602" name="topright"/>
  <outline>
    <contour>
      <point x="445" y="2" type="curve"/>
      <point x="463" y="9" type="line"/>
      <point x="448" y="72"/>
      <point x="433" y="131"/>
      <point x="433" y="230" type="curve" smooth="yes"/>
      <point x="433" y="320"/>
      <point x="452" y="404"/>
      <point x="472" y="443" type="curve"/>
      <point x="446" y="472" type="line"/>
      <point x="381" y="432"/>
      <point x="280" y="335"/>
      <point x="236" y="247" type="curve"/>
      <point x="248" y="240" type="line"/>
      <point x="248" y="602" type="line"/>
      <point x="543" y="602" type="line"/>
      <point x="532" y="622" type="line"/>
      <point x="-15" y="622" type="line"/>
      <point x="-2" y="602" type="line"/>
      <point x="226" y="602" type="line"/>
      <point x="226" y="265" type="line"/>
      <point x="241" y="259" type="line"/>
      <point x="198" y="343"/>
      <point x="121" y="395"/>
      <point x="61" y="418" type="curve"/>
      <point x="64" y="410" type="line"/>
      <point x="97" y="444"/>
      <point x="183" y="507"/>
      <point x="235" y="530" type="curve"/>
      <point x="233" y="558" type="line"/>
      <point x="174" y="529"/>
      <point x="89" y="471"/>
      <point x="36" y="424" type="curve"/>
      <point x="51" y="396" type="line"/>
      <point x="132" y="366"/>
      <point x="200" y="309"/>
      <point x="244" y="223" type="curve"/>
      <point x="248" y="223" type="line"/>
      <point x="309" y="331"/>
      <point x="397" y="410"/>
      <point x="454" y="445" type="curve"/>
      <point x="449" y="453" type="line"/>
      <point x="430" y="423"/>
      <point x="411" y="327"/>
      <point x="411" y="238" type="curve" smooth="yes"/>
      <point x="411" y="150"/>
      <point x="425" y="77"/>
    </contour>
  </outline>
</glyph>
<glyph name="b_dha-beng" format="2">
  <advance width="444"/>
  <anchor x="300" y="-15" name="bottom"/>
  <anchor x="306" y="-6" name="bottom.rakaar"/>
  <anchor x="308" y="-20" name="bottom.rvocalic"/>
  <anchor x="304" y="6" name="bottom.virama"/>
  <anchor x="316" y="602" name="top"/>
  <anchor x="310" y="602" name="topright"/>
  <outline>
    <contour>
      <point x="305" y="-29" type="line"/>
      <point x="308" y="-28" type="line"/>
      <point x="308" y="602" type="line"/>
      <point x="459" y="602" type="line"/>
      <point x="446" y="622" type="line"/>
      <point x="-15" y="622" type="line"/>
      <point x="-3" y="602" type="line"/>
      <point x="286" y="602" type="line"/>
      <point x="286" y="524" type="line"/>
      <point x="295" y="539" type="line"/>
      <point x="205" y="507"/>
      <point x="120" y="447"/>
      <point x="41" y="372" type="curve"/>
      <point x="55" y="344" type="line"/>
      <point x="100" y="329"/>
      <point x="154" y="295"/>
      <point x="190" y="256" type="curve"/>
      <point x="205" y="268" type="line"/>
      <point x="160" y="320"/>
      <point x="111" y="347"/>
      <point x="66" y="367" type="curve"/>
      <point x="67" y="359" type="line"/>
      <point x="141" y="436"/>
      <point x="226" y="486"/>
      <point x="294" y="512" type="curve"/>
      <point x="286" y="521" type="line"/>
      <point x="286" y="7" type="line"/>
      <point x="294" y="15" type="line"/>
      <point x="245" y="113"/>
      <point x="171" y="166"/>
      <point x="121" y="193" type="curve"/>
      <point x="122" y="185" type="line"/>
      <point x="200" y="261"/>
      <point x="298" y="315"/>
      <point x="375" y="347" type="curve"/>
      <point x="371" y="358" type="line"/>
      <point x="371" y="61" type="line"/>
      <point x="393" y="44" type="line"/>
      <point x="394" y="354" type="line"/>
      <point x="370" y="372" type="line"/>
      <point x="290" y="342"/>
      <point x="188" y="281"/>
      <point x="98" y="200" type="curve"/>
      <point x="110" y="170" type="line"/>
      <point x="166" y="147"/>
      <point x="239" y="92"/>
      <point x="291" y="-16" type="curve"/>
    </contour>
  </outline>
</glyph>
<glyph name="b_ja-beng" format="2">
  <advance width="577"/>
  <anchor x="499" y="85" name="bottom"/>
  <anchor x="512" y="83" name="bottom.rakaar"/>
  <anchor x="514" y="24" name="bottom.rvocalic"/>
  <anchor x="506" y="13" name="bottom.virama"/>
  <anchor x="255" y="602" name="top"/>
  <anchor x="433" y="602" name="topleft"/>
  <anchor x="257" y="602" name="topright"/>
  <outline>
    <contour>
      <point x="280" y="83" type="curve" smooth="yes"/>
      <point x="368" y="83"/>
      <point x="412" y="152"/>
      <point x="412" y="242" type="curve" smooth="yes"/>
      <point x="412" y="313"/>
      <point x="389" y="362"/>
      <point x="364" y="394" type="curve"/>
      <point x="345" y="338"/>
      <point x="320" y="301"/>
      <point x="286" y="301" type="curve" smooth="yes"/>
      <point x="267" y="301"/>
      <point x="255" y="315"/>
      <point x="255" y="334" type="curve" smooth="yes"/>
      <point x="255" y="602" type="line"/>
      <point x="592" y="602" type="line"/>
      <point x="579" y="622" type="line"/>
      <point x="-15" y="622" type="line"/>
      <point x="-3" y="602" type="line"/>
      <point x="233" y="602" type="line"/>
      <point x="233" y="333" type="line"/>
      <point x="238" y="336" type="line"/>
      <point x="202" y="399"/>
      <point x="156" y="441"/>
      <point x="107" y="460" type="curve"/>
      <point x="107" y="452" type="line"/>
      <point x="149" y="489"/>
      <point x="189" y="513"/>
      <point x="239" y="538" type="curve"/>
      <point x="240" y="565" type="line"/>
      <point x="186" y="539"/>
      <point x="136" y="508"/>
      <point x="83" y="465" type="curve"/>
      <point x="97" y="437" type="line"/>
      <point x="151" y="422"/>
      <point x="188" y="383"/>
      <point x="238" y="308" type="curve" smooth="yes"/>
      <point x="256" y="281"/>
      <point x="272" y="277"/>
      <point x="288" y="277" type="curve" smooth="yes"/>
      <point x="325" y="277"/>
      <point x="355" y="309"/>
      <point x="376" y="361" type="curve"/>
      <point x="361" y="359" type="line"/>
      <point x="376" y="343"/>
      <point x="390" y="300"/>
      <point x="390" y="249" type="curve" smooth="yes"/>
      <point x="390" y="162"/>
      <point x="350" y="110"/>
      <point x="278" y="110" type="curve" smooth="yes"/>
      <point x="149" y="110"/>
      <point x="73" y="287"/>
      <point x="31" y="498" type="curve"/>
      <point x="12" y="494" type="line"/>
      <point x="62" y="230"/>
      <point x="152" y="83"/>
    </contour>
    <contour>
      <point x="496" y="15" type="curve"/>
      <point x="514" y="22" type="line"/>
      <point x="495" y="102"/>
      <point x="482" y="179"/>
      <point x="482" y="253" type="curve" smooth="yes"/>
      <point x="482" y="333"/>
      <point x="494" y="411"/>
      <point x="529" y="487" type="curve"/>
      <point x="507" y="512" type="line"/>
      <point x="477" y="496"/>
      <point x="444" y="488"/>
      <point x="409" y="488" type="curve" smooth="yes"/>
      <point x="349" y="488"/>
      <point x="291" y="517"/>
      <point x="252" y="567" type="curve"/>
      <point x="247" y="551" type="line"/>
      <point x="281" y="501"/>
      <point x="341" y="466"/>
      <point x="408" y="466" type="curve" smooth="yes"/>
      <point x="443" y="466"/>
      <point x="480" y="472"/>
      <point x="510" y="486" type="curve"/>
      <point x="507" y="496" type="line"/>
      <point x="473" y="422"/>
      <point x="461" y="341"/>
      <point x="461" y="259" type="curve" smooth="yes"/>
      <point x="461" y="179"/>
      <point x="474" y="97"/>
    </contour>
  </outline>
</glyph>
<glyph name="b_ra_uMatra-beng" format="2">
  <advance width="579"/>
  <anchor x="368" y="26" name="bottom"/>
  <anchor x="378" y="7" name="bottom.rvocalic"/>
  <anchor x="369" y="17" name="bottom.virama"/>
  <anchor x="384" y="602" name="top"/>
  <anchor x="378" y="602" name="topright"/>
  <outline>
    <contour>
      <point x="375" y="0" type="line"/>
      <point x="378" y="1" type="line"/>
      <point x="378" y="602" type="line"/>
      <point x="594" y="602" type="line"/>
      <point x="582" y="622" type="line"/>
      <point x="-15" y="622" type="line"/>
      <point x="-3" y="602" type="line"/>
      <point x="356" y="602" type="line"/>
      <point x="356" y="512" type="line"/>
      <point x="363" y="526" type="line"/>
      <point x="275" y="483"/>
      <point x="179" y="415"/>
      <point x="107" y="354" type="curve"/>
      <point x="124" y="325" type="line"/>
      <point x="218" y="289"/>
      <point x="314" y="216"/>
      <point x="365" y="117" type="curve"/>
      <point x="366" y="152" type="line"/>
      <point x="325" y="234"/>
      <point x="222" y="314"/>
      <point x="134" y="350" type="curve"/>
      <point x="132" y="340" type="line"/>
      <point x="203" y="405"/>
      <point x="301" y="467"/>
      <point x="361" y="497" type="curve"/>
      <point x="356" y="509" type="line"/>
      <point x="356" y="151" type="line"/>
      <point x="358" y="64" type="line"/>
      <point x="335" y="117"/>
      <point x="296" y="129"/>
      <point x="262" y="129" type="curve" smooth="yes"/>
      <point x="234" y="129"/>
      <point x="204" y="124"/>
      <point x="164" y="124" type="curve" smooth="yes"/>
      <point x="94" y="124"/>
      <point x="61" y="159"/>
      <point x="61" y="231" type="curve" smooth="yes"/>
      <point x="61" y="269"/>
      <point x="67" y="302"/>
      <point x="73" y="324" type="curve"/>
      <point x="53" y="328" type="line"/>
      <point x="46" y="301"/>
      <point x="40" y="265"/>
      <point x="40" y="225" type="curve" smooth="yes"/>
      <point x="40" y="127"/>
      <point x="91" y="98"/>
      <point x="161" y="98" type="curve" smooth="yes"/>
      <point x="207" y="98"/>
      <point x="229" y="104"/>
      <point x="267" y="104" type="curve" smooth="yes"/>
      <point x="303" y="104"/>
      <point x="335" y="89"/>
      <point x="360" y="14" type="curve"/>
    </contour>
    <contour>
      <point x="478" y="227" type="curve" smooth="yes"/>
      <point x="526" y="227"/>
      <point x="560" y="272"/>
      <point x="560" y="342" type="curve" smooth="yes"/>
      <point x="560" y="427"/>
      <point x="522" y="471"/>
      <point x="470" y="471" type="curve" smooth="yes"/>
      <point x="439" y="471"/>
      <point x="420" y="454"/>
      <point x="420" y="423" type="curve" smooth="yes"/>
      <point x="420" y="399"/>
      <point x="434" y="382"/>
      <point x="457" y="382" type="curve" smooth="yes"/>
      <point x="478" y="382"/>
      <point x="492" y="397"/>
      <point x="492" y="422" type="curve" smooth="yes"/>
      <point x="492" y="432"/>
      <point x="491" y="442"/>
      <point x="485" y="453" type="curve"/>
      <point x="477" y="446" type="line"/>
      <point x="519" y="446"/>
      <point x="541" y="407"/>
      <point x="541" y="343" type="curve" smooth="yes"/>
      <point x="541" y="297"/>
      <point x="520" y="250"/>
      <point x="476" y="250" type="curve" smooth="yes"/>
      <point x="425" y="250"/>
      <point x="378" y="322"/>
      <point x="378" y="423" type="curve"/>
      <point x="368" y="357" type="line"/>
      <point x="389" y="269"/>
      <point x="429" y="227"/>
    </contour>
  </outline>
</glyph>
